<?xml version="1.0" encoding="utf-8"?>
<!-- Generator: Adobe Illustrator 14.0.0, SVG Export Plug-In  -->
<!DOCTYPE svg PUBLIC "-//W3C//DTD SVG 1.1//EN" "http://www.w3.org/Graphics/SVG/1.1/DTD/svg11.dtd" [
	<!ENTITY ns_flows "http://ns.adobe.com/Flows/1.0/">
]>
<svg version="1.1"
	 xmlns="http://www.w3.org/2000/svg" xmlns:xlink="http://www.w3.org/1999/xlink" xmlns:a="http://ns.adobe.com/AdobeSVGViewerExtensions/3.0/"
	 x="0px" y="0px" width="150px" height="150px" viewBox="-9.993 -0.596 150 150" enable-background="new -9.993 -0.596 150 150"
	 xml:space="preserve">
<defs>
</defs>
<g id="XMLID_1_">
	<g>
		<path fill="#E7C4A7" d="M128.301,122.378c0.289-0.155,0.586-0.311,0.891-0.467c-0.35,0.921-0.86,1.861-1.562,2.82
			C127.92,124.07,128.141,123.228,128.301,122.378z"/>
		<path fill="#E7C4A7" d="M128.514,119.267c0.1,0.674,0.016,1.893-0.213,3.111c-1.569,0.823-3.124,1.575-5.371,1.744
			c-1.722,0.13-7.253,0.454-7.854-1.076c2.347-1.601,5.676-0.745,8.289-2.21c2.468-1.395,2.948-2.833,2.887-4.927
			C127.295,116.939,128.315,117.88,128.514,119.267z"/>
		<path fill="#DDD1C2" d="M128.141,43.252c-1.852,2.625-2.834,8.071-2.934,9.348c-1.47,1.057-3.306,2.224-5.081,3.021l3.481-10.009
			c0,0-0.053-0.02-0.167-0.065C123.638,44.575,126.319,43.914,128.141,43.252z"/>
		<path fill="#E7C4A7" d="M121.833,102.957c4.113,6.009,10.048,12.057,7.358,18.954c-0.305,0.156-0.602,0.312-0.891,0.467
			c0.229-1.219,0.312-2.438,0.213-3.111c-0.198-1.387-1.219-2.327-2.263-3.357c-0.67-0.655-1.355-1.355-1.828-2.23
			c-1.409-2.6-1.265-4.862-1.904-7.448c-0.29-1.154-0.755-2.101-1.364-2.937L121.833,102.957z"/>
		<path fill="#A17552" d="M49.756,124.311c0,0-0.008,0-0.008-0.007c-0.792-0.376-1.607-0.583-2.682-0.668
			c-1.531-0.875-3.786-1.096-6.338-0.934c2.453-2.217,4.563-5.406,7.245-7.604c1.912,1.367,4.259,1.42,7.192,1.568
			c4.457,0.221,8.075,1.199,11.61,3.15c6.719,3.702,12.783,3.65,19.822,2.036c7.383-1.692,13.241,2.956,20.577,3.896
			c3.367,0.428,16.646,1.698,19.96-0.389c-2.08,2.359-7.077,3.637-13.065,4.356c-4.754-0.246-9.432-0.636-14.269-0.843
			c-3.322-0.143-6.445-0.162-9.63,0.227c-1.813,0.228-4.77,0.117-7.161,0.408c-0.404-0.129-1.775-0.123-3.307-0.006
			c-1.615-0.843-3.275-1.634-4.891-2.036c-1.653-0.408-3.223-0.382-4.776-0.22c0.259-0.123,0.616-0.247,0.243-0.228
			c-0.267,0.085-0.541,0.182-0.8,0.292c-2.201,0.266-4.38,0.72-6.742,0.486c0,0-3.405,0.868-6.163,2.418
			c-0.312-0.383-0.609-0.745-0.914-1.089c-1.127-1.284-2.278-2.327-3.961-3.585C50.99,125.011,50.38,124.608,49.756,124.311z"/>
		<path fill="#E7C4A7" d="M121.154,103.294c-1.013-1.394-2.415-2.496-4.007-3.773c0.655,0.966,0.556,1.854,0.319,2.853
			c-3.306-1.199-6.65-2.094-10.208-2.813c-5.806-1.173-1.592-1.011-2.064-4.603c-0.351-2.619-5.432-3.111-5.942-5.51
			c-0.563-2.658,3.946-3.916,6.521-3.903c2.925,1.725,2.514,3.663,4.67,6.574c1.584,2.146,4.403,2.456,6.476,4.051
			c2.491,1.913,3.261,4.356,4.86,6.703c0.022,0.026,0.038,0.059,0.054,0.085L121.154,103.294z"/>
		<path fill="#E7C4A7" d="M88.548,100.901c4.137-0.253,10.986,3.312,14.14,4.979c3.032,1.602,5.463,3.592,8.007,5.53
			c2.385,1.814,6.285,2.528,7.946,4.933c-2.499,1.718-9.31-1.361-11.953-2.671c-4.434-2.197-5.988-4.822-11.328-6.003
			c-6.842-1.504-15.436,2.457-20.562-3.247c3.192-1.465,9.013-3.475,13.729-3.779L88.548,100.901z"/>
		<path fill="#C7B299" d="M106.124,2.068c0.586,5.51-1.928,11.312-2.248,16.822c-0.145,2.515-0.586,4.797-0.762,7.299
			c-0.091,1.225-0.746,3.377-0.762,5.05c-1.996-0.207-3.748,0.966-5.203,1.913l5.302-29.729l-0.305-0.065
			C103.206,2.743,104.89,2.179,106.124,2.068z"/>
		<path fill="#CCCCCC" d="M103.32,31.571c0.487,0.278,0.876,0.765,0.076,1.497c-0.259-0.143-0.533-0.298-0.815-0.479
			c-0.008,0-0.016-0.006-0.03-0.02c-0.084-0.208-0.138-0.434-0.168-0.687c0.32-0.091,0.633-0.194,0.93-0.311H103.32z"/>
		<path fill="#5A6C54" d="M103.312,31.571c-0.297,0.117-0.609,0.22-0.93,0.311c-0.022-0.201-0.03-0.415-0.03-0.642
			c0.061,0,0.13,0.013,0.19,0.02C102.543,31.259,102.954,31.356,103.312,31.571z"/>
		<path fill="#CCCCCC" d="M102.604,48.276c0.351,0.758,2.629,6.1,1.296,6.612c-0.076,0.033-0.16,0.033-0.244,0.013
			c-0.457-0.946-0.617-2.366-0.884-3.222c-0.403-1.303-0.892-2.58-0.998-3.929c0.305,0.13,0.609,0.259,0.906,0.389L102.604,48.276z"
			/>
		<path fill="#C7B299" d="M103.396,33.068c3.352,1.88,5.181,1.595,9.66,3.047c5.82,1.88,10.368,4.091,15.686,6.418
			c-0.213,0.201-0.411,0.447-0.602,0.719c-1.821,0.662-4.503,1.323-4.7,2.295c-1.486-0.577-12.906-5.011-25.613-9.905
			c-0.389-0.156-0.784-0.305-1.173-0.454c0.213-0.156,0.411-0.318,0.594-0.5c1.874-0.551,3.68-1.575,5.311-2.094
			c0.007-0.006,0.015-0.006,0.022-0.006C102.863,32.77,103.138,32.925,103.396,33.068z"/>
		<path fill="#999999" d="M101.08,50.973c-0.076-1.355-0.167-2.71-0.541-3.747c0.412,0.182,0.823,0.35,1.234,0.525
			c0.106,1.349,0.595,2.625,0.998,3.929c0.267,0.855,0.427,2.275,0.884,3.222C102.848,54.713,101.675,52.503,101.08,50.973z"/>
		<path fill="#CCCCCC" d="M101.263,53.462c0.114,0.888,1.25,5.173-0.7,4.408c-0.138-0.622-0.084-1.361-0.152-1.899
			c-0.114-1.012-0.366-1.926-0.587-2.911c-0.479-2.094-0.046-4.252-0.511-6.346c0.412,0.168,0.823,0.344,1.227,0.512
			c0.374,1.037,0.465,2.392,0.541,3.747C101.126,51.829,101.164,52.684,101.263,53.462z"/>
		<path fill="#999999" d="M100.174,57.676c-1.181-0.707-1.249-4.298-1.387-5.503c-0.221-1.867-0.054-4.065,0.389-5.517
			c0.046,0.019,0.092,0.039,0.137,0.058c0.465,2.094,0.031,4.252,0.511,6.346c0.221,0.985,0.473,1.899,0.587,2.911
			c0.068,0.538,0.015,1.277,0.152,1.899C100.448,57.825,100.318,57.76,100.174,57.676z"/>
		<path fill="#998675" d="M99.176,46.656c-0.351-0.149-0.709-0.298-1.059-0.448c-0.008-0.006-0.023-0.013-0.031-0.013
			c-1.028-0.441-2.072-0.875-3.123-1.316c-0.046-0.02-0.099-0.045-0.145-0.059l0.068-0.117c-0.655-0.298-2.712-5.102-3.353-5.99
			c1.912-1.102,3.946-2.58,6.293-3.073c12.707,4.895,24.127,9.329,25.613,9.905c0.114,0.045,0.167,0.065,0.167,0.065l-3.481,10.009
			c0,0-7.664-3.332-17.446-7.481c-0.297-0.13-0.602-0.259-0.906-0.389c-0.411-0.175-0.822-0.343-1.234-0.525
			c-0.403-0.168-0.814-0.344-1.227-0.512C99.268,46.694,99.222,46.675,99.176,46.656z"/>
		<path fill="#DDD1C2" d="M102.146,3.358L91.938,1.18V1.167c1.379-0.156,2.772-0.616,4.129-0.804c1.509-0.208,1.577-0.117,3.2,0.162
			c1.386,0.24,7.504,1.005,7.146,1.29l-0.289,0.253C104.89,2.179,103.206,2.743,102.146,3.358z"/>
		<path fill="#D79C6D" d="M70.036,127.247c1.554-0.162,3.123-0.188,4.776,0.22c1.615,0.402,3.275,1.193,4.891,2.036
			c-2.255,0.175-4.853,0.59-5.219,1.153c-0.959,1.479,7.505,4.447,9.021,5.187c2.537,1.238,5.265,2.853,7.953,3.624
			c0.404,0.116,1.988,0.369,3.116,0.376c0.152,0.693-0.03,1.354-0.655,1.964c-1.059,0.078-2.201,0-3.504-0.162
			c-4.503-0.57-8.114-0.292-12.57-0.344c-4.99-0.059-5.143-2.133-8.38-4.305c-2.37-1.581-5.752-1.303-7.565-3.694
			c1.745-2.457,4.449-4.778,7.58-5.99C69.662,127.285,69.853,127.267,70.036,127.247z"/>
		<path fill="#E7C4A7" d="M80.709,130.034c0.785,0.415,1.554,0.823,2.301,1.192c0.008,0,0.022,0.007,0.03,0.014
			c3.611,1.776,10.871,5.497,11.534,8.603c-1.128-0.007-2.712-0.26-3.116-0.376c-2.688-0.771-5.416-2.386-7.953-3.624
			c-1.516-0.739-9.979-3.708-9.021-5.187c0.366-0.563,2.964-0.979,5.219-1.153C80.038,129.678,80.374,129.853,80.709,130.034z"/>
		<path fill="#998675" d="M98.117,46.215c-0.13,0.499-0.26,0.992-0.374,1.491c-1.195,0.538-3.306,1.225-3.52,2.029l-0.076-0.007
			l0.396-2.223c0.312-0.071,0.625-0.149,0.93-0.24c0.922-0.252,1.82-0.596,2.612-1.069c0.008,0,0.023,0.006,0.031,0.013V46.215z"/>
		<path fill="#C7B299" d="M94.224,49.735c0.214-0.804,2.324-1.491,3.52-2.029c-1.233,4.83-2.255,9.685-3.177,14.547
			c-0.944,0.901-2.087,1.828-3.108,2.651l2.689-15.176L94.224,49.735z"/>
		<path fill="#998675" d="M93.638,44.322c0.396,0.162,0.784,0.331,1.181,0.499c0.046,0.013,0.099,0.039,0.145,0.059
			c-1.014,0.382-1.691-0.168-2.194-0.947L93.638,44.322z"/>
		<path fill="#736558" d="M91.534,38.714c0.641,0.888,2.697,5.692,3.353,5.99l-0.068,0.117c-0.396-0.168-0.785-0.337-1.181-0.499
			l-0.869-0.389c-0.457-0.707-0.754-1.601-1.013-2.146c-0.48-1.005-1.897-2.742-1.783-3.916c0.312-0.123,0.595-0.233,0.83-0.331
			c1.761-0.732,4.274-1.238,5.852-2.353c0.389,0.149,0.784,0.298,1.173,0.454C95.48,36.134,93.446,37.612,91.534,38.714z"/>
		<path fill="#998675" d="M90.636,35.525l-0.03-0.052c-1.524,0.188-1.585-2.898-1.905-3.241l0.046-0.091l5.569,2.146
			C93.051,34.688,91.832,35.084,90.636,35.525z"/>
		<path fill="#C7B299" d="M87.253,88.617l0.846-4.765l3.359-18.949c1.021-0.823,2.164-1.75,3.108-2.651
			c-1.234,6.547-2.293,13.108-3.397,19.642c-0.762,4.519-1.554,9.024-2.445,13.503c-0.846-0.246-1.691-0.512-2.545-0.713
			L87.253,88.617z"/>
		<path fill="#CCCCCC" d="M89.942,40.497c-0.206-0.726-0.663-1.504-0.884-2.25c0.32-0.136,0.633-0.259,0.914-0.376
			c-0.114,1.173,1.303,2.911,1.783,3.916c0.259,0.544,0.556,1.439,1.013,2.146c0.503,0.778,1.181,1.329,2.194,0.947
			c1.051,0.441,2.095,0.875,3.123,1.316c-0.792,0.473-1.69,0.817-2.612,1.069l-0.016-0.039c-1.371,0.382-3.634-3.209-4.091-4.058
			C90.856,42.215,90.225,41.541,89.942,40.497z"/>
		<path fill="#998675" d="M89.988,42.805l-3.604-1.504c-0.183-0.078-0.328-0.136-0.457-0.194c0.808-0.37,1.668-0.895,2.552-1.141
			C88.808,40.879,89.462,41.943,89.988,42.805z"/>
		<path fill="#999999" d="M89.059,38.248c0.221,0.746,0.678,1.523,0.884,2.25c0.282,1.044,0.914,1.718,1.425,2.671
			c0.457,0.849,2.72,4.44,4.091,4.058l0.016,0.039c-0.305,0.091-0.617,0.169-0.93,0.24c-0.358,0.084-0.724,0.149-1.082,0.214
			c-1.485-0.713-2.042-2.159-2.651-3.436c-0.114-0.227-0.221-0.454-0.343-0.667c-0.084-0.149-0.183-0.318-0.289-0.499
			c-0.062-0.097-0.122-0.201-0.19-0.312c-0.526-0.862-1.181-1.925-1.509-2.839c-0.205-0.538-0.289-1.024-0.167-1.387
			C88.563,38.461,88.814,38.352,89.059,38.248z"/>
		<path fill="#D79C6D" d="M88.724,95.397c0.892-4.479,1.684-8.984,2.445-13.503c4.525,0.525,8.608,1.355,11.595,2.354
			c1.288,0.428,2.263,0.855,3.01,1.296c-2.575-0.013-7.085,1.245-6.521,3.903c0.511,2.398,5.592,2.891,5.942,5.51
			c0.473,3.592-3.741,3.43,2.064,4.603c3.558,0.72,6.902,1.614,10.208,2.813c0.236-0.998,0.336-1.887-0.319-2.853
			c1.592,1.277,2.994,2.38,4.007,3.773c0.609,0.836,1.074,1.782,1.364,2.937c0.64,2.586,0.495,4.849,1.904,7.448
			c0.473,0.875,1.158,1.575,1.828,2.23c0.062,2.094-0.419,3.532-2.887,4.927c-2.613,1.465-5.942,0.609-8.289,2.21
			c0.602,1.53,6.133,1.206,7.854,1.076c2.247-0.169,3.802-0.921,5.371-1.744c-0.16,0.85-0.381,1.692-0.671,2.354
			c-0.084,0.117-0.175,0.24-0.267,0.363c-0.068,0.091-0.145,0.175-0.229,0.266c-3.313,2.087-16.593,0.816-19.96,0.389
			c-7.336-0.939-13.194-5.588-20.577-3.896c-7.039,1.614-13.104,1.666-19.822-2.036c-3.535-1.951-7.154-2.93-11.61-3.15
			c-2.933-0.148-5.28-0.201-7.192-1.568c0.053-0.046,0.099-0.091,0.152-0.13c3.329-2.671,8.533-4.882,12.578-6.981
			c4.16-2.159,8.876-3.734,13.013-6.022c0.495-0.272,0.982-0.551,1.462-0.85c2.903-1.802,6.971-4.952,9.333-6.741
			c0.563,0.071,1.12,0.182,1.668,0.311C87.032,94.886,87.878,95.151,88.724,95.397z M102.688,105.88
			c-3.153-1.666-10.003-5.231-14.14-4.979l-0.022-0.259c-4.716,0.305-10.536,2.314-13.729,3.779
			c5.127,5.704,13.721,1.743,20.562,3.247c5.34,1.181,6.895,3.806,11.328,6.003c2.644,1.31,9.454,4.389,11.953,2.671
			c-1.661-2.404-5.562-3.118-7.946-4.933C108.15,109.472,105.72,107.481,102.688,105.88z"/>
		<path fill="#736558" d="M83.817,85.732c1.295-0.506,2.986-1.174,4.281-1.88l-0.846,4.765c-1.371,0.622-3.223,1.329-3.885,1.595
			c-0.26,0.104-0.541,0.201-0.839,0.298c-1.379-0.278-2.376-1.51-3.085-2.937c1.363-0.558,2.682-1.173,3.505-1.497
			C83.208,85.973,83.497,85.855,83.817,85.732z"/>
		<path fill="#736558" d="M88.479,39.965c-0.884,0.247-1.744,0.771-2.552,1.141c-0.252-0.117-0.449-0.208-0.785-0.35
			c0.549-0.849,1.874-1.595,3.17-2.178C88.19,38.941,88.274,39.427,88.479,39.965z"/>
		<path fill="#736558" d="M87.192,42.909c0.091,0.058,0.091,0.097,0.068,0.129c-0.068-0.019-0.137-0.039-0.206-0.058
			C87.101,42.954,87.146,42.928,87.192,42.909z"/>
		<path fill="#736558" d="M89.081,36.122c-0.305-0.85-2.079-2.379-2.628-3.604c0,0-0.008,0,0-0.006l0.206-1.167
			c0.479,0.182,0.96,0.363,1.447,0.551l0.64,0.247L88.7,32.232c0.32,0.343,0.381,3.429,1.905,3.241l0.03,0.052
			c-0.519,0.194-1.036,0.396-1.547,0.609L89.081,36.122z"/>
		<path fill="#998675" d="M86.659,31.344l0.533-3.118H87.2l4.677-27.058l0.062,0.013l10.208,2.178l0.305,0.065l-5.302,29.729
			c-0.381,0.253-0.739,0.486-1.082,0.674c0.061-0.045,0.13-0.097,0.183-0.149c-0.655,0.208-1.303,0.409-1.935,0.609l-5.569-2.146
			l-0.64-0.247C87.619,31.707,87.139,31.525,86.659,31.344z"/>
		<path fill="#998675" d="M86.605,31.324c0.016,0,0.03,0.006,0.054,0.02l-0.206,1.167c-0.183-0.396-0.229-0.759-0.061-1.057
			c-0.236-0.11,0.068-0.162,0.183-0.143c0.008-0.007,0.008-0.007,0.015,0C86.59,31.318,86.598,31.318,86.605,31.324z"/>
		<path fill="#564C42" d="M87.253,88.617l-1.074,6.067c-0.548-0.129-1.104-0.239-1.668-0.311c-0.312-0.039-0.625-0.065-0.945-0.078
			c-2.453-0.091-5.508,0.707-8.113,1.802l0.427-2.424l0.214-1.258c1.874-0.843,4.486-1.283,6.437-1.906
			c0.298-0.097,0.579-0.194,0.839-0.298C84.03,89.946,85.882,89.239,87.253,88.617z"/>
		<path fill="#736558" d="M85.928,41.106c0.129,0.058,0.274,0.117,0.457,0.194l3.604,1.504c0.068,0.11,0.129,0.214,0.19,0.312
			c0.106,0.181,0.205,0.35,0.289,0.499c0.122,0.214,0.229,0.441,0.343,0.667c-0.99-0.292-1.965-0.687-2.88-1.024
			c-0.213-0.078-0.434-0.149-0.67-0.221c0.022-0.032,0.022-0.071-0.068-0.129c-0.046,0.02-0.092,0.045-0.138,0.071
			c-0.776-0.227-1.607-0.447-2.225-0.836l0.031-0.175l0.183-1.063c0.03-0.045,0.061-0.097,0.099-0.149
			C85.479,40.899,85.676,40.99,85.928,41.106z"/>
		<path fill="#998675" d="M80.511,73.752c1.06-5.854,2.095-11.688,2.857-17.535c0.312-2.418,0.77-4.531,1.325-6.807
			c0.518-2.074,0.008-5.206,2.361-6.431c0.069,0.02,0.138,0.039,0.206,0.058c0.236,0.071,0.457,0.143,0.67,0.221
			c0.915,0.337,1.89,0.732,2.88,1.024c0.609,1.277,1.166,2.723,2.651,3.436c0.358-0.065,0.724-0.13,1.082-0.214l-0.396,2.223
			l-2.689,15.176l-3.359,18.949c-1.295,0.706-2.986,1.374-4.281,1.88C77.51,86.271,80.168,75.633,80.511,73.752z"/>
		<path fill="#79583E" d="M83.01,129.509c2.392-0.291,5.348-0.181,7.161-0.408c3.185-0.389,6.308-0.369,9.63-0.227
			c4.837,0.207,9.515,0.597,14.269,0.843c-10.887,1.303-25.049,0.765-31.06,1.51c-0.747-0.369-1.516-0.777-2.301-1.192
			C81.349,129.781,82.142,129.619,83.01,129.509z"/>
		<path fill="#CCCCCC" d="M86.59,31.312c-0.007-0.007-0.007-0.007-0.015,0c-0.114-0.02-0.419,0.032-0.183,0.143
			c-0.168,0.298-0.122,0.661,0.061,1.057c-0.008,0.006,0,0.006,0,0.006c0.549,1.225,2.323,2.755,2.628,3.604l0.008,0.013
			c-0.274,0.11-0.541,0.233-0.814,0.356c-0.899-1.031-1.806-2.223-2.621-3.299c-0.602-0.797-0.861-1.439-0.762-2.418
			c0.053-0.571,0.327-1.725,0.922-2.055c0.038-0.02,0.076-0.032,0.122-0.052c0.152-0.071,0.312-0.136,0.487-0.194
			c0.236-0.091,0.495-0.169,0.77-0.247l-0.533,3.118c-0.023-0.013-0.038-0.02-0.054-0.02C86.621,31.318,86.613,31.312,86.59,31.312z
			"/>
		<path fill="#5A6C54" d="M84.861,41.969l-0.031,0.175c-0.038-0.02-0.068-0.039-0.106-0.065
			C84.747,41.956,84.792,41.949,84.861,41.969z"/>
		<path fill="#CCCCCC" d="M82.773,42.591c-0.13-2.321,3.954-4.518,5.92-5.315c2.666-1.076,5.408-2.101,7.983-3.28
			c1.15-0.525,2.202-1.005,3.359-1.439c0.747-0.279,1.57-0.454,2.347-0.674c0.03,0.253,0.084,0.479,0.168,0.687
			c0,0.006,0.008,0.02,0.008,0.026c-1.631,0.519-3.437,1.543-5.311,2.094c-0.183,0.182-0.381,0.344-0.594,0.5
			c-1.577,1.115-4.091,1.621-5.852,2.353c-0.235,0.097-0.518,0.208-0.83,0.331c-0.281,0.117-0.594,0.24-0.914,0.376
			c-0.244,0.104-0.495,0.214-0.746,0.331c-1.296,0.583-2.621,1.329-3.17,2.178c-0.022-0.006-0.046-0.02-0.068-0.026l-0.03,0.175
			l-0.183,1.063c-0.069-0.02-0.114-0.013-0.138,0.11c0.038,0.026,0.068,0.045,0.106,0.065l-0.061,0.35
			C84.099,42.876,83.337,42.863,82.773,42.591z"/>
		<path fill="#999999" d="M84.312,32.562c-0.343-0.875-0.404-1.601-0.206-2.204c0.236-0.687,0.815-1.219,1.707-1.64
			c-0.595,0.331-0.869,1.484-0.922,2.055c-0.1,0.979,0.16,1.621,0.762,2.418c0.815,1.076,1.722,2.269,2.621,3.299
			c-0.252,0.11-0.503,0.227-0.755,0.35C86.956,35.337,84.93,34.131,84.312,32.562z"/>
		<path fill="#998675" d="M83.162,29.995c-1.646,3.015,0.419,3.922,1.89,6.567c-0.953,1.005-2.271,1.88-3.421,2.827
			c-10.803-4.408-19.389-7.721-20.166-7.28l0.251-10.197C64.764,22.981,73.327,26.229,83.162,29.995z"/>
		<path fill="#736558" d="M84.106,30.358c-0.198,0.603-0.137,1.329,0.206,2.204c0.617,1.569,2.644,2.774,3.207,4.278
			c-0.64,0.311-1.272,0.648-1.912,1.018c-0.884,0.519-2.064,1.186-2.842,1.997l-0.008-0.007c-0.381-0.155-0.754-0.305-1.127-0.46
			c1.15-0.947,2.468-1.822,3.421-2.827c-1.471-2.645-3.535-3.552-1.89-6.567C83.475,30.119,83.787,30.235,84.106,30.358z"/>
		<path fill="#A17552" d="M79.703,129.503c1.531-0.117,2.902-0.123,3.307,0.006c-0.868,0.11-1.661,0.272-2.301,0.525
			C80.374,129.853,80.038,129.678,79.703,129.503z"/>
		<path fill="#999999" d="M96.677,33.995c-2.575,1.18-5.317,2.204-7.983,3.28c-1.966,0.797-6.05,2.995-5.92,5.315
			c-0.594-0.292-0.968-0.875-0.739-1.601c0.122-0.408,0.389-0.784,0.731-1.134c0.777-0.811,1.958-1.478,2.842-1.997
			c0.64-0.37,1.272-0.707,1.912-1.018c0.252-0.123,0.503-0.24,0.755-0.35c0.273-0.123,0.54-0.246,0.814-0.356
			c0.511-0.214,1.028-0.415,1.547-0.609c1.196-0.441,2.415-0.836,3.68-1.238c0.632-0.201,1.279-0.402,1.935-0.609
			c-0.053,0.052-0.122,0.104-0.183,0.149c0.343-0.188,0.701-0.421,1.082-0.674c1.455-0.946,3.207-2.12,5.203-1.913
			c0,0.227,0.008,0.441,0.03,0.642c-0.776,0.22-1.6,0.396-2.347,0.674C98.879,32.99,97.827,33.47,96.677,33.995z"/>
		<path fill="#736558" d="M83.368,56.217c-0.763,5.847-1.798,11.682-2.857,17.535c-0.343,1.88-3.001,12.518,3.307,11.98
			c-0.32,0.123-0.609,0.24-0.868,0.344c-0.823,0.324-2.142,0.939-3.505,1.497c-0.968-1.925-1.425-4.194-1.6-4.939l-0.046-0.007
			l0.213-1.238l6.758-38.895l0.061-0.35c0.617,0.389,1.448,0.609,2.225,0.836c-2.354,1.225-1.844,4.356-2.361,6.431
			C84.138,51.686,83.68,53.799,83.368,56.217z"/>
		<path fill="#564C42" d="M77.845,82.634c0.175,0.745,0.632,3.015,1.6,4.939c-0.922,0.383-1.858,0.732-2.674,0.96l1.028-5.906
			L77.845,82.634z"/>
		<path fill="#A17552" d="M71.879,97.978c0.968-0.654,2.21-1.309,3.573-1.88c2.605-1.095,5.66-1.893,8.113-1.802
			c0.32,0.013,0.633,0.039,0.945,0.078c-2.362,1.789-6.43,4.939-9.333,6.741c-0.479,0.299-0.967,0.577-1.462,0.85
			c-1.493,0.344-3.094,0.597-4.579,0.946c-0.008-0.02-0.32-0.389-0.335-0.396c1.966-2.308,5.424-3.429,7.572-5.381
			c-1.325,0.318-2.766,0.83-4.251,1.355L71.879,97.978z"/>
		<path fill="#D79C6D" d="M76.771,88.533l-0.442,2.528h-0.007c-2.232-0.766-9.341,1.711-11.017,3.176
			c1.402,0.208,3.848,0.246,6.11,0.104c-9.424,3.547-18.505,8.428-27.175,13.406c-0.45-0.888-1.104-1.627-2.194-2.035
			c-2.994-1.108-7.519,1.31-10.612,1.18c0.046-2.892,3.573-7.967,6.902-10.586c6.491-3.164,13.218-5.789,19.861-8.7
			c0.069-0.025,0.13-0.058,0.19-0.091l-0.221-0.343c4.022-3.786,11.709-5.452,19.845-5.783l-0.213,1.238L76.771,88.533z"/>
		<path fill="#564C42" d="M82.529,90.51c-1.95,0.623-4.562,1.063-6.437,1.906l0.106-0.59l0.129-0.765l0.442-2.528
			c0.815-0.228,1.752-0.577,2.674-0.96C80.153,89,81.15,90.231,82.529,90.51z"/>
		<path fill="#A17552" d="M73.944,94.095c0.784-0.11,1.455-0.253,1.935-0.421l-0.427,2.424c-1.363,0.571-2.605,1.226-3.573,1.88
			l0.244,0.513c-2.766,0.979-5.69,2.016-8.342,2.035C66.287,97.79,71.095,96.772,73.944,94.095z"/>
		<path fill="#A17552" d="M75.879,93.674c-0.479,0.168-1.15,0.311-1.935,0.421c0.091-0.071,0.167-0.148,0.243-0.227
			c-0.776-1.012-2.072-0.46-3.245-0.862c1.523-0.72,3.512-0.94,5.257-1.18l-0.106,0.59L75.879,93.674z"/>
		<path fill="#A17552" d="M71.415,94.341c-2.263,0.143-4.708,0.104-6.11-0.104c1.676-1.465,8.784-3.941,11.017-3.176h0.007
			l-0.129,0.765c-1.745,0.239-3.733,0.46-5.257,1.18c1.173,0.402,2.469-0.149,3.245,0.862c-0.076,0.078-0.152,0.155-0.243,0.227
			C73.175,94.205,72.306,94.289,71.415,94.341z"/>
		<path fill="#A17552" d="M73.944,94.095c-2.85,2.678-7.657,3.695-10.163,6.431c2.651-0.02,5.576-1.057,8.342-2.035
			c1.485-0.525,2.926-1.037,4.251-1.355c-2.148,1.952-5.606,3.073-7.572,5.381c0.015,0.007,0.327,0.376,0.335,0.396
			c1.485-0.35,3.086-0.603,4.579-0.946c-4.137,2.288-8.853,3.863-13.013,6.022c-4.045,2.1-9.249,4.311-12.578,6.981
			c-0.053,0.039-0.099,0.084-0.152,0.13c-0.67-0.479-1.288-1.122-1.859-1.997c-0.914-1.394-1.005-3.643-1.874-5.354
			c8.669-4.979,17.75-9.859,27.175-13.406C72.306,94.289,73.175,94.205,73.944,94.095z"/>
		<path fill="#79583E" d="M72.756,142.487c-2.621-0.798-4.747-2.074-7.565-2.71c-0.389-0.084-0.869-0.155-1.417-0.227
			c2.476-1.096,3.778,0.525,6.011,1.264c2.438,0.804,5.089,1.206,7.68,1.627c2.796,0.454,5.592,0.668,8.38,1.135
			c0.815,0.137,1.722,0.24,2.666,0.299C83.521,144.75,77.388,143.894,72.756,142.487z"/>
		<path fill="#C7B299" d="M84.106,30.358c-0.319-0.123-0.632-0.24-0.944-0.363c-9.835-3.766-18.398-7.014-21.445-8.083h-0.251
			c-0.031-0.687,3.642-1.076,4.837-1.413c7.337,3.137,13.286,4.479,20.12,7.974c-0.176,0.058-0.335,0.123-0.487,0.194
			c-0.046,0.02-0.084,0.032-0.122,0.052C84.922,29.14,84.343,29.671,84.106,30.358z"/>
		<path fill="#A17552" d="M59.918,138.332c0.335-0.032,0.686-0.059,0.061-0.052C59.964,138.293,59.941,138.312,59.918,138.332z
			 M77.464,142.441c-2.591-0.421-5.241-0.823-7.68-1.627c-2.232-0.738-3.535-2.359-6.011-1.264c-0.19-0.02-0.381-0.046-0.586-0.065
			c-1.311-0.143-2.857-0.271-4.229-0.512c-1.173-0.194-2.217-0.474-2.872-0.901c-5.104-3.325-2.75-6.055,0.488-7.856
			c2.758-1.55,6.163-2.418,6.163-2.418c2.362,0.233,4.541-0.221,6.742-0.486c-3.131,1.212-5.835,3.533-7.58,5.99
			c1.813,2.392,5.195,2.113,7.565,3.694c3.237,2.172,3.39,4.246,8.38,4.305c4.456,0.052,8.067-0.227,12.57,0.344
			c1.303,0.162,2.445,0.24,3.504,0.162c-0.808,0.771-2.347,1.445-4.86,1.964c-0.183,0.039-0.365,0.071-0.549,0.104
			c-0.944-0.059-1.851-0.162-2.666-0.299C83.056,143.109,80.26,142.896,77.464,142.441z"/>
		<path fill="#A17552" d="M49.893,144.549c2.575,0.194,4.982,0.227,7.481,0.155c-1.584,0.655-3.39,1.103-5.333,1.4
			C51.348,145.605,50.625,145.08,49.893,144.549z"/>
		<path fill="#A17552" d="M56.574,130.216c-3.238,1.802-5.592,4.531-0.488,7.856c0.655,0.428,1.699,0.707,2.872,0.901
			c0.107,0.104,0.244,0.194,0.168,0.305c-2.697,2.321-11.207,2.807-12.845-0.888c-1.363-3.073,5.714-10.418,9.089-9.082l0.29-0.182
			C55.965,129.471,56.262,129.833,56.574,130.216z"/>
		<path fill="#D79C6D" d="M48.667,126.08c-3.024,0.116-5.889,0.829-8.571,2.106c-3.207,1.518-2.781,3.28,0.861,3.118
			c1.973-0.084,6.879-0.337,8.388-1.349C50.602,129.113,50.213,126.521,48.667,126.08z M27.175,130.203
			c4.738-2.127,16.928-7.695,22.573-5.899c0,0.007,0.008,0.007,0.008,0.007c0.625,0.298,1.234,0.7,1.943,1.231
			c1.684,1.258,2.834,2.301,3.961,3.585l-0.29,0.182c-3.375-1.336-10.452,6.009-9.089,9.082c1.638,3.694,10.148,3.209,12.845,0.888
			c0.076-0.11-0.061-0.201-0.168-0.305c1.372,0.24,2.918,0.369,4.229,0.512c0.594,1.764-1.554,2.522-2.865,3.553
			c-0.853,0.661-1.843,1.213-2.948,1.666c-2.499,0.071-4.906,0.039-7.481-0.155c-3.085-2.243-6.483-4.668-9.759-6.482
			c-3.9-2.165-7.229-4.486-11.717-5.517c-1.044-0.24-2.667-0.447-4.335-0.707C25.004,131.266,26.025,130.715,27.175,130.203z"/>
		<path fill="#E7C4A7" d="M48.667,126.08c1.546,0.44,1.935,3.033,0.678,3.876c-1.508,1.012-6.415,1.265-8.388,1.349
			c-3.642,0.162-4.068-1.601-0.861-3.118C42.777,126.909,45.642,126.196,48.667,126.08z"/>
		<path fill="#A17552" d="M40.134,138.066c3.276,1.814,6.674,4.239,9.759,6.482c-1.067-0.078-2.171-0.188-3.314-0.324
			c-3.07-0.369-6.438-0.278-9.622-0.603c-1.463-0.688-2.94-1.329-4.365-2.075c-2.293-1.212-5.135-3.591-7.367-4.408
			c-1.699-0.609-3.703-1.05-5.699-1.426c1.242-1.406,2.697-2.703,4.556-3.87c1.668,0.26,3.291,0.467,4.335,0.707
			C32.904,133.58,36.233,135.901,40.134,138.066z"/>
		<path fill="#79583E" d="M46.114,113.102c0.571,0.875,1.188,1.518,1.859,1.997c-2.682,2.197-4.792,5.387-7.245,7.604
			c-3.596,0.228-7.778,1.226-11.344,2.25c0.061-0.162,0.076-0.331,0.054-0.506c-0.412,0.194-0.983,0.531-1.661,0.979l-0.007,0.007
			c-1.874,0.564-3.489,1.108-4.647,1.491c-1.363,0.453-2.826,0.972-4.342,1.556c-1.539-1.388-3.108-1.887-4.145-3.008
			c2.263-1.556,4.708-3.047,5.988-4.032c4.228-3.248,8.784-5.05,13.416-7.753c3.33-1.945,6.735-3.955,10.201-5.938
			C45.109,109.459,45.2,111.708,46.114,113.102z"/>
		<path fill="#A17552" d="M42.046,146.578c-0.67-0.486-1.31-0.947-1.912-1.31c-0.267-0.156-0.533-0.312-0.808-0.454
			c0.038,0.007,0.069,0.007,0.107,0.013c2.225,0.312,4.022,1.18,6.346,1.602c0.282,0.052,0.571,0.104,0.876,0.149
			C45.131,146.63,43.585,146.63,42.046,146.578z"/>
		<path fill="#A17552" d="M42.046,105.712c1.09,0.408,1.745,1.147,2.194,2.035c-3.466,1.983-6.872,3.993-10.201,5.938
			c-4.632,2.703-9.188,4.505-13.416,7.753c-1.28,0.985-3.726,2.477-5.988,4.032c-0.632-0.688-1.059-1.595-1.166-3.079
			c-0.099-1.446,0.114-2.736,0.374-4.098c3.154-9.302,14.437-16.958,23.091-21.302c0.465-0.233,0.93-0.467,1.402-0.687
			c-3.329,2.619-6.856,7.694-6.902,10.586C34.527,107.021,39.052,104.604,42.046,105.712z"/>
		<path fill="#A17552" d="M49.748,124.304c-5.645-1.796-17.834,3.772-22.573,5.899c-1.15,0.512-2.171,1.062-3.093,1.64
			c-1.181-0.182-2.377-0.389-3.413-0.661c2.225-2.211,5.112-4.44,7.101-5.75l0.007-0.007c0.518-0.155,1.059-0.317,1.607-0.473
			c3.565-1.024,7.748-2.022,11.344-2.25c2.552-0.162,4.807,0.059,6.338,0.934C48.141,123.721,48.956,123.928,49.748,124.304z"/>
		<path fill="#A17552" d="M45.779,146.429c-2.324-0.422-4.122-1.29-6.346-1.602c-0.038-0.006-0.069-0.006-0.107-0.013
			c-0.777-0.428-1.569-0.816-2.369-1.192c3.185,0.324,6.552,0.233,9.622,0.603c1.143,0.136,2.247,0.246,3.314,0.324
			c0.731,0.531,1.455,1.057,2.148,1.556c-1.714,0.266-3.527,0.415-5.386,0.474C46.351,146.532,46.061,146.48,45.779,146.429z"/>
		<path fill="#A17552" d="M35.898,143.498c0.351,0.046,0.708,0.091,1.059,0.124c0.8,0.376,1.592,0.765,2.369,1.192
			c-1.508-0.207-3.626-0.506-5.302-1.018c-0.838-0.253-1.607-0.479-2.377-0.675C33.239,143.271,34.87,143.355,35.898,143.498z"/>
		<path fill="#A17552" d="M31.647,143.122c-1.295-0.123-2.567-0.291-3.497-0.583C29.415,142.637,30.52,142.844,31.647,143.122z"/>
		<path fill="#79583E" d="M34.024,143.797c1.676,0.512,3.794,0.811,5.302,1.018c0.274,0.143,0.541,0.298,0.808,0.454
			c0.602,0.362,1.242,0.823,1.912,1.31c-5.188-0.149-10.262-0.746-13.85-1.09c-4.663-0.44-9.31-0.271-14.094-0.408
			c-0.282-0.006-0.579-0.013-0.884-0.02c0.579-0.875,1.105-1.73,1.615-2.566c1.745-0.415,3.527-0.967,4.982-0.817
			c1.166,0.117,1.349,0.746,2.552,1.031c1.546,0.376,3.283-0.272,4.822-0.221c0.328,0.013,0.64,0.025,0.945,0.052
			c0.007,0,0.007,0,0.015,0c0.929,0.292,2.202,0.46,3.497,0.583C32.417,143.317,33.186,143.544,34.024,143.797z"/>
		<path fill="#A17552" d="M27.457,142.273c0.198,0.097,0.427,0.188,0.678,0.266c-0.305-0.026-0.617-0.039-0.945-0.052
			c-1.539-0.052-3.276,0.597-4.822,0.221c-1.204-0.285-1.387-0.914-2.552-1.031c-1.455-0.149-3.238,0.402-4.982,0.817
			c1.097-1.776,2.118-3.456,3.284-5.024c1.523,1.115,4.38,0.162,6.026,0.979C26.07,139.396,25.796,141.438,27.457,142.273z"/>
		<path fill="#A17552" d="M19.526,135.713c1.996,0.376,4,0.816,5.699,1.426c2.232,0.817,5.074,3.196,7.367,4.408
			c1.425,0.746,2.902,1.388,4.365,2.075c-0.351-0.033-0.708-0.078-1.059-0.124c-1.028-0.143-2.659-0.227-4.251-0.376
			c-1.127-0.278-2.232-0.485-3.497-0.583c-0.008,0-0.008,0-0.015,0c-0.251-0.078-0.48-0.169-0.678-0.266
			c-1.661-0.836-1.387-2.878-3.314-3.825c-1.646-0.816-4.502,0.137-6.026-0.979C18.551,136.86,19.023,136.277,19.526,135.713z"/>
		<path fill="#A17552" d="M20.669,131.182c1.036,0.272,2.232,0.479,3.413,0.661c-1.859,1.167-3.314,2.464-4.556,3.87
			c-0.67-0.13-1.341-0.246-1.996-0.356C17.942,134.177,19.153,132.686,20.669,131.182z"/>
		<path fill="#79583E" d="M18.78,128.479c0.061,0.059,0.122,0.116,0.183,0.175c-0.77,0.597-2.316,1.051-3.634,1.238
			C16.487,129.386,17.645,128.913,18.78,128.479z"/>
		<path fill="#79583E" d="M15.329,129.892c1.318-0.188,2.865-0.642,3.634-1.238c-0.061-0.059-0.122-0.116-0.183-0.175
			c1.516-0.584,2.979-1.103,4.342-1.556c1.158-0.383,2.773-0.927,4.647-1.491c-1.988,1.31-4.876,3.539-7.101,5.75
			c-1.516,1.504-2.727,2.995-3.139,4.175c-0.206,0.583-0.221,1.083,0.016,1.478c0.16,0.267,0.35,0.474,0.571,0.636
			c-1.166,1.568-2.187,3.248-3.284,5.024c-0.998,0.246-1.98,0.44-2.887,0.44c-1.813-0.007-3.931,0.098-5.767,0.026
			c-2.362-0.098-1.066,0.22-2.605-0.921c-1.013-0.745-1.265,0.324-1.729-1.277c-0.221-0.765,0.107-1.698,0.541-2.605
			c3.062-3.307,7.9-6.042,12.73-8.175C15.191,129.95,15.26,129.924,15.329,129.892z"/>
		<path fill="#A17552" d="M19.526,135.713c-0.503,0.564-0.975,1.147-1.409,1.757c-0.221-0.162-0.412-0.369-0.571-0.636
			c-0.236-0.395-0.221-0.895-0.016-1.478C18.186,135.467,18.856,135.583,19.526,135.713z"/>
		<path fill="#5B422F" d="M18.78,128.479c-1.135,0.435-2.293,0.907-3.451,1.413c-0.091,0.013-0.183,0.026-0.267,0.032
			c-0.785-0.882-1.333-1.886-1.623-3.033c-0.038-0.162-0.076-0.331-0.107-0.493c0.419-0.312,0.861-0.616,1.303-0.927
			C15.671,126.592,17.241,127.091,18.78,128.479z"/>
		<path fill="#79583E" d="M15.329,129.892c-0.068,0.032-0.137,0.059-0.213,0.091c-0.03-0.02-0.045-0.039-0.053-0.059
			C15.146,129.918,15.237,129.904,15.329,129.892z"/>
		<path fill="#79583E" d="M13.47,122.392c0.107,1.484,0.533,2.392,1.166,3.079c-0.441,0.311-0.883,0.615-1.303,0.927
			c-0.617-2.807-0.365-5.517,0.511-8.104C13.584,119.655,13.371,120.945,13.47,122.392z"/>
		<path fill="#5B422F" d="M13.218,145.061c-5.805-0.091-16.28,0.188-11.945-5.588c0.335-0.447,0.708-0.888,1.112-1.315
			c-0.434,0.907-0.762,1.841-0.541,2.605c0.465,1.602,0.716,0.532,1.729,1.277c1.539,1.141,0.244,0.823,2.605,0.921
			c1.836,0.071,3.954-0.033,5.767-0.026c0.907,0,1.889-0.194,2.887-0.44C14.323,143.33,13.797,144.186,13.218,145.061z"/>
	</g>
	<g>
	</g>
</g>
</svg>
