<?xml version="1.0" standalone="no"?>
<!DOCTYPE svg PUBLIC "-//W3C//DTD SVG 1.1//EN" "http://www.w3.org/Graphics/SVG/1.1/DTD/svg11.dtd" >
<svg xmlns="http://www.w3.org/2000/svg">
<metadata>
This is a custom SVG webfont generated by Font Squirrel.
Designer    : Philipp H. Poll
Foundry     : Philipp H. Poll
Foundry URL : http://linuxlibertine.sf.net
</metadata>
<defs>
<font id="webfontw3osLso9" horiz-adv-x="901" >
<font-face units-per-em="2048" ascent="1638" descent="-410" />
<missing-glyph horiz-adv-x="512" />
<glyph unicode=" "  horiz-adv-x="512" />
<glyph unicode="&#x09;" horiz-adv-x="512" />
<glyph unicode="&#xa0;" horiz-adv-x="512" />
<glyph unicode="!" horiz-adv-x="466" d="M231 1348q46 0 80.5 -39t34.5 -111q0 -75 -23 -203t-30 -192q-12 -97 -19 -183.5t-10 -134t-4 -55.5q-4 -41 -29 -41q-24 0 -28 27q-1 13 -5.5 78.5t-11.5 152t-14 156.5q-7 72 -29 194t-22 201q0 75 34.5 112.5t75.5 37.5zM117 90v8q14 41 39 66.5t71 44.5h9 q45 -16 71 -42t39 -69v-8q-15 -48 -41 -73.5t-69 -36.5h-9q-48 11 -72.5 34.5t-37.5 75.5z" />
<glyph unicode="&#x22;" horiz-adv-x="688" d="M440 874q-53 326 -53 345q0 36 30.5 69t74.5 33q37 0 54 -20t17 -48q0 -14 -16.5 -106.5t-33.5 -178.5l-17 -85zM182 872q-53 326 -53 345q0 36 30.5 69t73.5 33q37 0 54.5 -20t17.5 -48q0 -14 -16.5 -106.5t-33.5 -178.5l-17 -85z" />
<glyph unicode="#" d="M547 473l35 225h-226l-37 -225h228zM649 698l-37 -225h185l-15 -98h-182l-57 -348h-68l53 348h-223l-57 -348h-68l56 348h-185l15 98h186l35 225h-185l17 101h184l55 348h70l-57 -348h227l53 348h68l-55 -348h186l-16 -101h-185z" />
<glyph unicode="$" d="M406 57v469q-52 22 -91.5 42t-83 51t-71 64.5t-46 80t-18.5 100.5q0 125 94.5 210t215.5 95v115h69v-113q52 -3 97 -12t72 -20t46.5 -22t27.5 -18l7 -7l4 -7q-28 -92 -35 -170l-18 -2q-67 154 -201 181v-424q53 -19 91.5 -36.5t85.5 -47.5t76.5 -63t50 -83t20.5 -108 q0 -116 -96 -215t-228 -127v-156h-69v146h-15q-61 0 -116.5 8.5t-91 20t-62.5 23.5t-39 20l-12 9l-4 7q27 102 36 174l17 2q39 -85 115 -136t172 -51zM406 698v402q-82 -4 -130.5 -56.5t-48.5 -132.5q0 -135 179 -213zM475 500v-434q76 16 124 67.5t48 134.5q0 41 -9.5 74 t-24 56t-38 43t-46 32.5t-54.5 26.5z" />
<glyph unicode="%" horiz-adv-x="1304" d="M885 170q0 -72 28 -103.5t64 -31.5q53 0 97.5 52t66.5 120.5t22 128.5q0 70 -30 97.5t-62 27.5q-47 0 -91.5 -48t-69.5 -115.5t-25 -127.5zM778 201q0 77 35.5 151t99 123t136.5 49t124.5 -42.5t51.5 -143.5q0 -54 -17.5 -115t-48.5 -117.5t-82.5 -93.5t-111.5 -37 q-88 0 -137.5 68t-49.5 158zM745 1067q83 0 174 26.5t134 84.5l65 -33l-839 -1170l-70 31l735 1024q-98 -39 -219 -39q-35 0 -84.5 13t-79.5 30q6 -21 6 -51q0 -51 -17.5 -112t-48.5 -118t-83 -94.5t-113 -37.5q-60 0 -103.5 34.5t-62 83.5t-18.5 105q0 121 80.5 223 t187.5 102q41 0 81 -15.5t56 -35.5q111 -51 219 -51zM225 815q0 -71 29 -103t63 -32q53 0 97.5 51t67 119.5t22.5 130.5q0 68 -28 96.5t-64 28.5q-48 0 -92.5 -48t-69.5 -115.5t-25 -127.5z" />
<glyph unicode="&#x26;" horiz-adv-x="1443" d="M512 692q-150 -83 -205 -169t-55 -204q0 -72 21 -125t58 -82.5t80.5 -43t94.5 -13.5q103 0 174 65q35 33 114 140q5 7 9 12q-82 108 -177 246t-114 174zM590 842q97 64 154 135t57 127q0 69 -35 106t-98 37q-52 0 -104 -47t-52 -137q0 -95 78 -221zM885 393 q103 153 151 268.5t62 223.5q20 -6 80 -6q67 0 88 6l-166 -295q-133 -238 -158 -277l70 -94q44 -63 87 -96t70 -33q52 0 89 26t67 85l33 -17q-33 -102 -88 -153t-113 -51q-31 0 -51.5 3t-52 15t-64.5 42t-67 77l-60 76q-77 -106 -162 -159.5t-208 -53.5q-85 0 -156 20 t-127 61.5t-87.5 112.5t-31.5 166q0 112 88.5 213.5t288.5 214.5q-102 158 -102 291q0 101 85 184.5t228 83.5q109 0 184.5 -63.5t75.5 -159.5q0 -82 -84.5 -174.5t-218.5 -169.5l8 -17q66 -112 242 -350z" />
<glyph unicode="'" horiz-adv-x="389" d="M162 872q-53 326 -53 345q0 36 30.5 69t73.5 33q37 0 54.5 -20t17.5 -48q0 -14 -17 -107l-34 -178l-17 -85z" />
<glyph unicode="(" horiz-adv-x="614" d="M90 516q0 274 121 520.5t313 411.5l47 -37q-311 -354 -311 -895q0 -537 311 -899l-47 -35q-87 76 -157.5 164t-115 166t-77 164t-48 149t-24.5 130.5t-10.5 98.5t-1.5 62z" />
<glyph unicode=")" horiz-adv-x="614" d="M524 516q0 -274 -120.5 -520.5t-313.5 -411.5l-47 37l39 45q17 21 51 70.5t60.5 98.5t58 125.5t52.5 155.5t35.5 184t14.5 216q0 542 -311 899l47 35q87 -76 157.5 -164t115 -166t77 -164t48 -149t24.5 -130.5t10.5 -98.5t1.5 -62z" />
<glyph unicode="*" horiz-adv-x="886" d="M406 1161q-36 8 -87 8q-82 0 -123.5 16.5t-41.5 59.5q0 25 16.5 43.5t50.5 18.5q30 0 59 -17.5t65.5 -45t72.5 -42.5q-4 41 -25.5 101.5t-21.5 87.5q0 33 17 56t44 23q30 0 49 -18t19 -53q0 -29 -18.5 -99.5t-20.5 -99.5q37 16 74 44.5t64 45.5t56 17q37 0 53.5 -20 t16.5 -42q0 -76 -141 -76q-64 0 -113 -8q25 -28 72 -58.5t72.5 -57t25.5 -62.5q0 -26 -18 -42.5t-41 -16.5q-36 0 -59.5 33t-46.5 93.5t-40 86.5q-15 -27 -39.5 -91t-46.5 -93t-57 -29q-26 0 -43 16.5t-17 40.5q0 39 27 65.5t74 56.5t72 58z" />
<glyph unicode="+" horiz-adv-x="1079" d="M592 526h352v-100h-352v-356h-105v356h-352v100h352v357h105v-357z" />
<glyph unicode="," horiz-adv-x="450" d="M98 90v8q14 41 39.5 67t71.5 44h8q62 -23 96.5 -72.5t34.5 -142.5q0 -102 -73.5 -175t-172.5 -91q-20 17 -10 51q74 18 125 71t51 91q0 24 -11 36.5t-21.5 14.5t-26.5 2q-52 11 -75 29t-36 67z" />
<glyph unicode="-" horiz-adv-x="681" d="M561 483h-463q-13 0 -21.5 10.5t-8.5 24.5q0 25 16.5 50.5t34.5 25.5h469q28 0 28 -37q0 -19 -18 -46.5t-37 -27.5z" />
<glyph unicode="." horiz-adv-x="450" d="M111 90v8q14 41 39 66.5t71 44.5h8q45 -16 71.5 -42t39.5 -69v-8q-16 -49 -41.5 -74t-69.5 -36h-8q-48 11 -72.5 34.5t-37.5 75.5z" />
<glyph unicode="/" horiz-adv-x="661" d="M600 1323l-485 -1444h-84l485 1444h84z" />
<glyph unicode="0" d="M451 1102q-209 0 -209 -553q0 -49 2.5 -95.5t9.5 -106.5t21.5 -109t36 -92t55.5 -67t77 -24q17 0 36.5 6.5t45.5 23.5t50.5 56t39.5 95q37 134 37 389q0 181 -33 292t-83 154q-34 31 -86 31zM442 -20q-106 0 -191 82t-130 216t-45 291q0 139 31.5 257t84 195t119.5 120 t140 43q64 0 126.5 -37t108.5 -98q131 -172 131 -461q0 -131 -25 -237.5t-64 -174t-89.5 -113t-99.5 -64.5t-97 -19z" />
<glyph unicode="1" d="M584 367q0 -206 22 -367l-4 -6q-27 6 -96 6q-32 0 -56.5 -1.5t-33.5 -2.5l-8 -2l-2 6q20 139 20 367v489v34q0 11 -1 27.5t-3.5 24.5t-6 17t-9.5 12.5t-15 3.5q-55 0 -178 -51l-31 55l83 39l79 37l66 31q42 20 67 33l57 31q31 17 58 34q12 0 12 -10q-20 -135 -20 -316 v-491z" />
<glyph unicode="2" d="M461 0q-74 0 -344 -8l-2 8q0 50 6 85t25.5 82.5t62.5 103t113 126.5l143 142q86 87 125 167.5t39 174.5q0 66 -19.5 113.5t-51 71t-62 34t-60.5 10.5q-95 0 -134.5 -33.5t-39.5 -79.5q0 -17 8 -47q9 -32 9 -45q0 -36 -25.5 -55t-54.5 -19q-34 0 -58 22.5t-24 53.5 q0 36 13.5 74t41.5 74t66.5 65t93.5 46.5t117 17.5q49 0 97 -10.5t94 -33.5t81 -56.5t56.5 -84t21.5 -110.5q0 -53 -13.5 -98.5t-44 -89t-58.5 -73.5t-79 -79l-194 -189q-11 -10 -29.5 -29.5t-49.5 -56t-52 -77t-21 -72.5h180q69 0 126 1.5t81.5 3t80 6t73.5 5.5 q-11 -44 -11 -75q0 -30 11 -74q-195 8 -338 8z" />
<glyph unicode="3" d="M444 1110q-25 0 -53 -5.5t-62.5 -19t-56.5 -44t-22 -74.5q0 -35 -19.5 -68t-56.5 -33q-24 0 -39 16.5t-18.5 29.5t-3.5 20q0 21 11 50.5t39 65.5t68 65.5t106.5 50t147.5 20.5q71 0 124.5 -20.5t82 -53t42.5 -66.5t14 -67q0 -141 -205 -270q47 -8 91 -28.5t86 -56 t67.5 -95.5t25.5 -136q0 -98 -36 -177.5t-97.5 -129.5t-140 -77t-166.5 -27q-61 0 -124.5 15.5t-110 46t-46.5 67.5q0 23 24 44t54 21q27 0 43 -11.5t33 -35.5q14 -22 27.5 -35.5t45.5 -26t78 -12.5q24 0 52.5 7t64 28.5t64 54.5t48 90.5t19.5 131.5q0 253 -252 253 q-19 0 -63 -8l-8 62q74 12 139.5 61t101 107t35.5 106q0 83 -43 123.5t-111 40.5z" />
<glyph unicode="4" d="M150 313q-40 0 -64.5 27.5t-28.5 54.5q0 2 4 6q89 99 235 351.5t228 421.5q5 10 15 10q2 0 17.5 -5t34.5 -10.5t30 -7.5q-122 -291 -414 -755h319v321q0 28 25 41q48 35 90 35q19 0 26 -15.5t7 -48.5v-333h160q28 0 28 -31q0 -18 -18 -40t-37 -22h-133q0 -105 4.5 -160 t17.5 -153l-4 -6q-22 6 -92 6q-32 0 -55 -1.5t-30 -2.5l-7 -2l-2 6q20 136 20 313h-376z" />
<glyph unicode="5" d="M616 346q0 153 -62 234.5t-161 81.5q-140 0 -256 -48l66 560q105 -11 219 -11q141 0 319 21l13 -6l-31 -134q-100 -10 -203 -10q-99 0 -233 17l-39 -324q83 31 196 31q104 0 183.5 -55.5t118 -140.5t38.5 -181q0 -173 -110 -287t-283 -114q-60 0 -126 19t-113.5 53.5 t-47.5 72.5q0 28 20.5 46.5t49.5 18.5q46 0 92 -63q51 -68 129 -68q99 0 160 77.5t61 209.5z" />
<glyph unicode="6" d="M246 537q-2 -21 -2 -72q0 -99 16.5 -176t41.5 -123t59.5 -75.5t66.5 -40.5t66 -11q78 0 130 73.5t52 223.5q0 33 -5 67.5t-21 76.5t-40.5 74t-68 53.5t-99.5 21.5q-110 0 -196 -92zM776 1130q-108 -10 -192 -42.5t-154 -100.5q-144 -141 -178 -393q35 42 103.5 71 t127.5 29q86 0 152 -27.5t101.5 -66t57.5 -89.5t28.5 -88.5t6.5 -72.5q0 -46 -9.5 -92.5t-35 -97.5t-63.5 -90t-102.5 -64.5t-145.5 -25.5q-50 0 -97.5 11.5t-101 44.5t-93 85.5t-65.5 142.5t-26 207q0 144 53.5 277t157.5 237q98 99 207.5 145t261.5 54z" />
<glyph unicode="7" d="M674 1030q-224 0 -551 -18q8 56 8 86q0 20 -8 78q97 -13 543 -13q49 0 125 21l32 -21q-264 -641 -444 -1181l-133 -7l-6 13q116 262 434 1042z" />
<glyph unicode="8" d="M457 1135q-83 0 -132 -55t-49 -128q0 -36 7.5 -64t39 -69t89.5 -78l59 -36q25 18 49 39.5t53 53t46.5 69.5t17.5 75q0 76 -46 134.5t-134 58.5zM764 940q0 -44 -21 -87t-59 -80.5t-68.5 -61.5t-72.5 -52l119 -77q151 -100 151 -269q0 -57 -23.5 -114.5t-68 -107 t-118.5 -80.5t-165 -31q-158 0 -252 78.5t-94 224.5q0 134 113 233q86 75 141 117l-35 20q-89 56 -130.5 118.5t-41.5 143.5q0 115 91 192t237 77q139 0 218 -68.5t79 -175.5zM442 37q29 0 58.5 5.5t62.5 22t57.5 42t41 68.5t16.5 99q0 154 -172 258l-90 56 q-58 -39 -100 -85.5t-61.5 -88.5t-27.5 -73.5t-8 -57.5q0 -62 22 -111.5t56.5 -77.5t72 -42.5t72.5 -14.5z" />
<glyph unicode="9" d="M647 627q2 20 2 71q0 99 -16.5 176t-41.5 123t-59.5 75.5t-66.5 40.5t-66 11q-78 0 -130 -73.5t-52 -223.5q0 -33 5 -67.5t21 -76.5t40.5 -73.5t68 -53t99.5 -21.5q110 0 196 92zM117 33q108 10 192 42.5t154 100.5q142 139 178 393q-35 -42 -103.5 -71t-127.5 -29 q-86 0 -152 27.5t-102 66t-58 89.5t-28.5 88.5t-6.5 72.5q0 46 9.5 92.5t35 98t64 90.5t103 64.5t145.5 25.5q50 0 97.5 -11.5t101 -45t93 -85.5t65.5 -142.5t26 -207.5q0 -144 -53.5 -277t-157.5 -237q-97 -99 -207 -144.5t-262 -53.5z" />
<glyph unicode=":" horiz-adv-x="450" d="M125 729v8q14 41 39.5 66.5t71.5 44.5h8q45 -16 71 -42t39 -69v-8q-15 -48 -41 -74t-69 -37h-8q-49 11 -73.5 35t-37.5 76zM125 190v9q14 41 39.5 66.5t71.5 43.5h8q45 -17 71 -42.5t39 -67.5v-9q-15 -48 -41 -73.5t-69 -36.5h-8q-48 10 -72.5 35t-38.5 75z" />
<glyph unicode=";" horiz-adv-x="450" d="M98 90v8q14 41 39.5 67t71.5 44h8q62 -23 96.5 -72.5t34.5 -142.5q0 -102 -73.5 -175t-172.5 -91q-20 17 -10 51q74 18 125 71t51 91q0 24 -11 36.5t-21.5 14.5t-26.5 2q-52 11 -75 29t-36 67zM104 729v8q14 41 40 66.5t71 44.5h8q45 -16 71 -42t40 -69v-8 q-16 -48 -41.5 -74t-69.5 -37h-8q-48 11 -72.5 35t-38.5 76z" />
<glyph unicode="&#x3c;" horiz-adv-x="997" d="M250 489l649 -237v-102l-799 290v99l799 288v-102z" />
<glyph unicode="=" horiz-adv-x="1079" d="M944 651v-100h-809v100h809zM944 395v-100h-809v100h809z" />
<glyph unicode="&#x3e;" horiz-adv-x="997" d="M750 483l-650 238v102l799 -291v-98l-799 -289v103z" />
<glyph unicode="?" horiz-adv-x="829" d="M399 1268q-139 0 -252 -193l-26 2l-33 137l6 9q52 45 139 86t185 41q156 0 247 -84.5t91 -225.5q0 -46 -14.5 -89t-33.5 -73t-52 -63t-56 -51l-61 -45q-86 -64 -107 -103q-37 -73 -37 -149v-90q0 -21 -26 -21q-27 0 -27 21v94q0 42 3.5 73t15.5 76.5t42 91t76 89.5 q66 61 94.5 111.5t28.5 119.5q0 100 -58 168t-145 68zM254 90v8q14 41 39.5 66.5t71.5 44.5h8q45 -16 71 -42t39 -69v-8q-15 -48 -41 -73.5t-69 -36.5h-8q-49 11 -73.5 34.5t-37.5 75.5z" />
<glyph unicode="@" horiz-adv-x="1832" d="M1165 647q0 57 -38 93t-95 36q-36 0 -90 -20t-94 -62q-139 -138 -139 -362q0 -189 159 -189q53 0 120 76.5t116 190.5q61 148 61 237zM1194 152q0 -14 8 -19.5t15 -5.5q82 0 141.5 21t105.5 69.5t69 134.5t23 211q0 122 -39.5 227t-103.5 177t-145.5 123.5t-165 75.5 t-162.5 24q-96 0 -188 -25t-177 -80.5t-149 -135.5t-102.5 -197t-38.5 -258q0 -99 19.5 -197t69.5 -199.5t125 -178.5t196.5 -126t273.5 -49q242 0 411 135l27 -37q-108 -83 -213 -124.5t-264 -41.5q-180 0 -332.5 60.5t-256.5 165.5t-162 248.5t-58 306.5q0 162 67 309 t179.5 253.5t268 169t325.5 62.5q162 0 303.5 -51.5t240.5 -141t156 -214t57 -266.5q0 -61 -13 -120t-40.5 -119t-74.5 -110.5t-110 -90t-153.5 -61.5t-198.5 -22q-40 0 -56.5 26t-16.5 58q0 33 30 129l-4 2q-63 -105 -137.5 -158t-134.5 -53q-72 0 -124.5 27.5t-78 70 t-36.5 81.5t-11 75q0 106 44 205.5t113 168.5t154 111t166 42q52 0 97.5 -24.5t60.5 -63.5l10 49l109 26l30 -10l-122 -528q-27 -116 -27 -137z" />
<glyph unicode="A" horiz-adv-x="1296" d="M371 467q-127 -306 -170 -473q-25 6 -92 6q-48 0 -72 -6l604 1354h57l198 -484l224 -548q95 -231 140 -322q-35 6 -123 6q-68 0 -103 -6q-44 166 -160 473q-150 4 -239 4q-108 0 -264 -4zM838 565l-207 504h-4l-215 -504q32 0 107.5 -2t105.5 -2q77 0 213 4z" />
<glyph unicode="B" horiz-adv-x="1191" d="M387 1145v-385h148q136 0 205 50.5t69 174.5q0 75 -22 127t-60 78t-78 36.5t-88 10.5q-50 0 -82 -3.5t-51 -9t-28 -18.5t-11 -25.5t-2 -35.5zM387 670v-490q0 -54 32 -75t134 -21q91 0 156 12.5t102.5 33t59 55t28 69t6.5 84.5q0 148 -84.5 240t-255.5 92h-178zM299 1321 q51 0 133 3t115 3q440 0 440 -317q0 -82 -54.5 -157.5t-135.5 -115.5q143 -41 227 -130.5t84 -229.5q0 -56 -14 -107.5t-51 -103t-93.5 -88.5t-148 -60.5t-209.5 -23.5q-99 0 -171.5 3t-121.5 3q-32 0 -58.5 -1.5t-36.5 -2.5l-11 -2l-3 6q21 137 21 410v501q0 265 -21 410 l5 6q34 -6 104 -6z" />
<glyph unicode="C" horiz-adv-x="1331" d="M748 1348q70 0 141.5 -9.5t124 -23t94.5 -27.5t64 -24l22 -9l4 -6l-10 -43l-10 -38l-6 -30t-6 -34t-4.5 -35t-4.5 -47l-20 -2q-115 231 -418 231q-53 0 -109.5 -18.5t-115 -62t-104 -106.5t-74.5 -162t-29 -218q0 -92 16 -177.5t51.5 -163t87 -134.5t127.5 -91t168 -34 q151 0 261 44t214 159l48 -31q-103 -134 -245.5 -205t-295.5 -71q-128 0 -235.5 37.5t-181.5 101.5t-126 149.5t-76 180.5t-24 196q0 147 56.5 279.5t149.5 224.5t215 145.5t251 53.5z" />
<glyph unicode="D" horiz-adv-x="1429" d="M383 168q0 -36 14.5 -51.5t61 -23t147.5 -7.5q94 0 166.5 11.5t142 44t115 86.5t73 143.5t27.5 210.5q0 100 -17 189.5t-58.5 176.5t-105.5 149.5t-165 101t-229 38.5q-42 0 -70 -3t-53 -11t-37 -25t-12 -43v-987zM295 1321q65 0 169 3t169 3q145 0 276 -55.5t225.5 -149 t150.5 -222t56 -269.5q0 -105 -22.5 -193.5t-60 -153t-91 -115t-112.5 -82.5t-126.5 -53t-130.5 -29.5t-128 -8.5q-114 0 -212.5 2t-162.5 2q-32 0 -58.5 -1.5t-37.5 -2.5l-11 -2l-2 6q21 137 21 410v501q0 265 -21 410l4 6q35 -6 105 -6z" />
<glyph unicode="E" horiz-adv-x="1069" d="M373 410q0 -243 16 -299q122 0 266.5 6t228.5 12l83 6l4 -8q-4 -32 -4 -68q0 -1 4 -59l-4 -6q-49 6 -123 6h-559q-32 0 -58.5 -1.5t-37.5 -2.5l-11 -2l-2 6q21 137 21 410v501q0 265 -21 410l4 6q35 -6 105 -6h538q73 0 123 6l4 -6q-4 -58 -4 -64q0 -19 4 -53l-4 -8 q-283 25 -557 25q-16 -57 -16 -310v-168q204 0 456 21l7 -6q-7 -27 -7 -58q0 -30 7 -57l-7 -6q-201 20 -456 20v-247z" />
<glyph unicode="F" horiz-adv-x="976" d="M821 1321q81 0 129 6l4 -6q-4 -58 -4 -64q0 -19 4 -53l-4 -8q-283 25 -557 25q-16 -57 -16 -310v-168q203 0 457 21l6 -6q-6 -28 -6 -58q0 -28 6 -57l-6 -6q-203 20 -457 20v-247q0 -264 20 -410l-4 -6q-35 6 -104 6q-32 0 -58.5 -1.5t-37.5 -2.5l-11 -2l-2 6 q21 137 21 410v501q0 265 -21 410l4 6q35 -6 105 -6h532z" />
<glyph unicode="G" horiz-adv-x="1431" d="M1118 240q-4 268 -20 389l4 6q35 -6 104 -6q32 0 58.5 1.5t37.5 3.5l11 1l2 -6q-21 -135 -21 -348v-13q0 -73 21 -98v-6q-215 -184 -545 -184q-151 0 -283 51.5t-224 139.5t-144.5 207t-52.5 251q0 131 40.5 247t110 201t160 147t194 93t209.5 31q70 0 142 -9.5t124 -23 t94.5 -27.5t64.5 -24l22 -9l4 -6q-2 -10 -8 -33.5t-8 -30t-6 -24t-5 -25t-4 -22.5t-4 -27t-2.5 -28.5t-3.5 -36.5l-21 -2q-115 231 -417 231q-211 0 -343.5 -158t-132.5 -423q0 -83 21 -166t65 -161t106.5 -137.5t153 -95.5t195.5 -36q219 0 301 78v88z" />
<glyph unicode="H" horiz-adv-x="1433" d="M1047 911q0 256 -21 410l4 6q35 -6 105 -6q32 0 58.5 1.5t36.5 3.5l11 1l2 -6q-20 -136 -20 -410v-501q0 -264 20 -410l-4 -6q-35 6 -104 6q-32 0 -58.5 -1.5t-37.5 -2.5l-11 -2l-2 6q21 146 21 410v247h-660v-247q0 -265 21 -410l-5 -6q-34 6 -104 6q-32 0 -58.5 -1.5 t-36.5 -2.5l-11 -2l-3 6q21 137 21 410v501q0 265 -21 410l5 6q34 -6 104 -6q32 0 58.5 1.5t37.5 3.5l11 1l2 -6q-21 -135 -21 -410v-168h660v168z" />
<glyph unicode="I" horiz-adv-x="600" d="M217 911q0 264 -20 410l4 6q35 -6 104 -6q32 0 58.5 1.5t37.5 3.5l11 1l2 -6q-21 -135 -21 -410v-501q0 -265 21 -410l-4 -6q-35 6 -105 6q-32 0 -58.5 -1.5t-36.5 -2.5l-11 -2l-2 6q20 139 20 410v501z" />
<glyph unicode="J" horiz-adv-x="645" d="M287 195v716q0 265 -21 410l4 6q35 -6 105 -6q32 0 58.5 1.5t36.5 3.5l11 1l2 -6q-20 -136 -20 -410v-671q0 -174 -23.5 -251.5t-105.5 -185.5q-121 -155 -324 -155q-63 0 -92 18l-2 6q25 42 57 168l23 2q38 -71 119 -71q39 0 68.5 18t47.5 52.5t30 72.5t17.5 91.5 t7 94.5t1.5 95z" />
<glyph unicode="K" horiz-adv-x="1304" d="M217 911q0 264 -20 410l4 6q35 -6 104 -6q32 0 58.5 1.5t37.5 3.5l11 1l2 -6q-21 -135 -21 -410v-198q11 3 17 10q242 212 583 604q27 -6 101 -6q71 0 104 6l-343 -315q-184 -176 -280 -287v-4l644 -727q-39 6 -127 6q-93 0 -127 -6q-454 557 -562 665q-2 3 -10 7v-256 q0 -265 21 -410l-4 -6q-35 6 -105 6q-32 0 -58.5 -1.5t-36.5 -2.5l-11 -2l-2 6q20 139 20 410v501z" />
<glyph unicode="L" horiz-adv-x="1077" d="M387 410q0 -243 16 -299q122 0 266.5 6t228.5 12l83 6l4 -8q-4 -32 -4 -68q0 -1 4 -59l-4 -6q-49 6 -123 6h-559q-31 0 -57.5 -1.5t-37.5 -2.5l-11 -2l-3 6q21 137 21 410v501q0 252 -23 410l5 6q36 -6 106 -6q32 0 58.5 1.5t37.5 3.5l11 1l2 -6q-21 -135 -21 -410v-501z " />
<glyph unicode="M" horiz-adv-x="1718" d="M272 1356h54q225 -470 544 -1055l570 1055h45l49 -444q32 -301 57 -509.5t54 -408.5q-31 6 -103 6q-69 0 -100 -6q-61 712 -94 975l-99 -184l-108 -201l-94 -181l-103 -207l-90 -196h-39l-141 292l-190 373l-154 302q-88 -761 -90 -973q-23 6 -78 6q-56 0 -78 -6 q135 853 188 1362z" />
<glyph unicode="N" horiz-adv-x="1423" d="M207 911q0 265 -21 410l4 6q35 -6 105 -6l29 4l702 -909l37 -50q45 -60 55 -64q8 -2 11.5 11.5t3.5 51.5v546q0 256 -21 410l4 6q23 -6 72 -6q20 0 38 1.5t26 3.5l8 1l2 -6q-21 -135 -21 -410v-868q0 -63 -43 -63q-52 0 -88 49l-715 903l-33 41q-11 14 -21 21t-14.5 5.5 t-7.5 -15.5t-3.5 -32t-0.5 -53v-489q0 -265 21 -410l-4 -6q-23 6 -72 6q-20 0 -38 -1.5t-26 -2.5l-8 -2l-2 6q21 135 21 410v501z" />
<glyph unicode="O" horiz-adv-x="1476" d="M707 1257q-61 0 -118.5 -19.5t-111 -64t-93 -110.5t-63.5 -167t-24 -226q0 -143 40 -259t107.5 -189.5t152.5 -112.5t179 -39q181 0 292.5 148.5t111.5 416.5q0 311 -125 466.5t-348 155.5zM1391 674q0 -203 -82 -361t-231.5 -245.5t-342.5 -87.5q-132 0 -250 46 t-206.5 129t-140.5 207.5t-52 272.5q0 198 85 361.5t233.5 257.5t328.5 94q184 0 333.5 -83t237 -238t87.5 -353z" />
<glyph unicode="P" horiz-adv-x="1069" d="M387 1176v-508q38 -21 141 -21q151 0 222 73.5t71 237.5q0 94 -21.5 157.5t-61.5 95t-84 43.5t-103 12q-72 0 -108.5 -11t-46 -28.5t-9.5 -50.5zM211 911q0 265 -21 410l5 6q34 -6 104 -6q31 0 136 7t130 7q78 0 144 -12.5t112 -33.5t82 -50t57.5 -59.5t35.5 -64.5 t19 -63t5 -57q0 -56 -14 -110.5t-49 -111t-87.5 -99t-138 -69.5t-192.5 -27q-88 0 -152 20v-188q0 -265 21 -410l-5 -6q-34 6 -104 6q-32 0 -58.5 -1.5t-36.5 -2.5l-11 -2l-3 6q21 137 21 410v501z" />
<glyph unicode="Q" horiz-adv-x="1476" d="M707 1257q-61 0 -118.5 -19.5t-111 -64t-93 -110.5t-63.5 -167t-24 -226q0 -143 40 -259t107.5 -189.5t152.5 -112.5t179 -39q181 0 292.5 148.5t111.5 416.5q0 311 -125 466.5t-348 155.5zM971 18q-114 -38 -236 -38q-132 0 -250 46t-206.5 129t-140.5 207.5t-52 272.5 q0 198 85 361.5t233.5 257.5t328.5 94q184 0 333.5 -83t237 -238t87.5 -353q0 -185 -69 -333.5t-194 -240.5l118 -70q113 -67 202 -110.5t190 -77.5v-12q-137 -73 -192 -117q-101 58 -216.5 143.5t-258.5 161.5z" />
<glyph unicode="R" horiz-adv-x="1185" d="M557 1255q-103 0 -136.5 -20.5t-33.5 -69.5v-489h98q64 0 111.5 7t92 26.5t72 52.5t44 87.5t16.5 129.5q0 70 -16 121.5t-40.5 80.5t-61 46.5t-70.5 22.5t-76 5zM387 586v-176q0 -265 21 -410l-5 -6q-34 6 -104 6q-32 0 -58.5 -1.5t-36.5 -2.5l-11 -2l-3 6q21 137 21 410 v501q0 265 -21 410l5 6q34 -6 104 -6q32 0 132 7t124 7q122 0 206 -18t150 -80q109 -103 109 -256q0 -118 -57 -201t-148 -129q-43 -22 -98 -37q49 -64 220 -306t228 -308l-4 -6q-41 6 -106 6q-101 0 -140 -6q-31 98 -219 366q-103 150 -176 230q-78 -4 -133 -4z" />
<glyph unicode="S" horiz-adv-x="983" d="M469 68q111 0 183.5 61.5t72.5 179.5q0 53 -11.5 94t-29.5 69t-49 51.5t-59.5 37.5t-71.5 31q-67 27 -114 48.5t-104 58.5t-92 75.5t-59 95.5t-24 123q0 78 35.5 146.5t92 113t125.5 70t136 25.5q70 0 129 -9.5t93 -23t58.5 -27.5t33.5 -24l9 -9l4 -6q-29 -98 -41 -196 l-20 -2q-47 104 -114 159.5t-171 55.5q-100 0 -159.5 -61t-59.5 -156q0 -41 13.5 -77t39 -63t51 -48t61 -38.5t57.5 -27t51 -19.5q59 -21 104.5 -42t97 -55.5t85 -74t55.5 -97.5t22 -126q0 -103 -62.5 -196t-166.5 -149t-219 -56q-70 0 -134 9.5t-105.5 23t-72.5 27 t-45 22.5l-14 10l-4 6q33 125 41 201l20 2q44 -96 133.5 -154.5t198.5 -58.5z" />
<glyph unicode="T" horiz-adv-x="1105" d="M465 911q0 233 -16 289q-122 0 -225.5 -6t-145.5 -12l-43 -6l-4 8q6 47 0 137l4 6q49 -6 123 -6h790q74 0 123 6l4 -6q-6 -90 0 -137l-4 -8q-140 24 -414 24q-16 -56 -16 -289v-501q0 -265 21 -410l-5 -6q-34 6 -104 6q-32 0 -58.5 -1.5t-37.5 -2.5l-11 -2l-2 6 q21 137 21 410v501z" />
<glyph unicode="U" horiz-adv-x="1353" d="M1067 911q0 264 -20 410l4 6q22 -6 71 -6q20 0 38 1.5t26 3.5l8 1l2 -6q-20 -136 -20 -410v-307q0 -116 -13.5 -205.5t-48.5 -170.5t-92.5 -134t-149.5 -83.5t-215 -30.5q-62 0 -121.5 11.5t-126.5 46t-117 88t-83 146t-33 211.5v428q0 264 -20 410l4 6q35 -6 104 -6 q32 0 58.5 1.5t37.5 3.5l11 1l2 -6q-21 -135 -21 -410v-360q0 -35 1 -61.5t8 -78.5t19.5 -91t38.5 -86t61.5 -77.5t92 -51.5t127.5 -21q72 0 129.5 15.5t95.5 39.5t65 63.5t42 77.5t23 92t10 95.5t2 99.5v344z" />
<glyph unicode="V" horiz-adv-x="1292" d="M664 270l56 129l62 146l58 136l63 149l53 133q34 86 52 139l40 114q20 63 33 111q25 -6 103 -6q47 0 71 6l-604 -1347h-57l-197 480l-224 548q-95 228 -140 319q35 -6 123 -6q77 0 112 6q134 -460 391 -1057h5z" />
<glyph unicode="W" horiz-adv-x="1947" d="M1319 270l56 130l63 144l58 137l62 149l54 133q33 85 52 138l40 115q20 63 33 111q24 -6 102 -6q47 0 72 6l-604 -1347h-58l-284 696l-314 -696h-57l-197 480l-224 548q-95 228 -140 319q35 -6 123 -6q67 0 102 6q129 -443 404 -1075h4l241 565q-170 412 -219 510 q35 -6 123 -6q78 0 113 6q116 -418 391 -1057h4z" />
<glyph unicode="X" horiz-adv-x="1169" d="M1135 -6q-37 6 -119 6t-119 -6q-179 341 -324 586q-210 -322 -354 -586q-22 6 -86 6q-63 0 -86 -6l465 684l-414 649q35 -6 115 -6t117 6q70 -146 288 -498q122 177 178 266t134 232q22 -6 86 -6q63 0 86 6l-426 -594z" />
<glyph unicode="Y" horiz-adv-x="1210" d="M684 586q4 -450 16 -592q-32 6 -106 6q-72 0 -105 -6q15 129 15 569l-240 395q-174 283 -231 369q35 -6 117 -6q81 0 116 6l105 -195l137 -236l117 -200q236 374 358 631q25 -6 86 -6q59 0 86 6l-161 -245l-142 -216l-88 -140q-50 -82 -80 -140z" />
<glyph unicode="Z" horiz-adv-x="1236" d="M342 111q119 0 324 5.5t350 11.5l145 5l4 -6q-4 -32 -4 -68q0 -1 4 -59l-4 -6q-49 6 -145 6h-785l-178 -6l-6 8l21 28q10 14 19 28.5t13 19.5l797 1108q7 10 4.5 17t-10.5 7q-112 0 -304 -5.5t-328 -10.5l-136 -6l-4 6q4 32 4 68q0 1 -4 59l4 6q49 -6 125 -6h663 q46 0 138.5 4.5t119.5 7.5q13 0 13 -12q0 -16 -13 -38t-49 -73l-768 -1063q-10 -18 -10 -36z" />
<glyph unicode="[" horiz-adv-x="739" d="M225 -393v1833h441v-62q-74 -5 -120.5 -11t-82.5 -18.5t-53.5 -25.5t-28.5 -40.5t-13.5 -55.5t-2.5 -78v-1251q0 -50 2.5 -78t13.5 -56t28 -41t53.5 -26t82.5 -19t121 -12v-59h-441z" />
<glyph unicode="\" horiz-adv-x="598" d="M123 1430l471 -1528h-100l-471 1528h100z" />
<glyph unicode="]" horiz-adv-x="739" d="M514 1440v-1833h-440v61q74 6 120 11.5t82 18t54 26t29 40.5t13.5 55.5t2.5 78.5v1251q0 50 -2.5 78t-13.5 55.5t-28.5 41t-53.5 26t-82.5 18.5t-120.5 12v60h440z" />
<glyph unicode="^" horiz-adv-x="1060" d="M530 1214l-208 -505h-93l260 622h86l259 -622h-93z" />
<glyph unicode="_" horiz-adv-x="995" d="M987 -225v-90h-977v90h977z" />
<glyph unicode="`" horiz-adv-x="802" d="M365 1432l143 -258q12 -25 12 -50q0 -8 -9.5 -15t-21.5 -7q-15 0 -59 41l-233 223l4 23q63 47 133 47q13 0 31 -4z" />
<glyph unicode="a" horiz-adv-x="944" d="M598 457l-164 -43q-105 -27 -143.5 -77.5t-38.5 -127.5q0 -51 36.5 -88t98.5 -37q68 0 176 88q29 20 29 53zM754 156q0 -64 32 -64q10 0 22 5.5t19 10.5t18.5 15t14.5 12l6 -4l33 -43q-46 -59 -88.5 -83.5t-91.5 -24.5q-34 0 -59 13.5t-37.5 34.5t-18.5 37.5t-8 32.5h-4 q-78 -70 -131.5 -94t-132.5 -24q-112 0 -177 55.5t-65 165.5q0 103 86.5 182t235.5 115l180 43q12 4 12 24q0 48 -7 86.5t-17.5 63t-26.5 43t-31 27.5t-35.5 14.5t-34.5 6.5t-32 1q-64 0 -125.5 -52.5t-106.5 -129.5l-26 2l-33 137l6 8q145 127 303 127q49 0 91.5 -7.5 t87.5 -30t76.5 -58t52 -96t20.5 -140.5q0 -6 -4 -191.5t-4 -219.5z" />
<glyph unicode="b" horiz-adv-x="1017" d="M317 166q77 -96 154 -96q143 0 220 105t77 284q0 144 -69.5 236.5t-166.5 92.5q-22 0 -49 -3.5t-78.5 -24.5t-87.5 -58v-536zM317 1024v-238q104 113 256 113q68 0 133.5 -28.5t118 -79t85 -128t32.5 -167.5q0 -117 -42 -217t-109 -164t-147.5 -99.5t-160.5 -35.5 q-121 0 -209 75q-41 -38 -67 -80q-48 0 -64 11q11 55 11 159v842q0 276 -21 385l4 6q24 2 44.5 5t42.5 11l32 10q8 3 34 14t29 12q19 0 19 -21q-21 -164 -21 -385z" />
<glyph unicode="c" horiz-adv-x="894" d="M532 807q-52 0 -101.5 -21.5t-91 -61.5t-66.5 -106t-25 -147q0 -173 91 -277t216 -104q137 0 225 129h8l41 -33q-48 -101 -134.5 -153.5t-184.5 -52.5q-194 0 -315 124t-121 322q0 85 26.5 160.5t72 132t104.5 97.5t125 62t133 21q71 0 146 -19t128 -46l4 -7l-47 -168 l-27 -2q-42 71 -95.5 110.5t-111.5 39.5z" />
<glyph unicode="d" horiz-adv-x="1052" d="M739 223v463q-39 63 -82.5 92t-111.5 29q-35 0 -68.5 -7t-75.5 -30t-72.5 -59.5t-51.5 -103t-21 -154.5q0 -92 22 -163t58.5 -112t78 -61.5t85.5 -20.5q140 0 239 127zM739 131q-54 -69 -135.5 -110t-157.5 -41q-164 0 -264 122.5t-100 313.5q0 136 65.5 247.5 t176.5 173.5t243 62q33 0 86 -13t86 -32v133q0 275 -20 385l4 6q24 2 44.5 5t42.5 11l32 10q8 3 34 14t29 12q19 0 19 -21q-21 -154 -21 -385v-631q0 -201 35 -393l-4 -6q-40 6 -90 6q-32 0 -72 -6q-18 0 -18 6l-11 131h-4z" />
<glyph unicode="e" horiz-adv-x="905" d="M256 588h371q28 0 28 28q0 105 -50 153t-116 48q-19 0 -39.5 -3t-52.5 -16.5t-58 -36.5t-49.5 -68t-33.5 -105zM811 215l41 -53q-61 -83 -152 -132.5t-198 -49.5q-203 0 -317.5 121.5t-114.5 306.5q0 112 38 207t99 155.5t134.5 94.5t147.5 34q78 0 140 -22t100.5 -57 t63.5 -84t35 -99t10 -105q0 -34 -37 -34h-551q0 -88 19.5 -158.5t50 -114t70.5 -73t78 -41t75 -11.5q162 0 268 115z" />
<glyph unicode="f" horiz-adv-x="630" d="M303 1274q56 75 137 115.5t178 40.5q61 0 93 -19l2 -6q-23 -38 -58 -168l-22 -2q-40 72 -119 72q-83 0 -126.5 -60.5t-43.5 -150.5q0 -14 5 -84t5 -113v-20h221q17 0 17 -13v-51q0 -12 -15.5 -19.5t-31.5 -7.5h-191v-378q0 -281 21 -410l-4 -6q-29 6 -99 6 q-32 0 -57 -1.5t-34 -2.5l-9 -2l-2 6q20 123 20 410v378h-135q-10 0 -10 13v37q0 15 11 28t36 13h98v82q0 58 6 100t23.5 80.5t33.5 62.5t50 70z" />
<glyph unicode="g" horiz-adv-x="980" d="M301 -29q-55 -43 -77.5 -86.5t-22.5 -97.5q0 -49 26 -87t65 -58.5t76 -30.5t66 -10q89 0 173 26.5t140 76.5t56 110q0 41 -18 67.5t-72 59.5q-40 22 -91.5 28t-140.5 6q-10 0 -58 -3t-83 -3q-25 0 -39 2zM786 592q0 -144 -97.5 -228.5t-233.5 -84.5q-104 0 -174 43 q-35 -53 -35 -119q0 -107 119 -107q1 0 59 4q86 11 129 11q211 0 289 -68q86 -74 86 -182q0 -80 -48.5 -147t-128 -110t-177 -67t-197.5 -24q-60 0 -112.5 12t-98.5 37.5t-73 72.5t-27 111q0 68 41.5 134t117.5 114q-41 21 -67.5 63t-26.5 95q0 54 23 112.5t63 93.5 q-47 48 -71.5 100.5t-24.5 129.5q0 136 100 223.5t236 87.5q65 0 121 -18q88 5 190.5 20.5t132.5 18.5l6 -7q-6 -27 -6 -53t6 -53l-6 -6q-204 19 -213 20q98 -84 98 -229zM631 571q0 115 -50 176.5t-143 61.5q-75 0 -116 -57t-41 -134q0 -108 44.5 -178.5t139.5 -70.5 q63 0 114.5 51t51.5 151z" />
<glyph unicode="h" horiz-adv-x="1064" d="M733 369v215q0 121 -32 159.5t-121 38.5q-94 0 -246 -149v-264q0 -239 20 -369l-4 -6q-28 6 -98 6q-32 0 -57 -1.5t-34 -2.5l-9 -2l-2 6q20 123 20 369v616q0 277 -20 387l4 6q24 2 44.5 5t43.5 11l30 10q9 3 35 14t29 12q18 0 18 -21q-20 -156 -20 -383v-289 q162 162 338 162q225 0 225 -317v-213q0 -224 21 -369l-5 -6q-28 6 -98 6q-32 0 -57 -1.5t-34 -2.5l-9 -2l-2 6q20 139 20 369z" />
<glyph unicode="i" horiz-adv-x="548" d="M170 1167q0 42 31.5 73.5t72.5 31.5q42 0 73.5 -31.5t31.5 -73.5q0 -41 -31.5 -72.5t-73.5 -31.5q-41 0 -72.5 31.5t-31.5 72.5zM193 481q0 245 -21 361l4 6q23 2 44 5.5t42 10.5l32 10q11 3 35 13l29 12q19 0 19 -20q-21 -154 -21 -365v-145q0 -224 21 -369l-4 -6 q-29 6 -99 6q-32 0 -57 -1.5t-34 -2.5l-9 -2l-2 6q21 146 21 369v112z" />
<glyph unicode="j" horiz-adv-x="577" d="M207 1167q0 42 31.5 73.5t72.5 31.5q42 0 73.5 -31.5t31.5 -73.5q0 -41 -31.5 -72.5t-73.5 -31.5q-41 0 -72.5 31.5t-31.5 72.5zM236 -129q0 8 -2 44.5t-3.5 109.5t-1.5 172v284q0 251 -20 361l4 6q23 2 44 5.5t42 10.5l32 10q11 3 35 13l29 12q19 0 19 -20 q-21 -154 -21 -365v-518q0 -111 -16 -166t-68 -125q-103 -141 -272 -141q-58 0 -86 16l-2 6q11 21 19 76.5t14 75.5l20 2q14 -25 21 -35t25 -20.5t44 -10.5q144 0 144 197z" />
<glyph unicode="k" horiz-adv-x="974" d="M174 410v577q0 275 -20 385l4 6q24 2 44.5 5t43.5 11l30 10q9 3 35 14t29 12q18 0 18 -21q-20 -156 -20 -385v-537q17 5 51 29q60 45 154.5 154t163.5 209q167 0 206 6l5 -6q-47 -39 -107 -99l-103 -106l-100 -108l-73 -79l225 -266l201 -221l-5 -6q-27 6 -122 6 q-90 0 -136 -6l-90 130l-75 108q-25 35 -65 84.5t-87 99.5q-14 14 -43 18v-24q0 -280 20 -410l-4 -6q-28 6 -98 6q-32 0 -57 -1.5t-34 -2.5l-9 -2l-2 6q20 123 20 410z" />
<glyph unicode="l" horiz-adv-x="532" d="M184 410v577q0 275 -20 385l4 6q20 1 39 4.5t32.5 6.5t32 9.5l26.5 9.5l27 12l25 10q19 0 19 -21q-21 -154 -21 -385v-614q0 -265 21 -410l-4 -6q-29 6 -99 6q-32 0 -57 -1.5t-34 -2.5l-9 -2l-2 6q20 139 20 410z" />
<glyph unicode="m" horiz-adv-x="1566" d="M1239 369v229q0 102 -34 142t-118 40q-58 0 -103 -29.5t-122 -113.5q2 -25 2 -62v-206q0 -224 21 -369l-4 -6q-29 6 -99 6q-32 0 -57 -1.5t-34 -2.5l-9 -2l-2 6q20 139 20 369v225q0 96 -42 141t-107 45q-51 0 -98.5 -32.5t-124.5 -112.5v-266q0 -223 20 -369l-4 -6 q-29 6 -98 6q-32 0 -57 -1.5t-35 -2.5l-9 -2l-2 6q21 137 21 369v112q0 252 -21 361l4 6q29 2 56.5 8.5t41.5 11.5t42 16.5t37 14.5q18 0 18 -20l-18 -142h4q80 86 144 124t153 38q85 0 149.5 -46.5t75.5 -115.5q86 90 156.5 126t154.5 36q54 0 94.5 -11t66.5 -33.5 t42.5 -49t25 -67t11 -77t2.5 -88.5v-204q0 -239 20 -369l-4 -6q-28 6 -98 6q-32 0 -57 -1.5t-34 -2.5l-9 -2l-2 6q20 123 20 369z" />
<glyph unicode="n" horiz-adv-x="1071" d="M897 369q0 -240 21 -369l-5 -6q-28 6 -98 6q-32 0 -57 -1.5t-34 -2.5l-9 -2l-2 6q20 123 20 369v200q0 115 -25.5 163t-103.5 48q-73 0 -133.5 -32t-134.5 -119v-260q0 -223 20 -369l-4 -6q-28 6 -98 6q-32 0 -57 -1.5t-34 -2.5l-9 -2l-2 6q20 139 20 369v112 q0 251 -20 361l4 6q29 2 56.5 8.5t41 11t42.5 16.5l36 15q18 0 18 -20l-18 -148h4q89 105 162.5 136.5t167.5 31.5q67 0 113.5 -24t71.5 -70t35.5 -101.5t10.5 -128.5v-206z" />
<glyph unicode="o" horiz-adv-x="1044" d="M74 420q0 211 126 345t326 134q93 0 169.5 -27.5t126.5 -73t84.5 -106.5t49.5 -124.5t15 -129.5q0 -84 -29.5 -164.5t-84.5 -146.5t-142 -106.5t-193 -40.5q-102 0 -188 37t-142 98.5t-87 140.5t-31 164zM512 815q-64 0 -113.5 -29t-79.5 -78.5t-45.5 -110.5t-15.5 -130 q0 -64 16.5 -130.5t49.5 -130t92 -103.5t135 -40q30 0 60 8.5t62.5 31.5t56.5 57.5t40 92t16 130.5q0 432 -274 432z" />
<glyph unicode="p" horiz-adv-x="1036" d="M317 616v-458q75 -88 170 -88q79 0 134.5 31t84 85t40.5 112.5t12 127.5q0 167 -65 262.5t-163 95.5q-56 0 -118.5 -45.5t-94.5 -122.5zM154 -66v547q0 252 -21 361l4 6q30 2 58 8.5t41.5 11t43 16.5t35.5 15q19 0 19 -20l-19 -142h4q107 162 267 162q147 0 257.5 -127 t110.5 -291q0 -217 -128.5 -359t-325.5 -142q-99 0 -183 45v-91q0 -280 21 -409l-4 -6q-29 6 -98 6q-32 0 -57 -1.5t-35 -3.5l-9 -1l-2 6q21 122 21 409z" />
<glyph unicode="q" horiz-adv-x="1036" d="M713 668q-86 141 -205 141q-120 0 -179 -90t-59 -254q0 -89 18.5 -157.5t47 -108.5t68 -65.5t76 -34.5t75.5 -9q99 0 158 45v533zM713 -66v113q-77 -67 -207 -67q-85 0 -157.5 28t-122 73.5t-85 104t-51.5 119t-16 119.5q0 202 127 338.5t315 136.5q164 0 256 -82l31 49 q22 39 47 39q27 0 27 -51v-920q0 -263 20 -409l-4 -6q-29 6 -98 6q-32 0 -57 -1.5t-34 -3.5l-10 -1l-2 6q21 136 21 409z" />
<glyph unicode="r" horiz-adv-x="727" d="M356 725q46 68 117.5 121t138.5 53q36 0 84 -14l9 -8l-41 -152l-17 -4q-37 29 -119 29q-24 0 -58.5 -16t-63.5 -42q-50 -50 -50 -135v-188q0 -224 21 -369l-4 -6q-29 6 -99 6q-32 0 -57 -1.5t-34 -2.5l-9 -2l-2 6q21 146 21 369v112q0 191 -31 361l4 6q30 2 56.5 8 t41 11.5t39 16.5t35.5 15q18 0 18 -20l-4 -154h4z" />
<glyph unicode="s" horiz-adv-x="749" d="M96 197l29 2q34 -66 96.5 -105t132.5 -39q78 0 125 47.5t47 128.5q0 28 -9 49.5t-20 35.5t-38 28.5t-44 22t-58 22.5q-14 5 -21 8q-51 20 -76.5 31t-61 35.5t-55.5 52.5q-39 55 -39 133q0 49 18.5 91t49.5 70.5t72 49t84.5 30t87.5 9.5q122 0 241 -65l5 -7l-39 -137 l-27 -2q-26 54 -73.5 95.5t-114.5 41.5q-66 0 -113 -38t-47 -99q0 -29 12.5 -53.5t27 -39t43.5 -30t44 -21.5l47 -16q51 -18 82 -31t69.5 -36t59.5 -48.5t36 -64.5t15 -88q0 -37 -8 -72.5t-31 -74.5t-58 -67.5t-94.5 -47t-136.5 -18.5q-144 0 -293 55z" />
<glyph unicode="t" horiz-adv-x="618" d="M178 879q0 161 -14 247l4 7q29 2 54.5 8t39 11t37.5 16.5t35 15.5q18 0 18 -21q-10 -149 -10 -284h219q17 0 17 -13v-51q0 -12 -16 -19.5t-34 -7.5h-186v-292q0 -69 -3 -156.5t-3 -110.5q0 -67 14 -97t53 -30q44 0 73.5 7t68.5 30l24 -57q-110 -102 -237 -102 q-71 0 -115.5 44.5t-44.5 116.5q0 23 3 143t3 189v315h-129q-8 0 -8 9v73q0 9 6 9h131z" />
<glyph unicode="u" horiz-adv-x="1067" d="M717 131q-81 -86 -147 -118.5t-136 -32.5q-73 0 -126 23t-81.5 63.5t-41.5 88t-13 103.5v252q0 239 -20 369l4 6q28 -6 98 -6q32 0 57 1.5t34 3.5l9 1l2 -6q-20 -121 -20 -369v-203q0 -65 14.5 -110t39 -66.5t48 -30t49.5 -8.5q104 0 230 152v266q0 240 -21 369l4 6 q29 -6 99 -6q32 0 57 1.5t34 3.5l9 1l2 -6q-20 -121 -20 -369v-117q0 -206 34 -393l-4 -6q-39 6 -92 6q-30 0 -69 -6q-19 0 -19 6l-10 131h-4z" />
<glyph unicode="v" horiz-adv-x="1007" d="M424 -6q-177 461 -373 891q33 -6 109 -6t102 6q103 -329 264 -701h4q33 71 73 170l63 160l72 200l61 171q18 -6 69 -6q70 0 88 6l-96 -214l-106 -242l-85 -203q-52 -127 -89 -232q-19 6 -80 6q-56 0 -76 -6z" />
<glyph unicode="w" horiz-adv-x="1540" d="M422 -8q-188 490 -371 891q33 -6 109 -6t102 6q124 -396 256 -701h12q82 177 175 424l-121 279q32 -6 108 -6t103 6q117 -377 258 -701h16q42 90 84.5 201t100.5 277l77 223q19 -6 70 -6q69 0 88 6l-125 -275l-151.5 -342.5t-106.5 -273.5q-19 6 -84 6q-53 0 -74 -6 l-188 479q-67 -162 -180 -481q-19 6 -91 6q-47 0 -67 -6z" />
<glyph unicode="x" horiz-adv-x="931" d="M377 424l-348 461q32 -6 118 -6q76 0 111 6q92 -152 227 -334q188 243 250 334q23 -6 76 -6q70 0 92 6l-356 -414q137 -199 354 -477q-31 6 -104 6q-86 0 -117 -6q-57 90 -238 344l-241 -344q-21 6 -90 6q-54 0 -74 -6z" />
<glyph unicode="y" horiz-adv-x="995" d="M37 885q29 -6 106 -6q74 0 101 6l25 -75l29 -82l26 -74l32 -81l30 -73l34 -83l30 -75l35 -84l33 -78h4q138 294 269 705q20 -6 79 -6q68 0 88 6q-92 -187 -317.5 -696t-275.5 -674q-35 10 -101 10q-38 0 -71 -10q132 219 229 446q-53 140 -186 459z" />
<glyph unicode="z" horiz-adv-x="851" d="M279 102q111 1 239 6.5t200 11.5l73 5l4 -6q-4 -34 -4 -64q0 -1 4 -55l-4 -6q-47 6 -115 6h-463l-166 -6l-6 10q22 26 45 62l481 710q-104 -2 -221 -7.5t-182 -10.5l-64 -4l-4 6q4 32 4 63q0 2 -4 56l4 6q46 -6 115 -6h418q26 0 65 3t68.5 6t32.5 3q10 0 10 -12 q-22 -27 -61 -86z" />
<glyph unicode="{" horiz-adv-x="569" d="M367 1151v-360q0 -95 -12 -148.5t-38.5 -84t-78.5 -52.5q83 -36 106 -101.5t23 -209.5v-326q0 -114 38.5 -186t104.5 -72v-45q-110 2 -170.5 29.5t-91.5 99.5t-31 205v348q0 206 -147 241v31q147 43 147 238v377q0 117 31 184.5t93 96.5t169 32v-45q-33 -10 -56 -23.5 t-44.5 -40.5t-32 -74t-10.5 -114z" />
<glyph unicode="|" horiz-adv-x="430" d="M266 -475h-100v1905h100v-1905z" />
<glyph unicode="}" horiz-adv-x="569" d="M203 -139v360q0 139 26 195.5t103 89.5q-83 36 -106 101t-23 210v326q0 113 -38.5 185.5t-105.5 72.5v45q110 -2 170.5 -29.5t91.5 -100t31 -204.5v-348q0 -206 148 -242v-30q-148 -42 -148 -238v-377q0 -117 -31 -184.5t-93 -96.5t-169 -32v45q33 9 56 23t44.5 40.5 t32.5 74t11 114.5z" />
<glyph unicode="~" horiz-adv-x="919" d="M53 428q21 104 96 183t166 79q22 0 51.5 -11.5t45.5 -20.5t55 -33l53 -33q18 -11 46.5 -23t49.5 -12q53 0 112.5 34t90.5 103l35 -12q-22 -77 -57 -130t-72.5 -76t-65 -31.5t-51.5 -8.5q-58 0 -153 68q-97 65 -152 65q-57 0 -123 -41t-100 -106z" />
<glyph unicode="&#xa1;" horiz-adv-x="466" d="M236 -469q-46 0 -80.5 39t-34.5 111q0 75 23 203t30 192q12 97 19 183.5t10 134t4 55.5q4 40 29 40q24 0 28 -26q1 -13 5.5 -78.5t11.5 -152t14 -156.5q7 -72 29 -194t22 -201q0 -75 -34.5 -112.5t-75.5 -37.5zM350 788v-8q-14 -41 -39 -66.5t-71 -43.5h-9 q-45 17 -71 42.5t-39 67.5v8q15 49 41 74.5t69 36.5h9q47 -11 72 -35.5t38 -75.5z" />
<glyph unicode="&#xa2;" d="M461 1184h69v-187h17q66 0 134 -17t114 -42l2 -4l-41 -152l-25 -2q-79 135 -186 135q-10 0 -15 -2v-641q13 -2 35 -2q123 0 203 115h6l37 -29q-42 -90 -118.5 -137t-162.5 -49v-195h-69v199q-149 20 -239.5 128.5t-90.5 268.5q0 161 96.5 273t233.5 143v197zM461 293v606 q-75 -28 -123.5 -102t-48.5 -185q0 -116 48 -199t124 -120z" />
<glyph unicode="&#xa3;" d="M426 795v-138h242q14 0 14 -12v-43q0 -11 -15 -17.5t-32 -6.5h-209q-2 -270 -141 -402h10q75 0 128.5 -14t77.5 -31t59 -31t77 -14q139 0 201 84l34 -20q-36 -78 -106.5 -124t-163.5 -46q-58 0 -103.5 18t-71 39t-70 39t-101.5 18q-82 0 -82 -47q0 -32 -22 -49.5 t-56 -17.5q-28 0 -44.5 15t-16.5 38q0 25 25.5 47.5t72.5 48.5q80 58 108.5 161.5t28.5 254.5v33h-123q-7 0 -9.5 2t-2.5 10v26q0 15 11.5 28t35.5 13h88v39q0 121 28 190t103 144q137 137 342 137q54 0 82 -16l2 -6q-27 -47 -51 -148l-20 -2q-38 64 -105 64 q-80 0 -152.5 -81.5t-72.5 -182.5z" />
<glyph unicode="&#xa4;" d="M209 592q0 -116 66.5 -195.5t173.5 -79.5q104 0 170.5 80t66.5 193q0 114 -68.5 193t-164.5 79q-106 0 -175 -79.5t-69 -190.5zM449 231q-122 0 -222 74l-88 -108l-84 82l111 88q-80 95 -80 223q0 133 80 225l-107 84l76 82l94 -104q99 71 220 71q127 0 223 -76l94 113 l80 -84l-113 -90q78 -93 78 -221q0 -121 -76 -219l107 -90l-74 -78l-94 104q-101 -76 -225 -76z" />
<glyph unicode="&#xa5;" d="M96 469q-7 0 -8.5 2t-1.5 10v29q0 15 10.5 28t34.5 13h205l-163 315q-128 250 -165 312q31 -7 105 -7q71 0 102 7q71 -182 125 -304t131 -256q30 47 56 95.5t57 115.5l44 101l52 128l49 120q21 -7 76 -7q53 0 76 7l-340 -627h264q14 0 14 -12v-43q0 -13 -14.5 -20 t-32.5 -7h-248q2 -41 2 -129h279q14 0 14 -12v-41q0 -13 -14.5 -20t-32.5 -7h-244q3 -168 11 -266q-29 6 -95 6q-63 0 -92 -6q6 58 10 266h-266q-7 0 -8.5 2t-1.5 10v27q0 15 10.5 28t34.5 13h234v129h-269z" />
<glyph unicode="&#xa6;" horiz-adv-x="419" d="M264 1380v-741h-98v741h98zM264 330v-742h-98v742h98z" />
<glyph unicode="&#xa7;" horiz-adv-x="989" d="M303 793q-36 -34 -60 -79t-24 -89q0 -28 7 -55t17 -49t29.5 -45.5t35.5 -40t44 -36.5l46 -33q18 -12 52 -30l50 -27l52 -27q35 -17 48 -24q48 -23 86 -55q84 80 84 168q0 28 -7 55t-17 49t-29.5 45t-35.5 39.5t-43 36.5l-46 32q-19 13 -52 31l-50 27l-53 26l-48 25 q-50 26 -86 56zM256 834q-90 94 -90 223q0 51 24 102.5t66 93.5t106 68.5t138 26.5q40 0 80 -10.5t64 -20t58.5 -34t43.5 -31.5l38 -33l7 -11l-35 -149l-29 -4q-26 45 -48.5 77t-53.5 65.5t-67.5 51t-76.5 17.5q-73 0 -123.5 -47.5t-50.5 -120.5q0 -135 164 -203 q60 -24 108.5 -48.5t109 -65.5t101 -86t69 -109.5t28.5 -136.5q0 -88 -42.5 -162t-111.5 -125q90 -95 90 -223q0 -51 -24 -102.5t-66 -93.5t-106 -68.5t-138 -26.5q-40 0 -80 10.5t-64 20t-58.5 34t-42.5 31.5l-39 33l-6 10l34 150l29 4q27 -46 49 -77.5t53 -65.5t67.5 -51 t76.5 -17q73 0 123.5 47.5t50.5 120.5q0 135 -164 202q-60 24 -108.5 48.5t-109 65.5t-101 86.5t-69 110t-28.5 136.5q0 88 42.5 161.5t111.5 125.5z" />
<glyph unicode="&#xa8;" horiz-adv-x="768" d="M111 1178q0 38 28 66t66 28t66 -28t28 -66q0 -39 -28 -67t-66 -28t-66 28t-28 67zM438 1178q0 38 28 66t66 28q39 0 67 -28t28 -66q0 -39 -28 -67t-67 -28q-38 0 -66 28t-28 67z" />
<glyph unicode="&#xa9;" horiz-adv-x="1296" d="M899 442q-35 -53 -99 -92t-143 -39q-134 0 -226.5 91t-92.5 214q0 130 94.5 225t229.5 95q82 0 132.5 -15.5t69.5 -15.5l29 -160l-41 -8q-29 77 -72.5 114.5t-126.5 37.5q-34 0 -64.5 -11.5t-59.5 -38.5t-46.5 -78.5t-17.5 -123.5q0 -117 55 -191.5t156 -74.5 q116 0 184 102zM649 47q-118 0 -225.5 46t-185 124t-123 185.5t-45.5 224.5t46 224t123.5 184.5t184.5 123t225 45.5t225 -45.5t184.5 -123t123 -184t45.5 -224.5t-45.5 -225.5t-123 -185t-184.5 -123.5t-225 -46zM649 1141q-141 0 -260 -69t-187.5 -187t-68.5 -258 q0 -139 68.5 -257.5t187.5 -187.5t260 -69q139 0 257.5 68.5t187.5 187t69 258.5t-68.5 258t-187 187t-258.5 69z" />
<glyph unicode="&#xaa;" horiz-adv-x="608" d="M385 1028q-128 -33 -175.5 -65t-47.5 -80q0 -36 21.5 -60t70.5 -24q31 0 60.5 15.5t70.5 51.5v162zM473 733q-35 0 -58 24.5t-28 55.5q-54 -47 -89 -63.5t-85 -16.5q-67 0 -112.5 39.5t-45.5 104.5q0 122 211 176l119 30q0 55 -10 91t-28 52t-34.5 21.5t-38.5 5.5 q-50 0 -80 -15t-30 -40q0 -17 4 -27q4 -8 4 -24t-13.5 -29.5t-39.5 -13.5q-23 0 -38 14t-15 37q0 58 71.5 104t141.5 46q42 0 77 -10t68.5 -34t52.5 -72.5t19 -117.5v-153q0 -117 28 -117q15 0 25 10l20 -33q-16 -17 -42.5 -31t-53.5 -14z" />
<glyph unicode="&#xab;" horiz-adv-x="1097" d="M958 879v-105q-137 -206 -292 -334q147 -110 292 -334v-104q-243 284 -446 399v78q222 160 446 400zM590 879v-105q-141 -206 -295 -334q150 -115 295 -334v-104q-249 287 -451 399v78q214 151 451 400z" />
<glyph unicode="&#xac;" horiz-adv-x="1146" d="M989 272v459h-940v90h1051v-549h-111z" />
<glyph unicode="&#xad;" horiz-adv-x="681" d="M561 483h-463q-13 0 -21.5 10.5t-8.5 24.5q0 25 16.5 50.5t34.5 25.5h469q28 0 28 -37q0 -19 -18 -46.5t-37 -27.5z" />
<glyph unicode="&#xae;" horiz-adv-x="1296" d="M883 758q0 -57 -34 -96t-85 -56l98 -168q32 -54 88 -43l8 -35q-34 -14 -73 -14q-83 0 -125 72l-98 164q-12 8 -76 8v-148q0 -40 24 -43l29 -4q22 -6 23 -12v-33l-5 -4q-84 4 -120 4l-125 -4l-4 4v35q0 7 16 9q3 1 4 1l35 4q26 3 26 43v369q0 25 -13.5 38t-33.5 13h-22 q-17 0 -17 10v35l5 4h278q55 0 95.5 -15t61.5 -39t30.5 -49t9.5 -50zM770 758q0 104 -102 104q-82 0 -82 -51v-172h65q56 0 87.5 24t31.5 95zM649 47q-118 0 -225.5 46t-185 124t-123 185.5t-45.5 224.5t46 224t123.5 184.5t184.5 123t225 45.5t225 -45.5t184.5 -123 t123 -184t45.5 -224.5t-45.5 -225.5t-123 -185t-184.5 -123.5t-225 -46zM649 1141q-141 0 -260 -69t-187.5 -187t-68.5 -258q0 -139 68.5 -257.5t187.5 -187.5t260 -69q139 0 257.5 68.5t187.5 187t69 258.5t-68.5 258t-187 187t-258.5 69z" />
<glyph unicode="&#xaf;" horiz-adv-x="813" d="M645 1083h-500q-24 0 -24 31q0 20 13.5 40t31.5 20h500q14 0 21 -9t7 -20q0 -20 -15 -41t-34 -21z" />
<glyph unicode="&#xb0;" horiz-adv-x="546" d="M410 1073q0 58 -35.5 104t-100.5 46q-63 0 -100 -45t-37 -105q0 -57 37.5 -100t99.5 -43q60 0 98 44t38 99zM70 1075q0 86 60 145.5t144 59.5q85 0 144 -59.5t59 -145.5q0 -84 -59 -143.5t-144 -59.5q-84 0 -144 59.5t-60 143.5z" />
<glyph unicode="&#xb1;" horiz-adv-x="1079" d="M592 700h352v-100h-352v-356h-105v356h-352v100h352v357h105v-357zM944 139v-100h-809v100h809z" />
<glyph unicode="&#xb2;" horiz-adv-x="628" d="M365 815q66 0 178 8q-4 -24 -4 -41q0 -15 4 -41q-72 4 -166 4h-285q0 68 50 131t137 130q52 41 78 69t42.5 68t16.5 94q0 64 -35.5 93.5t-73.5 29.5q-60 0 -85 -17.5t-25 -42.5q0 -9 5 -25t5 -24q0 -22 -19.5 -35.5t-37.5 -13.5q-19 0 -36.5 15t-17.5 34q0 22 12 47.5 t36.5 51t69 42.5t101.5 17t104 -14t82.5 -54t35.5 -102q0 -66 -44.5 -121.5t-138.5 -122.5q-68 -48 -101.5 -91t-33.5 -89h146z" />
<glyph unicode="&#xb3;" horiz-adv-x="628" d="M385 1278q0 43 -24 62.5t-58 19.5q-38 0 -74.5 -18.5t-38.5 -53.5q-1 -17 -4 -27t-15 -21t-34 -11q-18 0 -29.5 8.5t-14.5 16t-3 12.5q0 15 13 37t38.5 47t75 42t111.5 17q80 0 127 -32t47 -89q0 -81 -105 -139q60 -5 112 -52t52 -128q0 -104 -86.5 -170t-212.5 -66 q-62 0 -122 23t-60 53q0 15 16 28t33 13q30 0 53 -29q16 -18 37 -27.5t66 -9.5q18 0 41 7t50.5 23.5t45.5 52.5t18 85q0 33 -12 58t-29.5 38.5t-41 22t-41 10.5t-35.5 2q-9 0 -41 -4l-4 49q69 10 109 49t40 101z" />
<glyph unicode="&#xb4;" horiz-adv-x="698" d="M358 1440q14 4 29 4q64 0 113 -47l6 -23l-236 -223q-38 -39 -61 -39q-11 0 -20 8t-9 19t3 20t6 14l14 23z" />
<glyph unicode="&#xb5;" horiz-adv-x="995" d="M207 -479q-32 0 -71.5 38.5t-39.5 94.5q0 49 16.5 155.5t16.5 174.5q0 27 -9 126t-9 164v385q0 26 -5.5 81t-10.5 97l-5 42q27 0 90 9t78 11q6 -131 6 -197v-401q0 -229 142 -229q79 0 150 38.5t108 92.5v676q29 0 85.5 9.5t67.5 10.5v-645q0 -123 11 -150q10 -28 42 -28 q36 0 70 86l49 -23q-32 -84 -71.5 -121.5t-114.5 -37.5q-58 0 -98.5 41.5t-40.5 101.5q-130 -143 -297 -143q-34 0 -67.5 13.5t-49.5 33.5q-9 0 -17 -6t-8 -13q0 -72 33 -199t33 -165q0 -60 -23.5 -91.5t-60.5 -31.5z" />
<glyph unicode="&#xb6;" horiz-adv-x="1232" d="M752 1176v-1506q0 -78 82 -78q84 0 84 78v1506q0 44 -22 60.5t-62 16.5q-82 0 -82 -77zM836 1321l202 6l2 -6q-20 -136 -20 -410v-977q0 -263 20 -409l-4 -6q-133 6 -202 6l-201 -6l-4 6q20 146 20 409v650q-27 -6 -65 -6q-227 0 -347 102t-120 305q0 63 23.5 122 t69 108.5t122.5 79.5t174 30q89 0 201.5 -2t128.5 -2z" />
<glyph unicode="&#xb7;" horiz-adv-x="512" d="M256 418q-49 0 -80 32.5t-31 77.5q0 44 33.5 77.5t77.5 33.5q42 0 76.5 -33t34.5 -78t-32 -77.5t-79 -32.5z" />
<glyph unicode="&#xb8;" horiz-adv-x="1107" d="M618 -197q-52 0 -92 -12l-12 12l82 197h70l-52 -137q26 6 54 6q63 0 104 -35t41 -92q0 -66 -62.5 -109t-156.5 -43q-45 0 -76 8t-76 27q0 32 21 53q77 -28 119 -28q47 0 75.5 21.5t28.5 60.5q0 71 -68 71z" />
<glyph unicode="&#xb9;" horiz-adv-x="628" d="M301 1008v174q0 54 -3.5 70t-21.5 16t-68 -15t-73 -26l-20 59l35 13l38 13l34.5 13.5l37.5 14.5l34 15q22 9 37 17l33 17q19 10 35 20h13q6 0 6 -12q-6 -70 -6 -131v-258q0 -165 14 -263l-2 -4q-18 4 -70 4l-69 -4l-2 4q18 100 18 263z" />
<glyph unicode="&#xba;" horiz-adv-x="714" d="M80 879q0 131 75 205.5t207 74.5q73 0 127.5 -22t86 -61t46.5 -85t15 -100q0 -113 -74 -191.5t-211 -78.5q-114 0 -193 74t-79 184zM350 1108q-73 0 -112 -60t-39 -149q0 -85 45.5 -153t130.5 -68q23 0 46 8t46.5 26.5t38 56t14.5 89.5q0 121 -45.5 185.5t-124.5 64.5z " />
<glyph unicode="&#xbb;" horiz-adv-x="1097" d="M98 2v104q134 203 293 334q-146 111 -293 334v105q244 -284 447 -400v-78q-216 -153 -447 -399zM467 2v104q140 207 295 334q-150 116 -295 334v105q250 -288 451 -400v-78q-213 -149 -451 -399z" />
<glyph unicode="&#xbc;" horiz-adv-x="1351" d="M1141 1231l84 -17l-938 -1341l-86 16zM1065 -166q15 79 18 203h-295l-8 24l316 447l63 -21q-51 -78 -149.5 -215.5t-116.5 -165.5h190v158q0 12 15 35q33 43 53 43q43 0 43 -20v-216h100l-12 -69h-86q0 -121 12 -203l-2 -4q-18 4 -69 4l-70 -4zM295 907v174 q0 55 -3.5 70.5t-21.5 15.5q-19 0 -69 -14.5t-72 -26.5l-20 60q7 2 47 16l51 20l45 17q33 13 50 21l44 22q25 13 47 27h13q6 0 6 -13q-6 -69 -6 -131v-258q0 -164 14 -262l-2 -4q-19 4 -70 4l-69 -4l-3 4q19 99 19 262z" />
<glyph unicode="&#xbd;" horiz-adv-x="1351" d="M1090 1231l86 -17l-940 -1341l-84 16zM1098 -92q68 0 178 8q-4 -24 -4 -41t4 -41q-72 4 -166 4h-285q0 68 50 131t137 129q77 62 107 108t30 124q0 64 -35.5 93.5t-73.5 29.5q-60 0 -85 -17.5t-25 -42.5q0 -9 5 -25t5 -24q0 -22 -19.5 -35.5t-37.5 -13.5q-20 0 -37 14.5 t-17 34.5q0 52 56 105t164 53q57 0 103.5 -14t82 -54t35.5 -102q0 -66 -44.5 -121.5t-138.5 -122.5q-135 -96 -135 -180h146zM299 907v174q0 55 -3.5 70.5t-21.5 15.5q-19 0 -69 -14.5t-72 -26.5l-20 60q7 2 47 16l51 20l45 17q33 13 50 21l44 22q25 13 47 27h13q6 0 6 -13 q-6 -69 -6 -131v-258q0 -164 14 -262l-2 -4q-19 4 -70 4l-69 -4l-2 4q18 100 18 262z" />
<glyph unicode="&#xbe;" horiz-adv-x="1351" d="M1151 1231l84 -17l-938 -1341l-86 16zM381 1174q0 43 -24 62t-58 19q-38 0 -75 -18.5t-38 -52.5q-1 -17 -4 -27.5t-15 -21.5t-34 -11q-18 0 -29.5 8.5t-14.5 16t-3 12.5q0 15 13 37.5t38.5 47.5t74.5 42t112 17q80 0 127 -32t47 -89q0 -82 -105 -140q61 -5 112.5 -52 t51.5 -128q0 -104 -86.5 -169.5t-212.5 -65.5q-62 0 -122 23t-60 53q0 15 16 27.5t33 12.5q29 0 53 -28q15 -19 36.5 -28t66.5 -9q14 0 31 3.5t39.5 15t41 29t31 49t12.5 71.5q0 33 -12 58t-29.5 38.5t-41 22t-41.5 10.5t-36 2q-8 0 -40 -4l-5 49q69 9 109.5 48.5 t40.5 101.5zM1073 -162q16 85 19 203h-295l-9 25l316 446l63 -20q-52 -81 -151 -219t-115 -162h191v157q0 14 14 35q32 43 53 43q43 0 43 -20v-215h101l-13 -70h-86q0 -123 13 -203l-3 -4q-18 4 -69 4l-70 -4z" />
<glyph unicode="&#xbf;" horiz-adv-x="829" d="M432 -389q141 0 252 192l27 -2l32 -137l-6 -8q-55 -46 -140.5 -86.5t-182.5 -40.5q-156 0 -247 84.5t-91 224.5q0 47 14.5 90t33 72.5t52.5 63t56 50.5l61 46q87 65 106 102q37 70 37 150v90q0 20 27 20q26 0 26 -20v-94q0 -43 -3.5 -74t-15.5 -76.5t-41.5 -90.5 t-76.5 -89q-66 -61 -94.5 -112t-28.5 -120q0 -100 58 -167.5t145 -67.5zM578 788v-8q-14 -41 -39.5 -66.5t-71.5 -43.5h-8q-45 17 -71 42t-40 68v8q16 49 41.5 74.5t69.5 36.5h8q47 -11 72 -35.5t39 -75.5z" />
<glyph unicode="&#xc0;" horiz-adv-x="1296" d="M371 467q-127 -306 -170 -473q-25 6 -92 6q-48 0 -72 -6l604 1354h57l198 -484l224 -548q95 -231 140 -322q-35 6 -123 6q-68 0 -103 -6q-44 166 -160 473q-150 4 -239 4q-108 0 -264 -4zM838 565l-207 504h-4l-215 -504q32 0 107.5 -2t105.5 -2q77 0 213 4zM524 1675 l248 -172q31 -22 31 -43q0 -12 -9.5 -21t-21.5 -9q-31 0 -88 24l-315 129q58 58 155 92z" />
<glyph unicode="&#xc1;" horiz-adv-x="1296" d="M371 467q-127 -306 -170 -473q-25 6 -92 6q-48 0 -72 -6l604 1354h57l198 -484l224 -548q95 -231 140 -322q-35 6 -123 6q-68 0 -103 -6q-44 166 -160 473q-150 4 -239 4q-108 0 -264 -4zM838 565l-207 504h-4l-215 -504q32 0 107.5 -2t105.5 -2q77 0 213 4zM797 1679 q84 -37 127 -106l-295 -119q-57 -24 -86 -24q-14 0 -22.5 9t-8.5 21q0 22 31 43z" />
<glyph unicode="&#xc2;" horiz-adv-x="1296" d="M371 467q-127 -306 -170 -473q-25 6 -92 6q-48 0 -72 -6l604 1354h57l198 -484l224 -548q95 -231 140 -322q-35 6 -123 6q-68 0 -103 -6q-44 166 -160 473q-150 4 -239 4q-108 0 -264 -4zM838 565l-207 504h-4l-215 -504q32 0 107.5 -2t105.5 -2q77 0 213 4zM719 1649 q83 -101 207 -193l-33 -43q-128 59 -217 127q-104 -76 -219 -127l-29 43q84 63 203 193h88z" />
<glyph unicode="&#xc3;" horiz-adv-x="1296" d="M371 467q-127 -306 -170 -473q-25 6 -92 6q-48 0 -72 -6l604 1354h57l198 -484l224 -548q95 -231 140 -322q-35 6 -123 6q-68 0 -103 -6q-44 166 -160 473q-150 4 -239 4q-108 0 -264 -4zM838 565l-207 504h-4l-215 -504q32 0 107.5 -2t105.5 -2q77 0 213 4zM807 1524 q36 0 59 22t43 84l49 -12q-36 -184 -178 -184q-52 0 -131 53q-76 45 -110 45q-39 0 -62 -23t-39 -75l-49 10q22 93 60.5 137.5t103.5 44.5q64 0 147 -57q59 -45 107 -45z" />
<glyph unicode="&#xc4;" horiz-adv-x="1296" d="M371 467q-127 -306 -170 -473q-25 6 -92 6q-48 0 -72 -6l604 1354h57l198 -484l224 -548q95 -231 140 -322q-35 6 -123 6q-68 0 -103 -6q-44 166 -160 473q-150 4 -239 4q-108 0 -264 -4zM838 565l-207 504h-4l-215 -504q32 0 107.5 -2t105.5 -2q77 0 213 4zM328 1452 q0 38 28 65t66 27t65 -27t27 -65t-27 -65t-65 -27t-66 27t-28 65zM819 1452q0 38 28 65t66 27q39 0 66 -27t27 -65t-27 -65t-66 -27q-38 0 -66 27t-28 65z" />
<glyph unicode="&#xc5;" horiz-adv-x="1296" d="M664 1577q-47 0 -75 -33.5t-28 -81.5q0 -45 28.5 -79.5t74.5 -34.5q45 0 73.5 34.5t28.5 79.5q0 49 -28.5 82t-73.5 33zM485 1462q0 70 53.5 120t125.5 50t125 -49t53 -121q0 -55 -34.5 -100t-88.5 -62l191 -470l216 -531q90 -216 134 -305q-35 6 -123 6q-68 0 -103 -6 q-44 166 -160 473q-150 4 -239 4q-108 0 -264 -4q-127 -306 -170 -473q-25 6 -92 6q-48 0 -72 -6l581 1304q-56 15 -94.5 60.5t-38.5 103.5zM838 565l-207 504h-4l-215 -504q32 0 107.5 -2t105.5 -2q77 0 213 4z" />
<glyph unicode="&#xc6;" horiz-adv-x="1642" d="M455 571q-158 -330 -254 -577q-25 6 -92 6q-48 0 -72 -6l196 386l267 512q116 213 250 431v-2l4 6q34 -6 104 -6h436q74 0 123 6l4 -6q-4 -58 -4 -64q0 -19 4 -53l-4 -8q-157 21 -375 21q-115 0 -148.5 -19.5t-25.5 -79.5l97 -436q222 0 458 20l7 -6q-7 -25 -7 -57t7 -57 l-7 -7q-152 16 -438 21q56 -243 119 -481q91 3 200 8t172 9l64 3l4 -8q-4 -32 -4 -68q0 -1 4 -59l-4 -6q-50 6 -123 6h-280h-2h-111q-68 0 -102 -6q0 106 -91 577q-45 2 -135 2q-30 0 -116 -1t-125 -1zM813 666l-84 428h-4q-95 -168 -223 -426q122 -4 184 -4q82 0 127 2z " />
<glyph unicode="&#xc7;" horiz-adv-x="1331" d="M752 -205q-53 0 -93 -12l-12 12l78 185h-6q-128 0 -235.5 37.5t-181.5 101.5t-126 149.5t-76 180.5t-24 196q0 147 56.5 279.5t149.5 224.5t215 145.5t251 53.5q70 0 141.5 -9.5t124 -23t94.5 -27.5t64 -24l22 -9l4 -6l-10 -43l-10 -38l-6 -30t-6 -34t-4.5 -35t-4.5 -47 l-20 -2q-115 231 -418 231q-53 0 -109.5 -18.5t-115 -62t-104 -106.5t-74.5 -162t-29 -218q0 -92 16 -177.5t51.5 -163t87 -134.5t127.5 -91t168 -34q151 0 261 44t214 159l48 -31q-88 -117 -209 -186t-254 -86l-49 -129q24 6 53 6q63 0 104 -35t41 -92q0 -66 -62.5 -109 t-156.5 -43q-73 0 -152 35q0 32 21 53q77 -28 119 -28q47 0 75.5 21.5t28.5 60.5q0 71 -67 71z" />
<glyph unicode="&#xc8;" horiz-adv-x="1069" d="M373 410q0 -243 16 -299q122 0 266.5 6t228.5 12l83 6l4 -8q-4 -32 -4 -68q0 -1 4 -59l-4 -6q-49 6 -123 6h-559q-32 0 -58.5 -1.5t-37.5 -2.5l-11 -2l-2 6q21 137 21 410v501q0 265 -21 410l4 6q35 -6 105 -6h538q73 0 123 6l4 -6q-4 -58 -4 -64q0 -19 4 -53l-4 -8 q-283 25 -557 25q-16 -57 -16 -310v-168q204 0 456 21l7 -6q-7 -27 -7 -58q0 -30 7 -57l-7 -6q-201 20 -456 20v-247zM502 1673l248 -172q30 -22 30 -43q0 -12 -9 -21.5t-21 -9.5q-28 0 -88 25l-316 129q59 59 156 92z" />
<glyph unicode="&#xc9;" horiz-adv-x="1069" d="M373 410q0 -243 16 -299q122 0 266.5 6t228.5 12l83 6l4 -8q-4 -32 -4 -68q0 -1 4 -59l-4 -6q-49 6 -123 6h-559q-32 0 -58.5 -1.5t-37.5 -2.5l-11 -2l-2 6q21 137 21 410v501q0 265 -21 410l4 6q35 -6 105 -6h538q73 0 123 6l4 -6q-4 -58 -4 -64q0 -19 4 -53l-4 -8 q-283 25 -557 25q-16 -57 -16 -310v-168q204 0 456 21l7 -6q-7 -27 -7 -58q0 -30 7 -57l-7 -6q-201 20 -456 20v-247zM717 1679q84 -37 127 -106l-295 -119q-57 -24 -86 -24q-14 0 -22.5 9t-8.5 21q0 22 31 43z" />
<glyph unicode="&#xca;" horiz-adv-x="1069" d="M373 410q0 -243 16 -299q122 0 266.5 6t228.5 12l83 6l4 -8q-4 -32 -4 -68q0 -1 4 -59l-4 -6q-49 6 -123 6h-559q-32 0 -58.5 -1.5t-37.5 -2.5l-11 -2l-2 6q21 137 21 410v501q0 265 -21 410l4 6q35 -6 105 -6h538q73 0 123 6l4 -6q-4 -58 -4 -64q0 -19 4 -53l-4 -8 q-283 25 -557 25q-16 -57 -16 -310v-168q204 0 456 21l7 -6q-7 -27 -7 -58q0 -30 7 -57l-7 -6q-201 20 -456 20v-247zM649 1649q87 -104 207 -193l-33 -43q-124 58 -217 127q-104 -76 -219 -127l-29 43q90 68 203 193h88z" />
<glyph unicode="&#xcb;" horiz-adv-x="1069" d="M373 410q0 -243 16 -299q122 0 266.5 6t228.5 12l83 6l4 -8q-4 -32 -4 -68q0 -1 4 -59l-4 -6q-49 6 -123 6h-559q-32 0 -58.5 -1.5t-37.5 -2.5l-11 -2l-2 6q21 137 21 410v501q0 265 -21 410l4 6q35 -6 105 -6h538q73 0 123 6l4 -6q-4 -58 -4 -64q0 -19 4 -53l-4 -8 q-283 25 -557 25q-16 -57 -16 -310v-168q204 0 456 21l7 -6q-7 -27 -7 -58q0 -30 7 -57l-7 -6q-201 20 -456 20v-247zM684 1538q0 40 29 69t69 29t69.5 -29t29.5 -69t-29.5 -69t-69.5 -29t-69 29t-29 69zM297 1538q0 40 29 69t69 29t69.5 -29t29.5 -69t-29.5 -69t-69.5 -29 t-69 29t-29 69z" />
<glyph unicode="&#xcc;" horiz-adv-x="600" d="M217 911q0 264 -20 410l4 6q35 -6 104 -6q32 0 58.5 1.5t37.5 3.5l11 1l2 -6q-21 -135 -21 -410v-501q0 -265 21 -410l-4 -6q-35 6 -105 6q-32 0 -58.5 -1.5t-36.5 -2.5l-11 -2l-2 6q20 139 20 410v501zM203 1673l248 -172q30 -22 30 -43q0 -12 -9 -21.5t-21 -9.5 q-28 0 -89 25l-315 129q59 59 156 92z" />
<glyph unicode="&#xcd;" horiz-adv-x="600" d="M217 911q0 264 -20 410l4 6q35 -6 104 -6q32 0 58.5 1.5t37.5 3.5l11 1l2 -6q-21 -135 -21 -410v-501q0 -265 21 -410l-4 -6q-35 6 -105 6q-32 0 -58.5 -1.5t-36.5 -2.5l-11 -2l-2 6q20 139 20 410v501zM430 1677q84 -37 127 -106l-295 -119q-60 -25 -86 -25 q-13 0 -22 9.5t-9 21.5q0 22 31 43z" />
<glyph unicode="&#xce;" horiz-adv-x="600" d="M217 911q0 264 -20 410l4 6q35 -6 104 -6q32 0 58.5 1.5t37.5 3.5l11 1l2 -6q-21 -135 -21 -410v-501q0 -265 21 -410l-4 -6q-35 6 -105 6q-32 0 -58.5 -1.5t-36.5 -2.5l-11 -2l-2 6q20 139 20 410v501zM342 1649q83 -101 207 -193l-33 -43q-124 58 -217 127 q-104 -76 -219 -127l-29 43q84 63 203 193h88z" />
<glyph unicode="&#xcf;" horiz-adv-x="600" d="M217 911q0 264 -20 410l4 6q35 -6 104 -6q32 0 58.5 1.5t37.5 3.5l11 1l2 -6q-21 -135 -21 -410v-501q0 -265 21 -410l-4 -6q-35 6 -105 6q-32 0 -58.5 -1.5t-36.5 -2.5l-11 -2l-2 6q20 139 20 410v501zM395 1536q0 40 29.5 69t69.5 29t69 -29t29 -69t-29 -69t-69 -29 t-69.5 29t-29.5 69zM8 1536q0 40 29 69t69 29t69.5 -29t29.5 -69t-29.5 -69t-69.5 -29t-69 29t-29 69z" />
<glyph unicode="&#xd0;" horiz-adv-x="1429" d="M383 168q0 -36 14.5 -51.5t61 -23t147.5 -7.5q94 0 166.5 11.5t142 44t115 86.5t73 143.5t27.5 210.5q0 100 -17 189.5t-58.5 176.5t-105.5 149.5t-165 101t-229 38.5q-42 0 -70 -3t-53 -11t-37 -25t-12 -43v-487h207v-80h-207v-420zM295 1321q65 0 169 3t169 3 q145 0 276 -55.5t225.5 -149t150.5 -222t56 -269.5q0 -105 -22.5 -193.5t-60 -153t-91 -115t-112.5 -82.5t-126.5 -53t-130.5 -29.5t-128 -8.5q-114 0 -212.5 2t-162.5 2q-32 0 -58.5 -1.5t-37.5 -2.5l-11 -2l-2 6q21 137 21 410v178h-172v80h172v243q0 265 -21 410l4 6 q35 -6 105 -6z" />
<glyph unicode="&#xd1;" horiz-adv-x="1423" d="M854 1520q36 0 59 22t43 84l50 -12q-37 -184 -179 -184q-52 0 -131 53q-76 45 -110 45q-39 0 -62 -23t-39 -75l-49 10q22 93 60.5 137.5t103.5 44.5t148 -57q58 -45 106 -45zM207 911q0 265 -21 410l4 6q35 -6 105 -6l29 4l702 -909l37 -50q45 -60 55 -64q8 -2 11.5 11.5 t3.5 51.5v546q0 256 -21 410l4 6q23 -6 72 -6q20 0 38 1.5t26 3.5l8 1l2 -6q-21 -135 -21 -410v-868q0 -63 -43 -63q-52 0 -88 49l-715 903l-33 41q-11 14 -21 21t-14.5 5.5t-7.5 -15.5t-3.5 -32t-0.5 -53v-489q0 -265 21 -410l-4 -6q-23 6 -72 6q-20 0 -38 -1.5t-26 -2.5 l-8 -2l-2 6q21 135 21 410v501z" />
<glyph unicode="&#xd2;" horiz-adv-x="1476" d="M707 1257q-61 0 -118.5 -19.5t-111 -64t-93 -110.5t-63.5 -167t-24 -226q0 -143 40 -259t107.5 -189.5t152.5 -112.5t179 -39q181 0 292.5 148.5t111.5 416.5q0 311 -125 466.5t-348 155.5zM1391 674q0 -203 -82 -361t-231.5 -245.5t-342.5 -87.5q-132 0 -250 46 t-206.5 129t-140.5 207.5t-52 272.5q0 198 85 361.5t233.5 257.5t328.5 94q184 0 333.5 -83t237 -238t87.5 -353zM633 1677l248 -172q30 -22 30 -43q0 -12 -9 -21t-21 -9q-31 0 -88 24l-316 129q59 59 156 92z" />
<glyph unicode="&#xd3;" horiz-adv-x="1476" d="M707 1257q-61 0 -118.5 -19.5t-111 -64t-93 -110.5t-63.5 -167t-24 -226q0 -143 40 -259t107.5 -189.5t152.5 -112.5t179 -39q181 0 292.5 148.5t111.5 416.5q0 311 -125 466.5t-348 155.5zM1391 674q0 -203 -82 -361t-231.5 -245.5t-342.5 -87.5q-132 0 -250 46 t-206.5 129t-140.5 207.5t-52 272.5q0 198 85 361.5t233.5 257.5t328.5 94q184 0 333.5 -83t237 -238t87.5 -353zM803 1679q84 -37 127 -106l-295 -119q-57 -24 -86 -24q-14 0 -22.5 9t-8.5 21q0 22 31 43z" />
<glyph unicode="&#xd4;" horiz-adv-x="1476" d="M707 1257q-61 0 -118.5 -19.5t-111 -64t-93 -110.5t-63.5 -167t-24 -226q0 -143 40 -259t107.5 -189.5t152.5 -112.5t179 -39q181 0 292.5 148.5t111.5 416.5q0 311 -125 466.5t-348 155.5zM1391 674q0 -203 -82 -361t-231.5 -245.5t-342.5 -87.5q-132 0 -250 46 t-206.5 129t-140.5 207.5t-52 272.5q0 198 85 361.5t233.5 257.5t328.5 94q184 0 333.5 -83t237 -238t87.5 -353zM764 1649q83 -101 207 -193l-33 -43q-128 59 -217 127q-104 -76 -219 -127l-29 43q84 63 203 193h88z" />
<glyph unicode="&#xd5;" horiz-adv-x="1476" d="M707 1257q-61 0 -118.5 -19.5t-111 -64t-93 -110.5t-63.5 -167t-24 -226q0 -143 40 -259t107.5 -189.5t152.5 -112.5t179 -39q181 0 292.5 148.5t111.5 416.5q0 311 -125 466.5t-348 155.5zM1391 674q0 -203 -82 -361t-231.5 -245.5t-342.5 -87.5q-132 0 -250 46 t-206.5 129t-140.5 207.5t-52 272.5q0 198 85 361.5t233.5 257.5t328.5 94q184 0 333.5 -83t237 -238t87.5 -353zM850 1520q36 0 59 22t43 84l49 -12q-36 -184 -178 -184q-52 0 -131 53q-76 45 -110 45q-39 0 -62 -23t-39 -75l-49 10q22 93 60.5 137.5t103.5 44.5 q64 0 147 -57q59 -45 107 -45z" />
<glyph unicode="&#xd6;" horiz-adv-x="1476" d="M707 1257q-61 0 -118.5 -19.5t-111 -64t-93 -110.5t-63.5 -167t-24 -226q0 -143 40 -259t107.5 -189.5t152.5 -112.5t179 -39q181 0 292.5 148.5t111.5 416.5q0 311 -125 466.5t-348 155.5zM1391 674q0 -203 -82 -361t-231.5 -245.5t-342.5 -87.5q-132 0 -250 46 t-206.5 129t-140.5 207.5t-52 272.5q0 198 85 361.5t233.5 257.5t328.5 94q184 0 333.5 -83t237 -238t87.5 -353zM233 1452q0 38 28 65t67 27q38 0 65 -27t27 -65t-27 -65t-65 -27q-39 0 -67 27t-28 65zM1053 1452q0 38 27 65t65 27t65 -27t27 -65t-27 -65t-65 -27t-65 27 t-27 65z" />
<glyph unicode="&#xd7;" horiz-adv-x="1079" d="M610 471l252 -250l-71 -71l-250 249l-250 -249l-74 71l252 250l-252 252l74 72l250 -252l250 252l71 -72z" />
<glyph unicode="&#xd8;" horiz-adv-x="1476" d="M182 -82l-69 53l157 193q-184 186 -184 471q0 198 85 361.5t233.5 257.5t328.5 94q225 0 397 -125l121 149l70 -49l-125 -156q93 -89 144 -215.5t51 -277.5q0 -203 -82 -361t-231.5 -245.5t-342.5 -87.5q-228 0 -399 126zM707 1257q-61 0 -118.5 -19.5t-111 -64 t-93 -110.5t-63.5 -167t-24 -226q0 -215 88 -365l657 811q-119 141 -335 141zM1094 1042l-658 -811q67 -79 155 -120t185 -41q181 0 292.5 148.5t111.5 416.5q0 254 -86 407z" />
<glyph unicode="&#xd9;" horiz-adv-x="1353" d="M1067 911q0 264 -20 410l4 6q22 -6 71 -6q20 0 38 1.5t26 3.5l8 1l2 -6q-20 -136 -20 -410v-307q0 -116 -13.5 -205.5t-48.5 -170.5t-92.5 -134t-149.5 -83.5t-215 -30.5q-62 0 -121.5 11.5t-126.5 46t-117 88t-83 146t-33 211.5v428q0 264 -20 410l4 6q35 -6 104 -6 q32 0 58.5 1.5t37.5 3.5l11 1l2 -6q-21 -135 -21 -410v-360q0 -35 1 -61.5t8 -78.5t19.5 -91t38.5 -86t61.5 -77.5t92 -51.5t127.5 -21q72 0 129.5 15.5t95.5 39.5t65 63.5t42 77.5t23 92t10 95.5t2 99.5v344zM565 1675l248 -172q31 -22 31 -43q0 -12 -9.5 -21t-21.5 -9 q-31 0 -88 24l-315 129q56 58 155 92z" />
<glyph unicode="&#xda;" horiz-adv-x="1353" d="M1067 911q0 264 -20 410l4 6q22 -6 71 -6q20 0 38 1.5t26 3.5l8 1l2 -6q-20 -136 -20 -410v-307q0 -116 -13.5 -205.5t-48.5 -170.5t-92.5 -134t-149.5 -83.5t-215 -30.5q-62 0 -121.5 11.5t-126.5 46t-117 88t-83 146t-33 211.5v428q0 264 -20 410l4 6q35 -6 104 -6 q32 0 58.5 1.5t37.5 3.5l11 1l2 -6q-21 -135 -21 -410v-360q0 -35 1 -61.5t8 -78.5t19.5 -91t38.5 -86t61.5 -77.5t92 -51.5t127.5 -21q72 0 129.5 15.5t95.5 39.5t65 63.5t42 77.5t23 92t10 95.5t2 99.5v344zM829 1677q85 -37 127 -106l-294 -119q-61 -25 -87 -25 q-13 0 -21.5 9.5t-8.5 21.5q0 22 30 43z" />
<glyph unicode="&#xdb;" horiz-adv-x="1353" d="M1067 911q0 264 -20 410l4 6q22 -6 71 -6q20 0 38 1.5t26 3.5l8 1l2 -6q-20 -136 -20 -410v-307q0 -116 -13.5 -205.5t-48.5 -170.5t-92.5 -134t-149.5 -83.5t-215 -30.5q-62 0 -121.5 11.5t-126.5 46t-117 88t-83 146t-33 211.5v428q0 264 -20 410l4 6q35 -6 104 -6 q32 0 58.5 1.5t37.5 3.5l11 1l2 -6q-21 -135 -21 -410v-360q0 -35 1 -61.5t8 -78.5t19.5 -91t38.5 -86t61.5 -77.5t92 -51.5t127.5 -21q72 0 129.5 15.5t95.5 39.5t65 63.5t42 77.5t23 92t10 95.5t2 99.5v344zM758 1649q83 -101 207 -193l-33 -43q-128 59 -217 127 q-102 -74 -219 -127l-29 43q84 63 203 193h88z" />
<glyph unicode="&#xdc;" horiz-adv-x="1353" d="M1067 911q0 264 -20 410l4 6q22 -6 71 -6q20 0 38 1.5t26 3.5l8 1l2 -6q-20 -136 -20 -410v-307q0 -116 -13.5 -205.5t-48.5 -170.5t-92.5 -134t-149.5 -83.5t-215 -30.5q-62 0 -121.5 11.5t-126.5 46t-117 88t-83 146t-33 211.5v428q0 264 -20 410l4 6q35 -6 104 -6 q32 0 58.5 1.5t37.5 3.5l11 1l2 -6q-21 -135 -21 -410v-360q0 -35 1 -61.5t8 -78.5t19.5 -91t38.5 -86t61.5 -77.5t92 -51.5t127.5 -21q72 0 129.5 15.5t95.5 39.5t65 63.5t42 77.5t23 92t10 95.5t2 99.5v344zM455 1452q0 38 27 65t65 27t65 -27t27 -65t-27 -65t-65 -27 t-65 27t-27 65zM791 1452q0 38 26.5 65t65.5 27q38 0 65 -27t27 -65t-27 -65t-65 -27q-39 0 -65.5 27t-26.5 65z" />
<glyph unicode="&#xdd;" horiz-adv-x="1210" d="M684 586q4 -450 16 -592q-32 6 -106 6q-72 0 -105 -6q15 129 15 569l-240 395q-174 283 -231 369q35 -6 117 -6q81 0 116 6l105 -195l137 -236l117 -200q236 374 358 631q25 -6 86 -6q59 0 86 6l-161 -245l-142 -216l-88 -140q-50 -82 -80 -140zM737 1679 q85 -37 127 -106l-295 -119q-57 -24 -86 -24q-13 0 -21.5 9t-8.5 21q0 22 30 43z" />
<glyph unicode="&#xde;" horiz-adv-x="1081" d="M195 911q0 256 -21 410l4 6q35 -6 105 -6q32 0 58.5 1.5t36.5 3.5l11 1l2 -6q-15 -104 -18 -248q71 4 178 4q109 0 193 -25.5t133.5 -64t81 -91t42.5 -99t11 -95.5t-15.5 -101t-52.5 -106.5t-91.5 -97t-140 -69.5t-190.5 -27q-103 0 -151 12q3 -184 20 -313l-4 -6 q-35 6 -104 6q-32 0 -58.5 -1.5t-37.5 -2.5l-11 -2l-2 6q21 146 21 410v501zM371 393q40 -8 141 -8q48 0 88 7.5t80.5 28.5t68 55t45 92t17.5 134q0 291 -262 291q-29 0 -87 -6.5t-91 -13.5v-62v-501v-17z" />
<glyph unicode="&#xdf;" horiz-adv-x="1095" d="M696 -20q-66 0 -133 21.5t-90 35.5l-2 6q8 14 14 29t8.5 22.5t8 32.5t8.5 35l22 2q19 -35 71 -72t93 -37q55 0 95 61.5t40 202.5q0 135 -83.5 260t-223.5 232v27q57 44 93 77.5t65.5 74t43 86t13.5 100.5q0 85 -40 134.5t-119 49.5q-52 0 -91.5 -17.5t-64 -52t-41 -74.5 t-24.5 -96t-10.5 -104t-2.5 -111v-495q0 -281 21 -410l-5 -6q-28 6 -98 6q-32 0 -57 -1.5t-34 -2.5l-9 -2l-2 6q20 123 20 410v346q0 18 -5 25t-19 7h-90q-13 0 -13 11v39q0 15 12 28t35 13q80 0 80 98q0 97 28 176.5t71.5 129.5t100 84.5t110.5 48.5t106 14 q76 0 136.5 -21.5t95.5 -56t53 -73t18 -77.5q0 -110 -56.5 -190t-176.5 -170v-4q58 -38 99 -69t91 -78.5t80.5 -94.5t52 -110t21.5 -132q0 -163 -88 -268.5t-228 -105.5z" />
<glyph unicode="&#xe0;" horiz-adv-x="944" d="M598 457l-164 -43q-105 -27 -143.5 -77.5t-38.5 -127.5q0 -51 36.5 -88t98.5 -37q68 0 176 88q29 20 29 53zM754 156q0 -64 32 -64q10 0 22 5.5t19 10.5t18.5 15t14.5 12l6 -4l33 -43q-46 -59 -88.5 -83.5t-91.5 -24.5q-34 0 -59 13.5t-37.5 34.5t-18.5 37.5t-8 32.5h-4 q-78 -70 -131.5 -94t-132.5 -24q-112 0 -177 55.5t-65 165.5q0 103 86.5 182t235.5 115l180 43q12 4 12 24q0 48 -7 86.5t-17.5 63t-26.5 43t-31 27.5t-35.5 14.5t-34.5 6.5t-32 1q-64 0 -125.5 -52.5t-106.5 -129.5l-26 2l-33 137l6 8q145 127 303 127q49 0 91.5 -7.5 t87.5 -30t76.5 -58t52 -96t20.5 -140.5q0 -6 -4 -191.5t-4 -219.5zM401 1374l144 -258q12 -24 12 -49q0 -8 -9.5 -15.5t-21.5 -7.5q-14 0 -59 41l-234 224l5 22q63 47 133 47q14 0 30 -4z" />
<glyph unicode="&#xe1;" horiz-adv-x="944" d="M598 457l-164 -43q-105 -27 -143.5 -77.5t-38.5 -127.5q0 -51 36.5 -88t98.5 -37q68 0 176 88q29 20 29 53zM754 156q0 -64 32 -64q10 0 22 5.5t19 10.5t18.5 15t14.5 12l6 -4l33 -43q-46 -59 -88.5 -83.5t-91.5 -24.5q-34 0 -59 13.5t-37.5 34.5t-18.5 37.5t-8 32.5h-4 q-78 -70 -131.5 -94t-132.5 -24q-112 0 -177 55.5t-65 165.5q0 103 86.5 182t235.5 115l180 43q12 4 12 24q0 48 -7 86.5t-17.5 63t-26.5 43t-31 27.5t-35.5 14.5t-34.5 6.5t-32 1q-64 0 -125.5 -52.5t-106.5 -129.5l-26 2l-33 137l6 8q145 127 303 127q49 0 91.5 -7.5 t87.5 -30t76.5 -58t52 -96t20.5 -140.5q0 -6 -4 -191.5t-4 -219.5zM500 1374q12 4 28 4q64 0 113 -47l6 -22l-235 -224q-39 -38 -62 -38q-11 0 -19.5 8t-8.5 18q0 11 3 20.5t5.5 14.5t13.5 22z" />
<glyph unicode="&#xe2;" horiz-adv-x="944" d="M598 457l-164 -43q-105 -27 -143.5 -77.5t-38.5 -127.5q0 -51 36.5 -88t98.5 -37q68 0 176 88q29 20 29 53zM754 156q0 -64 32 -64q10 0 22 5.5t19 10.5t18.5 15t14.5 12l6 -4l33 -43q-46 -59 -88.5 -83.5t-91.5 -24.5q-34 0 -59 13.5t-37.5 34.5t-18.5 37.5t-8 32.5h-4 q-78 -70 -131.5 -94t-132.5 -24q-112 0 -177 55.5t-65 165.5q0 103 86.5 182t235.5 115l180 43q12 4 12 24q0 48 -7 86.5t-17.5 63t-26.5 43t-31 27.5t-35.5 14.5t-34.5 6.5t-32 1q-64 0 -125.5 -52.5t-106.5 -129.5l-26 2l-33 137l6 8q145 127 303 127q49 0 91.5 -7.5 t87.5 -30t76.5 -58t52 -96t20.5 -140.5q0 -6 -4 -191.5t-4 -219.5zM492 1323q65 -105 206 -264l-43 -29q-144 108 -217 184q-96 -97 -219 -184l-41 29q149 165 211 264h103z" />
<glyph unicode="&#xe3;" horiz-adv-x="944" d="M598 457l-164 -43q-105 -27 -143.5 -77.5t-38.5 -127.5q0 -51 36.5 -88t98.5 -37q68 0 176 88q29 20 29 53zM754 156q0 -64 32 -64q10 0 22 5.5t19 10.5t18.5 15t14.5 12l6 -4l33 -43q-46 -59 -88.5 -83.5t-91.5 -24.5q-34 0 -59 13.5t-37.5 34.5t-18.5 37.5t-8 32.5h-4 q-78 -70 -131.5 -94t-132.5 -24q-112 0 -177 55.5t-65 165.5q0 103 86.5 182t235.5 115l180 43q12 4 12 24q0 48 -7 86.5t-17.5 63t-26.5 43t-31 27.5t-35.5 14.5t-34.5 6.5t-32 1q-64 0 -125.5 -52.5t-106.5 -129.5l-26 2l-33 137l6 8q145 127 303 127q49 0 91.5 -7.5 t87.5 -30t76.5 -58t52 -96t20.5 -140.5q0 -6 -4 -191.5t-4 -219.5zM580 1167q35 0 58 22.5t44 84.5l49 -12q-36 -185 -178 -185q-50 0 -131 53q-74 46 -111 46q-39 0 -62 -23.5t-38 -75.5l-49 10q22 93 60.5 138t103.5 45t147 -58q62 -45 107 -45z" />
<glyph unicode="&#xe4;" horiz-adv-x="944" d="M598 457l-164 -43q-105 -27 -143.5 -77.5t-38.5 -127.5q0 -51 36.5 -88t98.5 -37q68 0 176 88q29 20 29 53zM754 156q0 -64 32 -64q10 0 22 5.5t19 10.5t18.5 15t14.5 12l6 -4l33 -43q-46 -59 -88.5 -83.5t-91.5 -24.5q-34 0 -59 13.5t-37.5 34.5t-18.5 37.5t-8 32.5h-4 q-78 -70 -131.5 -94t-132.5 -24q-112 0 -177 55.5t-65 165.5q0 103 86.5 182t235.5 115l180 43q12 4 12 24q0 48 -7 86.5t-17.5 63t-26.5 43t-31 27.5t-35.5 14.5t-34.5 6.5t-32 1q-64 0 -125.5 -52.5t-106.5 -129.5l-26 2l-33 137l6 8q145 127 303 127q49 0 91.5 -7.5 t87.5 -30t76.5 -58t52 -96t20.5 -140.5q0 -6 -4 -191.5t-4 -219.5zM178 1174q0 38 28 66t66 28q39 0 67 -28t28 -66q0 -39 -28 -67t-67 -28q-38 0 -66 28t-28 67zM506 1174q0 38 28 66t66 28t66 -28t28 -66q0 -39 -28 -67t-66 -28t-66 28t-28 67z" />
<glyph unicode="&#xe5;" horiz-adv-x="944" d="M598 457l-164 -43q-105 -27 -143.5 -77.5t-38.5 -127.5q0 -51 36.5 -88t98.5 -37q68 0 176 88q29 20 29 53zM754 156q0 -64 32 -64q10 0 22 5.5t19 10.5t18.5 15t14.5 12l6 -4l33 -43q-46 -59 -88.5 -83.5t-91.5 -24.5q-34 0 -59 13.5t-37.5 34.5t-18.5 37.5t-8 32.5h-4 q-78 -70 -131.5 -94t-132.5 -24q-112 0 -177 55.5t-65 165.5q0 103 86.5 182t235.5 115l180 43q12 4 12 24q0 48 -7 86.5t-17.5 63t-26.5 43t-31 27.5t-35.5 14.5t-34.5 6.5t-32 1q-64 0 -125.5 -52.5t-106.5 -129.5l-26 2l-33 137l6 8q145 127 303 127q49 0 91.5 -7.5 t87.5 -30t76.5 -58t52 -96t20.5 -140.5q0 -6 -4 -191.5t-4 -219.5zM430 1307q-46 0 -74 -33.5t-28 -81.5q0 -45 28.5 -80t73.5 -35q46 0 74 34.5t28 80.5q0 48 -28.5 81.5t-73.5 33.5zM252 1192q0 70 53.5 120t124.5 50q72 0 125 -49.5t53 -120.5q0 -69 -52.5 -119.5 t-125.5 -50.5q-71 0 -124.5 50t-53.5 120z" />
<glyph unicode="&#xe6;" horiz-adv-x="1406" d="M606 440q-358 -32 -358 -223q0 -135 145 -135q59 0 114.5 33t76.5 90q22 68 22 235zM768 528q53 3 111 4t91.5 1t68 1.5t52.5 6t33.5 15t21 27.5t5.5 44q0 59 -41.5 119.5t-108.5 60.5q-97 0 -159 -74.5t-74 -204.5zM414 807q-63 0 -125 -52.5t-107 -129.5l-26 2l-33 137 l6 8q27 23 49.5 39t63 39.5t89.5 36t101 12.5q28 0 56 -3.5t72.5 -16t85.5 -44t67 -79.5q50 69 126.5 106t164.5 37q66 0 122 -21t91.5 -52.5t60 -69t35 -69t10.5 -54.5q0 -103 -53 -148q-34 -19 -90 -24.5t-188.5 -7.5t-225.5 -7q0 -163 69 -259.5t185 -96.5q131 0 252 139 l41 -57q-46 -85 -134 -138.5t-188 -53.5q-53 0 -98.5 11t-73 23t-56 36t-38.5 35.5t-29 35.5q-147 -141 -307 -141q-157 0 -233 59.5t-76 167.5q0 130 135 213.5t391 101.5q-2 151 -43 218t-149 67z" />
<glyph unicode="&#xe7;" horiz-adv-x="894" d="M477 -193q-52 0 -92 -12l-12 12l73 177q-168 20 -270 140.5t-102 301.5q0 85 26.5 160.5t72 132t104.5 97.5t125 62t133 21q71 0 146 -19t128 -46l4 -7l-47 -168l-27 -2q-42 71 -95.5 110.5t-111.5 39.5q-52 0 -101.5 -21.5t-91 -61.5t-66.5 -106t-25 -147 q0 -173 91 -277t216 -104q137 0 225 129h8l41 -33q-48 -100 -132.5 -152t-180.5 -54l-43 -113q24 6 53 6q63 0 104.5 -35t41.5 -92q0 -66 -62.5 -109t-156.5 -43q-71 0 -152 35q0 33 21 54q76 -29 118 -29q48 0 76.5 21.5t28.5 60.5q0 71 -68 71z" />
<glyph unicode="&#xe8;" horiz-adv-x="905" d="M256 588h371q28 0 28 28q0 105 -50 153t-116 48q-19 0 -39.5 -3t-52.5 -16.5t-58 -36.5t-49.5 -68t-33.5 -105zM811 215l41 -53q-61 -83 -152 -132.5t-198 -49.5q-203 0 -317.5 121.5t-114.5 306.5q0 112 38 207t99 155.5t134.5 94.5t147.5 34q78 0 140 -22t100.5 -57 t63.5 -84t35 -99t10 -105q0 -34 -37 -34h-551q0 -88 19.5 -158.5t50 -114t70.5 -73t78 -41t75 -11.5q162 0 268 115zM430 1374l143 -258q13 -24 13 -49q0 -8 -9.5 -15.5t-21.5 -7.5q-15 0 -59 41l-234 224l4 22q67 47 133 47q15 0 31 -4z" />
<glyph unicode="&#xe9;" horiz-adv-x="905" d="M256 588h371q28 0 28 28q0 105 -50 153t-116 48q-19 0 -39.5 -3t-52.5 -16.5t-58 -36.5t-49.5 -68t-33.5 -105zM811 215l41 -53q-61 -83 -152 -132.5t-198 -49.5q-203 0 -317.5 121.5t-114.5 306.5q0 112 38 207t99 155.5t134.5 94.5t147.5 34q78 0 140 -22t100.5 -57 t63.5 -84t35 -99t10 -105q0 -34 -37 -34h-551q0 -88 19.5 -158.5t50 -114t70.5 -73t78 -41t75 -11.5q162 0 268 115zM553 1374q12 4 29 4q63 0 112 -47l6 -22l-235 -224q-39 -38 -62 -38q-11 0 -19.5 8t-8.5 18q0 11 3 20.5t5.5 14.5t13.5 22z" />
<glyph unicode="&#xea;" horiz-adv-x="905" d="M256 588h371q28 0 28 28q0 105 -50 153t-116 48q-19 0 -39.5 -3t-52.5 -16.5t-58 -36.5t-49.5 -68t-33.5 -105zM811 215l41 -53q-61 -83 -152 -132.5t-198 -49.5q-203 0 -317.5 121.5t-114.5 306.5q0 112 38 207t99 155.5t134.5 94.5t147.5 34q78 0 140 -22t100.5 -57 t63.5 -84t35 -99t10 -105q0 -34 -37 -34h-551q0 -88 19.5 -158.5t50 -114t70.5 -73t78 -41t75 -11.5q162 0 268 115zM528 1323q66 -106 207 -264l-43 -29q-144 108 -217 184q-96 -97 -219 -184l-41 29q149 165 211 264h102z" />
<glyph unicode="&#xeb;" horiz-adv-x="905" d="M256 588h371q28 0 28 28q0 105 -50 153t-116 48q-19 0 -39.5 -3t-52.5 -16.5t-58 -36.5t-49.5 -68t-33.5 -105zM811 215l41 -53q-61 -83 -152 -132.5t-198 -49.5q-203 0 -317.5 121.5t-114.5 306.5q0 112 38 207t99 155.5t134.5 94.5t147.5 34q78 0 140 -22t100.5 -57 t63.5 -84t35 -99t10 -105q0 -34 -37 -34h-551q0 -88 19.5 -158.5t50 -114t70.5 -73t78 -41t75 -11.5q162 0 268 115zM211 1174q0 38 28 66t66 28t66 -28t28 -66q0 -39 -28 -67t-66 -28t-66 28t-28 67zM539 1174q0 38 28 66t66 28t66 -28t28 -66q0 -39 -28 -67t-66 -28 t-66 28t-28 67z" />
<glyph unicode="&#xec;" horiz-adv-x="548" d="M225 1374l144 -258q12 -24 12 -49q0 -8 -9.5 -15.5t-21.5 -7.5q-14 0 -59 41l-234 224l4 22q67 47 134 47q14 0 30 -4zM193 481q0 245 -21 361l4 6q23 2 44 5.5t42 10.5l32 10q11 3 35 13l29 12q19 0 19 -20q-21 -154 -21 -365v-145q0 -224 21 -369l-4 -6q-29 6 -99 6 q-32 0 -57 -1.5t-34 -2.5l-9 -2l-2 6q21 146 21 369v112z" />
<glyph unicode="&#xed;" horiz-adv-x="548" d="M356 1374q12 4 29 4q64 0 113 -47l6 -22l-236 -224q-38 -38 -61 -38q-11 0 -20 8t-9 18q0 16 4 25.5t19 31.5zM193 481q0 245 -21 361l4 6q23 2 44 5.5t42 10.5l32 10q11 3 35 13l29 12q19 0 19 -20q-21 -154 -21 -365v-145q0 -224 21 -369l-4 -6q-29 6 -99 6 q-32 0 -57 -1.5t-34 -2.5l-9 -2l-2 6q21 146 21 369v112z" />
<glyph unicode="&#xee;" horiz-adv-x="548" d="M330 1323q67 -109 207 -264l-43 -29q-148 111 -218 184q-92 -94 -219 -184l-41 29q149 165 211 264h103zM193 481q0 245 -21 361l4 6q23 2 44 5.5t42 10.5l32 10q11 3 35 13l29 12q19 0 19 -20q-21 -154 -21 -365v-145q0 -224 21 -369l-4 -6q-29 6 -99 6q-32 0 -57 -1.5 t-34 -2.5l-9 -2l-2 6q21 146 21 369v112z" />
<glyph unicode="&#xef;" horiz-adv-x="548" d="M23 1174q0 38 28 66t66 28t66 -28t28 -66q0 -39 -28 -67t-66 -28t-66 28t-28 67zM350 1174q0 38 28 66t66 28q39 0 67 -28t28 -66q0 -39 -28 -67t-67 -28q-38 0 -66 28t-28 67zM193 481q0 245 -21 361l4 6q23 2 44 5.5t42 10.5l32 10q11 3 35 13l29 12q19 0 19 -20 q-21 -154 -21 -365v-145q0 -224 21 -369l-4 -6q-29 6 -99 6q-32 0 -57 -1.5t-34 -2.5l-9 -2l-2 6q21 146 21 369v112z" />
<glyph unicode="&#xf0;" horiz-adv-x="1013" d="M516 63q32 0 62 8.5t63 35t57 68t40 114.5t16 168q0 151 -33 272q-69 86 -209 86q-74 0 -127 -32.5t-80 -87.5t-39 -112.5t-12 -121.5q0 -173 76 -285.5t186 -112.5zM70 426q0 101 30.5 184.5t78 135.5t108 88t118 50.5t111.5 14.5q88 0 158 -29q-61 148 -185 301 l-223 -149l-45 65l215 146l-33 33q-49 52 -145 118l39 46q103 -56 217 -146l217 146l45 -66l-198 -133l36 -37q320 -315 320 -709q0 -125 -38 -224t-102.5 -159t-144 -91t-168.5 -31q-92 0 -171 39.5t-130.5 103.5t-80.5 143t-29 160z" />
<glyph unicode="&#xf1;" horiz-adv-x="1071" d="M897 369q0 -240 21 -369l-5 -6q-28 6 -98 6q-32 0 -57 -1.5t-34 -2.5l-9 -2l-2 6q20 123 20 369v200q0 115 -25.5 163t-103.5 48q-73 0 -133.5 -32t-134.5 -119v-260q0 -223 20 -369l-4 -6q-28 6 -98 6q-32 0 -57 -1.5t-34 -2.5l-9 -2l-2 6q20 139 20 369v112 q0 251 -20 361l4 6q29 2 56.5 8.5t41 11t42.5 16.5l36 15q18 0 18 -20l-18 -148h4q89 105 162.5 136.5t167.5 31.5q67 0 113.5 -24t71.5 -70t35.5 -101.5t10.5 -128.5v-206zM700 1167q36 0 59 22.5t44 84.5l49 -12q-38 -185 -178 -185q-50 0 -131 53q-74 46 -111 46 q-39 0 -62 -23.5t-38 -75.5l-49 10q22 93 60.5 138t102.5 45q66 0 148 -58q62 -45 106 -45z" />
<glyph unicode="&#xf2;" horiz-adv-x="1044" d="M74 420q0 211 126 345t326 134q93 0 169.5 -27.5t126.5 -73t84.5 -106.5t49.5 -124.5t15 -129.5q0 -84 -29.5 -164.5t-84.5 -146.5t-142 -106.5t-193 -40.5q-102 0 -188 37t-142 98.5t-87 140.5t-31 164zM512 815q-64 0 -113.5 -29t-79.5 -78.5t-45.5 -110.5t-15.5 -130 q0 -64 16.5 -130.5t49.5 -130t92 -103.5t135 -40q30 0 60 8.5t62.5 31.5t56.5 57.5t40 92t16 130.5q0 432 -274 432zM479 1374l144 -258q12 -24 12 -49q0 -8 -9.5 -15.5t-21.5 -7.5q-14 0 -59 41l-234 224l4 22q67 47 134 47q14 0 30 -4z" />
<glyph unicode="&#xf3;" horiz-adv-x="1044" d="M74 420q0 211 126 345t326 134q93 0 169.5 -27.5t126.5 -73t84.5 -106.5t49.5 -124.5t15 -129.5q0 -84 -29.5 -164.5t-84.5 -146.5t-142 -106.5t-193 -40.5q-102 0 -188 37t-142 98.5t-87 140.5t-31 164zM512 815q-64 0 -113.5 -29t-79.5 -78.5t-45.5 -110.5t-15.5 -130 q0 -64 16.5 -130.5t49.5 -130t92 -103.5t135 -40q30 0 60 8.5t62.5 31.5t56.5 57.5t40 92t16 130.5q0 432 -274 432zM573 1374q14 4 29 4q64 0 113 -47l6 -22l-236 -224q-38 -38 -61 -38q-11 0 -20 8t-9 18q0 16 4 25.5t19 31.5z" />
<glyph unicode="&#xf4;" horiz-adv-x="1044" d="M74 420q0 211 126 345t326 134q93 0 169.5 -27.5t126.5 -73t84.5 -106.5t49.5 -124.5t15 -129.5q0 -84 -29.5 -164.5t-84.5 -146.5t-142 -106.5t-193 -40.5q-102 0 -188 37t-142 98.5t-87 140.5t-31 164zM512 815q-64 0 -113.5 -29t-79.5 -78.5t-45.5 -110.5t-15.5 -130 q0 -64 16.5 -130.5t49.5 -130t92 -103.5t135 -40q30 0 60 8.5t62.5 31.5t56.5 57.5t40 92t16 130.5q0 432 -274 432zM567 1323q70 -113 207 -264l-43 -29q-144 108 -217 184q-96 -97 -219 -184l-41 29q149 165 211 264h102z" />
<glyph unicode="&#xf5;" horiz-adv-x="1044" d="M74 420q0 211 126 345t326 134q93 0 169.5 -27.5t126.5 -73t84.5 -106.5t49.5 -124.5t15 -129.5q0 -84 -29.5 -164.5t-84.5 -146.5t-142 -106.5t-193 -40.5q-102 0 -188 37t-142 98.5t-87 140.5t-31 164zM512 815q-64 0 -113.5 -29t-79.5 -78.5t-45.5 -110.5t-15.5 -130 q0 -64 16.5 -130.5t49.5 -130t92 -103.5t135 -40q30 0 60 8.5t62.5 31.5t56.5 57.5t40 92t16 130.5q0 432 -274 432zM643 1167q36 0 59 22.5t43 84.5l50 -12q-38 -185 -179 -185q-50 0 -131 53q-72 46 -110 46q-39 0 -62 -23.5t-39 -75.5l-49 10q22 93 61 138t103 45 q66 0 148 -58q60 -45 106 -45z" />
<glyph unicode="&#xf6;" horiz-adv-x="1044" d="M74 420q0 211 126 345t326 134q93 0 169.5 -27.5t126.5 -73t84.5 -106.5t49.5 -124.5t15 -129.5q0 -84 -29.5 -164.5t-84.5 -146.5t-142 -106.5t-193 -40.5q-102 0 -188 37t-142 98.5t-87 140.5t-31 164zM512 815q-64 0 -113.5 -29t-79.5 -78.5t-45.5 -110.5t-15.5 -130 q0 -64 16.5 -130.5t49.5 -130t92 -103.5t135 -40q30 0 60 8.5t62.5 31.5t56.5 57.5t40 92t16 130.5q0 432 -274 432zM258 1174q0 38 28 66t66 28t66 -28t28 -66q0 -39 -28 -67t-66 -28t-66 28t-28 67zM586 1174q0 38 28 66t66 28t66 -28t28 -66q0 -39 -28 -67t-66 -28 t-66 28t-28 67z" />
<glyph unicode="&#xf7;" horiz-adv-x="1079" d="M446 752v6q13 35 34.5 57t60.5 37h6q37 -14 58.5 -35.5t33.5 -58.5v-6q-14 -42 -34.5 -63.5t-57.5 -29.5h-6q-41 8 -61.5 28.5t-33.5 64.5zM446 203v6q13 35 34.5 57.5t60.5 36.5h6q37 -14 58.5 -35.5t33.5 -58.5v-6q-14 -42 -34.5 -63.5t-57.5 -28.5h-6 q-41 7 -61.5 27.5t-33.5 64.5zM944 526v-100h-809v100h809z" />
<glyph unicode="&#xf8;" horiz-adv-x="1044" d="M868 930l64 -47l-88 -107q64 -64 95.5 -153.5t31.5 -184.5q0 -84 -29.5 -164.5t-84.5 -146.5t-142 -106.5t-193 -40.5q-153 0 -266 79l-96 -116l-62 53l97 117q-121 127 -121 307q0 211 126 345t326 134q154 0 258 -72zM512 815q-64 0 -113.5 -29t-79.5 -78.5 t-45.5 -110.5t-15.5 -130q0 -117 47 -221l397 483q-69 86 -190 86zM745 655l-397 -483q78 -109 203 -109q30 0 60 8.5t62.5 31.5t56.5 57.5t40 92t16 130.5q0 170 -41 272z" />
<glyph unicode="&#xf9;" horiz-adv-x="1067" d="M717 131q-81 -86 -147 -118.5t-136 -32.5q-73 0 -126 23t-81.5 63.5t-41.5 88t-13 103.5v252q0 239 -20 369l4 6q28 -6 98 -6q32 0 57 1.5t34 3.5l9 1l2 -6q-20 -121 -20 -369v-203q0 -65 14.5 -110t39 -66.5t48 -30t49.5 -8.5q104 0 230 152v266q0 240 -21 369l4 6 q29 -6 99 -6q32 0 57 1.5t34 3.5l9 1l2 -6q-20 -121 -20 -369v-117q0 -206 34 -393l-4 -6q-39 6 -92 6q-30 0 -69 -6q-19 0 -19 6l-10 131h-4zM467 1374l143 -258q13 -24 13 -49q0 -8 -9.5 -15.5t-21.5 -7.5q-15 0 -60 41l-233 224l4 22q63 47 133 47q15 0 31 -4z" />
<glyph unicode="&#xfa;" horiz-adv-x="1067" d="M717 131q-81 -86 -147 -118.5t-136 -32.5q-73 0 -126 23t-81.5 63.5t-41.5 88t-13 103.5v252q0 239 -20 369l4 6q28 -6 98 -6q32 0 57 1.5t34 3.5l9 1l2 -6q-20 -121 -20 -369v-203q0 -65 14.5 -110t39 -66.5t48 -30t49.5 -8.5q104 0 230 152v266q0 240 -21 369l4 6 q29 -6 99 -6q32 0 57 1.5t34 3.5l9 1l2 -6q-20 -121 -20 -369v-117q0 -206 34 -393l-4 -6q-39 6 -92 6q-30 0 -69 -6q-19 0 -19 6l-10 131h-4zM627 1374q12 4 28 4q64 0 113 -47l6 -22l-235 -224q-39 -38 -62 -38q-11 0 -19.5 8t-8.5 18q0 11 3 20.5t5.5 14.5t13.5 22z" />
<glyph unicode="&#xfb;" horiz-adv-x="1067" d="M717 131q-81 -86 -147 -118.5t-136 -32.5q-73 0 -126 23t-81.5 63.5t-41.5 88t-13 103.5v252q0 239 -20 369l4 6q28 -6 98 -6q32 0 57 1.5t34 3.5l9 1l2 -6q-20 -121 -20 -369v-203q0 -65 14.5 -110t39 -66.5t48 -30t49.5 -8.5q104 0 230 152v266q0 240 -21 369l4 6 q29 -6 99 -6q32 0 57 1.5t34 3.5l9 1l2 -6q-20 -121 -20 -369v-117q0 -206 34 -393l-4 -6q-39 6 -92 6q-30 0 -69 -6q-19 0 -19 6l-10 131h-4zM575 1323q66 -106 207 -264l-43 -29q-144 108 -217 184q-96 -97 -219 -184l-41 29q149 165 211 264h102z" />
<glyph unicode="&#xfc;" horiz-adv-x="1067" d="M279 1174q0 38 28 66t66 28t66 -28t28 -66q0 -39 -28 -67t-66 -28t-66 28t-28 67zM606 1174q0 38 28 66t66 28q39 0 67 -28t28 -66q0 -39 -28 -67t-67 -28q-38 0 -66 28t-28 67zM717 131q-81 -86 -147 -118.5t-136 -32.5q-73 0 -126 23t-81.5 63.5t-41.5 88t-13 103.5 v252q0 239 -20 369l4 6q28 -6 98 -6q32 0 57 1.5t34 3.5l9 1l2 -6q-20 -121 -20 -369v-203q0 -65 14.5 -110t39 -66.5t48 -30t49.5 -8.5q104 0 230 152v266q0 240 -21 369l4 6q29 -6 99 -6q32 0 57 1.5t34 3.5l9 1l2 -6q-20 -121 -20 -369v-117q0 -206 34 -393l-4 -6 q-39 6 -92 6q-30 0 -69 -6q-19 0 -19 6l-10 131h-4z" />
<glyph unicode="&#xfd;" horiz-adv-x="995" d="M37 885q29 -6 106 -6q74 0 101 6l25 -75l29 -82l26 -74l32 -81l30 -73l34 -83l30 -75l35 -84l33 -78h4q138 294 269 705q20 -6 79 -6q68 0 88 6q-92 -187 -317.5 -696t-275.5 -674q-35 10 -101 10q-38 0 -71 -10q132 219 229 446q-53 140 -186 459zM608 1374q12 4 29 4 q63 0 113 -47l6 -22l-236 -224q-39 -38 -61 -38q-11 0 -20 8t-9 18q0 16 4 25.5t19 31.5z" />
<glyph unicode="&#xfe;" horiz-adv-x="1054" d="M334 627v-480q72 -88 174 -88q78 0 133 31.5t83 86.5t40 115.5t12 133.5q0 106 -22 183t-57.5 115t-71.5 54.5t-74 16.5q-58 0 -121.5 -45.5t-95.5 -122.5zM334 -66q0 -279 20 -409l-4 -6q-28 6 -98 6q-32 0 -57 -1.5t-34 -3.5l-9 -1l-2 6q20 122 20 409v1053 q0 275 -20 385l4 6q24 2 44.5 5t43.5 11l30 10q9 3 35 14t29 12q18 0 18 -21q-20 -156 -20 -385v-221l-2 -68q38 63 108 113.5t164 50.5q97 0 183 -59.5t136 -156t50 -202.5q0 -111 -37.5 -206.5t-100.5 -159t-145.5 -99.5t-171.5 -36q-102 0 -184 45v-91z" />
<glyph unicode="&#xff;" horiz-adv-x="995" d="M37 885q29 -6 106 -6q74 0 101 6l25 -75l29 -82l26 -74l32 -81l30 -73l34 -83l30 -75l35 -84l33 -78h4q138 294 269 705q20 -6 79 -6q68 0 88 6q-92 -187 -317.5 -696t-275.5 -674q-35 10 -101 10q-38 0 -71 -10q132 219 229 446q-53 140 -186 459zM258 1174q0 38 28 66 t66 28t66 -28t28 -66q0 -39 -28 -67t-66 -28t-66 28t-28 67zM586 1174q0 38 28 66t66 28t66 -28t28 -66q0 -39 -28 -67t-66 -28t-66 28t-28 67z" />
<glyph unicode="&#x152;" horiz-adv-x="1716" d="M713 76h26q60 0 82.5 18.5t22.5 63.5v1007q0 47 -22 61.5t-83 14.5h-71q-62 0 -115 -17t-101 -58.5t-82 -105t-53.5 -163t-19.5 -227.5q0 -153 35 -270.5t94.5 -186.5t132 -103t154.5 -34zM932 0l-215 -4q-188 1 -333 88t-221.5 235t-76.5 332q0 186 71.5 337.5 t211.5 243t325 91.5q146 -2 238 -2h538q75 0 123 6l4 -6q-4 -58 -4 -64q0 -19 4 -53l-4 -8q-283 25 -557 25q-16 -57 -16 -310v-168q203 0 457 21l6 -6q-6 -28 -6 -58q0 -28 6 -57l-6 -6q-203 20 -457 20v-247q0 -243 16 -299q122 0 266.5 6t227.5 12l84 6l4 -8 q-4 -32 -4 -68q0 -1 4 -59l-4 -6q-50 6 -123 6h-559z" />
<glyph unicode="&#x153;" horiz-adv-x="1587" d="M942 588h371q28 0 28 28q0 55 -15 96t-40.5 63t-52.5 32t-57 10q-20 0 -40 -3t-52.5 -16.5t-58.5 -36.5t-49.5 -68t-33.5 -105zM1497 215l41 -53q-61 -83 -152 -132.5t-198 -49.5q-121 0 -213 45.5t-146 126.5q-39 -58 -78 -92.5t-105.5 -57t-160.5 -22.5 q-191 0 -303 124t-112 318q0 116 36.5 208.5t98 150t139 88t164.5 30.5q74 0 131 -14.5t96 -42.5t63.5 -56.5t49.5 -70.5q62 87 150 135.5t178 48.5q78 0 139.5 -22t100 -57t63.5 -84t35 -99t10 -105q0 -34 -37 -34h-551q0 -88 19.5 -158.5t50 -114t70.5 -73t78 -41 t75 -11.5q162 0 268 115zM254 485q0 -88 15 -162.5t45 -134t81.5 -93.5t118.5 -34q41 0 78.5 14.5t75.5 49.5t61 108t23 175q0 90 -17 163t-43.5 118t-60.5 75.5t-65 42.5t-60 12q-62 0 -112 -32t-79.5 -82.5t-45 -107t-15.5 -112.5z" />
<glyph unicode="&#x178;" horiz-adv-x="1210" d="M684 586q4 -450 16 -592q-32 6 -106 6q-72 0 -105 -6q15 129 15 569l-240 395q-174 283 -231 369q35 -6 117 -6q81 0 116 6l105 -195l137 -236l117 -200q236 374 358 631q25 -6 86 -6q59 0 86 6l-161 -245l-142 -216l-88 -140q-50 -82 -80 -140zM367 1538q0 38 28 66 t66 28t66 -28t28 -66t-28 -66t-66 -28t-66 28t-28 66zM694 1538q0 38 28 66t66 28q39 0 67 -28t28 -66t-28 -66t-67 -28q-38 0 -66 28t-28 66z" />
<glyph unicode="&#x2c6;" horiz-adv-x="714" d="M416 1368q67 -109 207 -264l-43 -29q-148 111 -218 185q-91 -95 -219 -185l-41 29q149 165 211 264h103z" />
<glyph unicode="&#x2dc;" horiz-adv-x="598" d="M428 1266q36 0 59 22t43 84l50 -12q-37 -184 -179 -184q-52 0 -131 53q-76 45 -110 45q-39 0 -62 -23t-39 -75l-49 10q22 93 60.5 137.5t103.5 44.5t148 -57q58 -45 106 -45z" />
<glyph unicode="&#x2000;" horiz-adv-x="839" />
<glyph unicode="&#x2001;" horiz-adv-x="1679" />
<glyph unicode="&#x2002;" horiz-adv-x="839" />
<glyph unicode="&#x2003;" horiz-adv-x="1679" />
<glyph unicode="&#x2004;" horiz-adv-x="559" />
<glyph unicode="&#x2005;" horiz-adv-x="419" />
<glyph unicode="&#x2006;" horiz-adv-x="279" />
<glyph unicode="&#x2007;" horiz-adv-x="279" />
<glyph unicode="&#x2008;" horiz-adv-x="209" />
<glyph unicode="&#x2009;" horiz-adv-x="335" />
<glyph unicode="&#x200a;" horiz-adv-x="93" />
<glyph unicode="&#x2010;" horiz-adv-x="681" d="M561 483h-463q-13 0 -21.5 10.5t-8.5 24.5q0 25 16.5 50.5t34.5 25.5h469q28 0 28 -37q0 -19 -18 -46.5t-37 -27.5z" />
<glyph unicode="&#x2011;" horiz-adv-x="681" d="M561 483h-463q-13 0 -21.5 10.5t-8.5 24.5q0 25 16.5 50.5t34.5 25.5h469q28 0 28 -37q0 -19 -18 -46.5t-37 -27.5z" />
<glyph unicode="&#x2013;" horiz-adv-x="1093" d="M121 487q-29 0 -29 35q0 20 18 43t35 23h828q28 0 28 -35q0 -20 -17 -43t-36 -23h-827z" />
<glyph unicode="&#x2014;" horiz-adv-x="1519" d="M59 588h1401v-101h-1401v101z" />
<glyph unicode="&#x2018;" horiz-adv-x="548" d="M399 1143v-8q-14 -41 -39 -66.5t-71 -44.5h-8q-62 23 -96.5 72.5t-34.5 142.5q0 102 73 175t172 91q21 -17 11 -51q-74 -19 -125.5 -72t-51.5 -90q0 -24 10.5 -36.5t21 -14.5t28.5 -2q52 -11 74.5 -29t35.5 -67z" />
<glyph unicode="&#x2019;" horiz-adv-x="548" d="M150 1325v8q13 42 38.5 67t71.5 44h8q62 -23 96.5 -72.5t34.5 -142.5q0 -102 -73.5 -175t-171.5 -91q-21 17 -11 51q74 18 125 71t51 91q0 33 -16 43t-43 10q-51 11 -74 29.5t-36 66.5z" />
<glyph unicode="&#x201a;" horiz-adv-x="548" d="M150 90v8q14 41 39 66.5t71 44.5h8q62 -23 96.5 -72.5t34.5 -142.5q0 -102 -73.5 -175t-171.5 -91q-21 17 -11 51q74 18 125 71t51 91q0 24 -10 36.5t-20.5 14.5t-28.5 2q-52 12 -74.5 29.5t-35.5 66.5z" />
<glyph unicode="&#x201c;" horiz-adv-x="768" d="M670 1145v-8q-14 -42 -39 -67t-72 -44h-8q-62 23 -96.5 72.5t-34.5 142.5q0 102 73.5 175t172.5 91q20 -17 10 -51q-74 -18 -125 -71t-51 -91q0 -33 16 -43t43 -10q51 -11 74 -29.5t37 -66.5zM348 1145v-8q-13 -42 -38.5 -67t-71.5 -44h-9q-131 48 -131 215 q0 102 73.5 175t172.5 91q20 -17 10 -51q-73 -18 -124.5 -71.5t-51.5 -90.5q0 -53 60 -53q51 -11 74 -29.5t36 -66.5z" />
<glyph unicode="&#x201d;" horiz-adv-x="768" d="M100 1325v8q14 42 39.5 67t71.5 44h8q62 -23 96.5 -72.5t34.5 -142.5q0 -103 -73.5 -175.5t-172.5 -90.5q-20 17 -10 51q74 18 125 71t51 91q0 33 -16 43t-43 10q-52 11 -74.5 29.5t-36.5 66.5zM422 1325v8q13 42 38.5 67t71.5 44h9q131 -48 131 -215 q0 -103 -73.5 -175.5t-172.5 -90.5q-20 17 -10 51q73 18 124.5 71.5t51.5 90.5q0 53 -60 53q-51 11 -74 29.5t-36 66.5z" />
<glyph unicode="&#x201e;" horiz-adv-x="768" d="M100 88v8q14 42 39.5 67t71.5 44h8q62 -23 96.5 -72.5t34.5 -142.5q0 -102 -73.5 -175t-172.5 -91q-20 17 -10 51q74 18 125 71t51 91q0 33 -16 43t-43 10q-52 11 -74.5 29.5t-36.5 66.5zM422 88v8q13 42 38.5 67t71.5 44h9q131 -48 131 -215q0 -102 -73.5 -175 t-172.5 -91q-20 17 -10 51q73 18 124.5 71.5t51.5 90.5q0 53 -60 53q-51 11 -74 29.5t-36 66.5z" />
<glyph unicode="&#x2022;" horiz-adv-x="718" d="M127 471q0 97 68 165.5t165 68.5t165.5 -68.5t68.5 -165.5t-68.5 -165t-165.5 -68t-165 68t-68 165z" />
<glyph unicode="&#x2026;" horiz-adv-x="1533" d="M111 90v8q14 41 39 66.5t71 44.5h8q45 -16 71.5 -42t39.5 -69v-8q-16 -49 -41.5 -74t-69.5 -36h-8q-48 11 -72.5 34.5t-37.5 75.5zM653 90v8q14 41 39.5 67t71.5 44h8q45 -16 71 -42t40 -69v-8q-16 -48 -42 -73.5t-69 -36.5h-8q-48 11 -72.5 34.5t-38.5 75.5zM1194 90v8 q14 41 39.5 66.5t71.5 44.5h8q45 -16 71 -42t39 -69v-8q-15 -48 -41 -73.5t-69 -36.5h-8q-49 11 -73.5 34.5t-37.5 75.5z" />
<glyph unicode="&#x202f;" horiz-adv-x="335" />
<glyph unicode="&#x2039;" horiz-adv-x="727" d="M590 881v-111q-148 -209 -287 -330q127 -101 287 -327v-111q-249 290 -451 399v80q215 148 451 400z" />
<glyph unicode="&#x203a;" horiz-adv-x="727" d="M139 0v111q151 210 287 329q-128 103 -287 328v111q249 -289 451 -400v-80q-213 -146 -451 -399z" />
<glyph unicode="&#x205f;" horiz-adv-x="419" />
<glyph unicode="&#x20ac;" horiz-adv-x="897" d="M29 631l2 20l39 49h41q31 223 149.5 353.5t296.5 130.5q57 0 107 -9t81.5 -22t54.5 -26t32 -22l10 -9l4 -6q-6 -25 -15 -56t-12 -43t-6.5 -37t-5.5 -61l-21 -2q-36 88 -63.5 128.5t-72.5 60.5t-122 20q-40 0 -79 -23.5t-74 -70.5t-61 -126t-35 -180h460l-37 -69h-428v-41 q0 -43 2 -64h392l-37 -69h-350q12 -110 41.5 -193.5t87 -137.5t137.5 -54q105 0 150.5 37t107.5 163l20 -2q2 -36 5.5 -60.5t7.5 -37.5l11 -42l15 -56l-4 -6q-5 -4 -13.5 -9.5t-37.5 -21t-60 -27t-78.5 -21t-95.5 -9.5q-213 0 -329 129t-137 348h-109v18l41 51h61v37 q0 45 2 68h-75z" />
<glyph unicode="&#x2122;" horiz-adv-x="1628" d="M424 698q0 -49 61 -49h29q10 0 10 -10v-27l-2 -2q-129 2 -170 2l-168 -2l-2 2v27q0 10 11 10h28q34 0 49 11t15 38v543q0 24 -6.5 32.5t-22.5 8.5h-104q-34 0 -49 -18.5t-31 -85.5l-45 12l39 184l49 -16q-1 -2 -2 -8t-2 -10.5t-2 -4.5h477q-1 0 -2 4.5t-2 10.5t-2 8 l51 16l39 -186l-47 -10q-18 68 -33 86t-49 18h-88q-17 0 -23 -8.5t-6 -34.5v-541zM1380 705l-34 403l-203 -498q-7 -20 -33 -20q-24 0 -35 20l-205 488q-16 -260 -28 -396v-12q0 -47 14 -47h31q35 0 35 -14v-17l-7 -12q-79 4 -124 4l-97 -4l-10 12v17q0 14 37 14h29 q13 0 22 62q6 85 20.5 269.5t20.5 274.5v6v5q0 34 -18 34h-33q-35 3 -35 13v16l10 12h183l229 -542l219 542h168l6 -12v-16q0 -13 -35 -13h-30q-19 0 -19 -32v-13l47 -544q4 -31 9 -46.5t16 -15.5h29q38 0 38 -14v-17l-12 -12q-90 4 -133 4l-135 -4l-12 12v17q0 14 34 14h29 q12 0 12 47v15z" />
</font>
</defs>
</svg>
