<?xml version="1.0" encoding="utf-8"?>
<!-- Generator: Adobe Illustrator 14.0.0, SVG Export Plug-In  -->
<!DOCTYPE svg PUBLIC "-//W3C//DTD SVG 1.1//EN" "http://www.w3.org/Graphics/SVG/1.1/DTD/svg11.dtd" [
	<!ENTITY ns_flows "http://ns.adobe.com/Flows/1.0/">
]>
<svg version="1.1"
	 xmlns="http://www.w3.org/2000/svg" xmlns:xlink="http://www.w3.org/1999/xlink" xmlns:a="http://ns.adobe.com/AdobeSVGViewerExtensions/3.0/"
	 x="0px" y="0px" width="150px" height="150px" viewBox="-29.54 -4.649 150 150" enable-background="new -29.54 -4.649 150 150"
	 xml:space="preserve">
<defs>
</defs>
<g id="XMLID_3_">
	<g>
		<path fill="#004147" d="M44.905,120.854c1.02,3.451,3.74,4.218,7.19,4.076c-2.46-8.732-3.56-13.355,5.82-23.643
			c-2,0.109-4,0.449-5.9,0.821c-2.16,0.417-6.21,1.052-7.67,3.167c-2.23,3.243-0.22,10.288,0.23,13.947
			C44.645,119.825,44.765,120.361,44.905,120.854z"/>
		<path fill="#422B14" d="M52.095,124.93c-3.45,0.143-6.17-0.625-7.19-4.076c0.11,1.293,0.38,2.641,0.91,4.021
			c1.66,4.338,5.93,6.125,9.44,5.368c3.48-0.745,7.11-0.789,8.63-4.492c0.6-1.468,1.18-5.708,0.77-8.655
			c-1.85,4.152-4.96,6.979-10.43,7.636C53.484,124.821,52.774,124.886,52.095,124.93z"/>
		<path fill="#00575F" d="M54.225,124.733c5.47-0.657,8.58-3.484,10.43-7.636c1.08-2.432,1.73-5.336,2.16-8.502
			c0.65-4.821-0.01-6.453-4.68-7.166c-1.38-0.208-2.8-0.23-4.22-0.142c-9.38,10.288-8.28,14.911-5.82,23.643
			C52.774,124.886,53.484,124.821,54.225,124.733z"/>
	</g>
	<g>
	</g>
</g>
<g id="XMLID_2_">
	<g>
		<path fill="#00575F" d="M44.733,129.999c-1.65,1.968-4.32,2.144-7.4,1.768c-5.83-6.418-7.12-17.876-5.82-26.965
			c2.5-0.013,5.05,0.477,7.45,1.003c2.16,0.477,6.21,1.204,7.67,3.623c2.23,3.71,0.22,11.771-0.23,15.958
			C46.173,127.517,45.593,129.009,44.733,129.999z"/>
		<path fill="#422B14" d="M37.333,131.767c3.08,0.376,5.75,0.201,7.4-1.768c-0.13,0.577-0.29,1.153-0.49,1.743
			c-1.66,4.964-5.93,7.008-9.44,6.143c-3.48-0.853-7.11-0.902-8.63-5.14c-0.71-1.981-1.39-8.349-0.44-11.533
			c1.74,5.691,4.91,9.64,11.02,10.48C36.943,131.717,37.143,131.742,37.333,131.767z"/>
		<path fill="#004147" d="M31.513,104.802c-1.3,9.089-0.01,20.546,5.82,26.965c-0.19-0.025-0.39-0.05-0.58-0.075
			c-6.11-0.84-9.28-4.789-11.02-10.48c-0.74-2.382-1.23-5.077-1.57-7.985c-0.65-5.516,0.01-7.384,4.68-8.199
			C29.723,104.865,30.613,104.802,31.513,104.802z"/>
	</g>
	<g>
	</g>
</g>
<g id="XMLID_1_">
	<g>
		<path fill="#460F14" d="M79.41,63.643c4.35,0.56,10.51,7.61,11.399,12.38c-6.77-0.28-11.779-6.4-17.46-9.38
			c0.971-0.39,1.931-0.82,2.86-1.27C77.31,64.833,78.38,64.263,79.41,63.643z"/>
		<path fill="#350B0F" d="M73.35,66.643c5.681,2.98,10.69,9.1,17.46,9.38c0.061,0.31,0.101,0.62,0.11,0.91
			c-2.52,0.13-4.74,0.27-6.939,0.24c-2.37-0.02-4.711-0.24-7.32-0.89c-0.03-0.01-0.05-0.01-0.08-0.02c-0.74-0.19-1.59-0.36-2.5-0.54
			c-3.72-0.74-8.4-1.55-10.83-3.51l0.08-0.1c-0.6-0.81-1.5-1.59-2.33-2C65.21,69.403,69.42,68.263,73.35,66.643z"/>
		<path fill="#B3A08D" d="M91.75,33.763c2.97,10.4,0.28,18.46-5.34,24.38c1.81-3.32,3.58-6.85,5.34-10.38
			c2.97-13.87-8.78-26.77-23.1-28.69l-0.15-1.15c7.95-0.47,14.3,5.88,19.25,9.84C89.75,29.763,90.75,31.763,91.75,33.763z"/>
		<path fill="#6B3F43" d="M83.98,77.173c-1.24,3.67-4.811,13.33-7.73,16.09c-1.63,1.54-2.69,2.94-4.03,3.4
			c-0.58-3.08,0.931-6.32,2.11-9.33c1.37-3.48,0.99-7.35,2.26-10.74l0.07-0.31C79.27,76.933,81.61,77.153,83.98,77.173z"/>
		<path fill="#6B3F43" d="M74.08,75.723c1.15,4.08-0.94,8.07-2.85,11.65c-1.551,2.9-2.28,6.53-3.91,9.39
			c-6.19,2.27-13.84,1.64-20.68,1.97c0.73-0.44,1.38-0.81,1.69-1.05c2.36-1.8,4.95-4.18,6.84-6.43c4.811-5.74,1.86-14.17,7.42-19.32
			h0.33c0.1,0.1,0.21,0.19,0.33,0.28C65.68,74.173,70.36,74.983,74.08,75.723z"/>
		<path fill="#787D6F" d="M67.37,37.393c1.77-0.83,3-1.87,3.28-3.15l0.27,2.02c-0.13,0.95-0.46,1.91-1.07,2.82l-0.1-0.07
			C69.24,38.303,68.22,37.873,67.37,37.393z"/>
		<path fill="#565D4B" d="M67.37,37.393c0.85,0.48,1.87,0.91,2.38,1.62l0.1,0.07c-0.359,0.57-0.84,1.12-1.449,1.66
			c-1.931,1.7-5.141,3.14-10.22,4c-2.66-0.48-6.21-2.9-8.17-4.17c-0.02-0.01-0.03-0.02-0.05-0.03
			C54.99,40.303,62.91,39.493,67.37,37.393z"/>
		<path fill="#00575F" d="M68.98,97.933c0.609,8.55-7.95,15.88-16.121,16.83c-1.11,0.3-2.24,0.54-3.38,0.72l-0.07-0.44
			c-5,0.51-13.19-4.54-12.05-11.47c2.97,0,5.8-0.21,7.89-0.31c4.87-0.23,22.63,0.16,23.67-5.33H68.98z"/>
		<path fill="#502F32" d="M71.23,87.373c1.909-3.58,4-7.57,2.85-11.65c0.91,0.18,1.76,0.35,2.5,0.54c0.03,0.01,0.05,0.01,0.08,0.02
			l-0.07,0.31c-1.27,3.39-0.89,7.26-2.26,10.74c-1.18,3.01-2.69,6.25-2.11,9.33c-0.91,0.33-1.939,0.23-3.359-0.55
			c-0.08,0.05-0.16,0.08-0.25,0.11v0.01c-0.42,0.19-0.851,0.37-1.29,0.53C68.95,93.903,69.68,90.273,71.23,87.373z"/>
		<path fill="#B3A08D" d="M65.74,23.503c0.74,1.36,1.93,2.14,2.01,3.76c0.05,0.99-0.38,2.28-1.17,2.67
			c-2.99-0.95-5.35-12.59-2.72-14.47C64.83,17.163,64.71,21.593,65.74,23.503z"/>
		<path fill="#2B2F25" d="M50.71,45.493c-1.39,0.07-2.88,0.1-4.46,0.1c-18.67,0-21.67-11.33-21.67-11.33l0.44-2.19l0.07-0.32
			c1.02,2.5,5.22,5.67,7.07,6.6c3.72,1.87,9.49,2.03,13.76,2.24c0.77,0.04,2.22,0.03,4.04-0.05c0.02,0.01,0.03,0.02,0.05,0.03
			c1.96,1.27,5.51,3.69,8.17,4.17C56.04,45.103,53.56,45.363,50.71,45.493z"/>
		<path fill="#754C24" d="M46.64,98.733c6.84-0.33,14.49,0.3,20.68-1.97c-0.2,0.35-0.42,0.69-0.65,1.02
			c-2.46,3.45-9.42,3.47-13.67,3.65c-3,0.14-5.98,0.3-8.95,0.39C42.42,101.323,44.77,99.843,46.64,98.733z"/>
		<path fill="#CCCCCC" d="M50.23,73.233c1.84,2.85,3.75,7.61,4.69,9.7c-2.3-3.39-10.55-7.88-11.57-12.47
			c0.83,0.11,1.63,0.21,2.41,0.3c0.65,0.06,1.31,0.11,1.98,0.14v0.02C48.47,70.923,49.34,71.863,50.23,73.233z"/>
		<path fill="#CCCCCC" d="M47.74,70.903c2.04,0.12,4.16,0.12,6.34-0.01c1.82-0.1,3.68-0.29,5.54-0.56c-2.31,1.93-6.68,2.68-9.39,2.9
			c-0.89-1.37-1.76-2.31-2.49-2.31V70.903z"/>
		<path fill="#917A67" d="M50.75,12.763c1.12,4.78,3.24,8.71,5.44,13.21c1.2,2.46,3.02,4.23,5.32,5.6c1.73,1.04,4.09,1.09,5.65,2.25
			c-1.91,2.01-1.05,2.84,0.21,3.57c-4.46,2.1-12.38,2.91-17.41,3.15c-3.06-1.97-6.38-5.19-8.72-8.02
			c-2.88-3.51-3.78-7.34-5.05-11.45c-1.14-3.68-2.53-7.19-2.94-11.06l0.13-0.23c1.98,1.84,6.97,2.03,9.34,2.26
			c2.72,0.27,5.4,0.39,8.02,0.3L50.75,12.763z"/>
		<path fill="#3C2326" d="M47.25,79.263c0.42,1.65,1.93,5.42,1.6,7.89c-1.37-1.42-3.25-3.06-4.65-4.65
			c-0.26-3.32-1.56-6.71-2.9-9.67c2.21,0.98,3.56,4.17,5.29,5.76c0.23,0.21,0.46,0.42,0.7,0.62L47.25,79.263z"/>
		<path fill="#A08871" d="M67.75,27.263c-0.08-1.62-1.27-2.4-2.01-3.76c-1.03-1.91-0.91-6.34-1.88-8.04
			c-2.63,1.88-0.271,13.52,2.72,14.47C67.37,29.543,67.8,28.253,67.75,27.263z M65.07,8.913c2.81-5.5-11.521-7.89-21.22-7.01
			l-0.13-1.38c1.46-0.13,3.07-0.23,4.86-0.26c17.34-0.33,18.34,5.67,18.34,5.67l1.58,11.99l0.15,1.15l2,15.17
			c-0.28,1.28-1.511,2.32-3.28,3.15c-1.26-0.73-2.12-1.56-0.21-3.57c-1.561-1.16-3.92-1.21-5.65-2.25c-2.3-1.37-4.12-3.14-5.32-5.6
			c-2.2-4.5-4.32-8.43-5.44-13.21l-0.01-0.42c3.34-0.13,6.6-0.61,9.77-1.61c1.26-0.39,2.521-0.87,3.76-1.44
			C64.54,9.173,64.8,9.043,65.07,8.913z"/>
		<path fill="#917A67" d="M43.28,69.093c11.2,0.83,22.75-0.83,32.82-3.94l0.11,0.22c-0.93,0.45-1.89,0.88-2.86,1.27
			c-3.93,1.62-8.14,2.76-12.35,3.47c-0.46,0.08-0.92,0.15-1.38,0.22c-1.86,0.27-3.72,0.46-5.54,0.56c-2.18,0.13-4.3,0.13-6.34,0.01
			c-0.67-0.03-1.33-0.08-1.98-0.14c-0.78-0.09-1.58-0.19-2.41-0.3c-0.06-0.29-0.1-0.58-0.1-0.87L43.28,69.093z"/>
		<path fill="#7F6C5D" d="M53.32,3.213c-4.33-0.82-10.89-1.47-15.32,0.05l-0.05-0.13c1.49-0.6,3.56-1.01,5.9-1.23
			c9.7-0.88,24.03,1.51,21.22,7.01c-0.271,0.13-0.53,0.26-0.801,0.38l-0.02-0.03C62.37,4.483,57.77,4.043,53.32,3.213z"/>
		<path fill="#502F32" d="M62.59,71.933c-5.56,5.15-2.609,13.58-7.42,19.32c-1.89,2.25-4.48,4.63-6.84,6.43
			c-0.31,0.24-0.96,0.61-1.69,1.05c-0.9,0.05-1.78,0.11-2.65,0.19c-4.35,0.43-7.8,0.69-11.92-0.54c-2.43-2.38-4.81-4.81-6.82-7.81
			c-1.85-2.76-2.65-4.46-3.32-7.65c-0.49-2.34-0.48-5.67-1.22-7.98c2.81-0.83,5.5-2.21,8.07-4.48c0.89,0.76,2.65,2.03,3.75,2.52
			c-0.57,5.81,4.6,10.87,6.06,16.18c0.26-2.39,0.43-6.32-0.01-9.08c0.02,0.06,0.05,0.12,0.08,0.18c1.25,2.55,4.58,5.85,4.24,8.88
			c0.52-0.92,0.87-1.88,1.08-2.87c0.27-1.22,0.33-2.49,0.22-3.77c1.4,1.59,3.28,3.23,4.65,4.65c0.33-2.47-1.18-6.24-1.6-7.89
			l0.04-0.05c2.42,2,5.09,3.1,7.91,4.33c-0.08-0.16-0.17-0.37-0.28-0.61c-0.94-2.09-2.85-6.85-4.69-9.7
			c2.71-0.22,7.08-0.97,9.39-2.9c0.46-0.07,0.92-0.14,1.38-0.22c0.83,0.41,1.73,1.19,2.33,2l-0.08,0.1
			c-0.12-0.09-0.23-0.18-0.33-0.28H62.59z"/>
		<path fill="#B3B3B3" d="M46.59,78.593c-1.73-1.59-3.08-4.78-5.29-5.76c-0.35-0.79-0.7-1.54-1.04-2.26
			c-0.16-0.14-0.25-0.19-0.28-0.19l0.06-0.38c1.13,0.17,2.24,0.33,3.31,0.46c1.02,4.59,9.27,9.08,11.57,12.47
			c0.11,0.24,0.2,0.45,0.28,0.61c-2.82-1.23-5.49-2.33-7.91-4.33C47.05,79.013,46.82,78.803,46.59,78.593z"/>
		<path fill="#CCCCCC" d="M44.2,82.503c0.11,1.28,0.05,2.55-0.22,3.77c-1.25-4.31-5.92-11.23-6.38-14.68
			c0.22-0.64,0.52-1.25,0.93-1.82c0.51,0.08,1.02,0.16,1.51,0.23l-0.06,0.38c0.03,0,0.12,0.05,0.28,0.19
			c0.34,0.72,0.69,1.47,1.04,2.26C42.64,75.793,43.94,79.183,44.2,82.503z"/>
		<path fill="#42210B" d="M45.25,103.263c-2.09,0.1-4.92,0.31-7.89,0.31c0.08-0.55,0.23-1.12,0.45-1.69
			c2.08,0.04,4.16,0.01,6.24-0.06c2.97-0.09,5.95-0.25,8.95-0.39c4.25-0.18,11.21-0.2,13.67-3.65c0.23-0.33,0.45-0.67,0.65-1.02
			c0.439-0.16,0.87-0.34,1.29-0.53l0.22,0.46c0.07,0.42,0.12,0.83,0.15,1.24H68.92C67.88,103.423,50.12,103.033,45.25,103.263z"/>
		<path fill="#B3B3B3" d="M38.58,80.083c-0.96-2.02-1.57-4.39-1.36-6.61c0.06-0.64,0.18-1.28,0.38-1.88
			c0.46,3.45,5.13,10.37,6.38,14.68c-0.21,0.99-0.56,1.95-1.08,2.87c0.34-3.03-2.99-6.33-4.24-8.88
			C38.63,80.203,38.6,80.143,38.58,80.083z"/>
		<path fill="#754C24" d="M37.81,101.883c-0.77-0.01-1.54-0.03-2.31-0.07c-1.13-1.17-2.29-2.29-3.43-3.43
			c4.12,1.23,7.57,0.97,11.92,0.54c0.87-0.08,1.75-0.14,2.65-0.19c-1.87,1.11-4.22,2.59-2.59,3.09
			C41.97,101.893,39.89,101.923,37.81,101.883z"/>
		<path fill="#917A67" d="M38,3.263c4.43-1.52,10.99-0.87,15.32-0.05c4.45,0.83,9.05,1.27,10.93,6.05l0.02,0.03
			c-1.239,0.57-2.5,1.05-3.76,1.44c2.7-5.04-7.23-6.27-10.01-6.72c-2.84-0.46-6.04-0.39-9-0.25c-2.22,0.1-5.11,1.56-7,1.25
			l-0.04-0.06c0.79-0.47,1.68-0.88,2.43-1.31v0.01c0.31-0.19,0.66-0.36,1.06-0.52L38,3.263z"/>
		<path fill="#A08871" d="M33.03,9.393c-1.61-2.15-0.32-3.42,1.43-4.44l0.04,0.06c1.89,0.31,4.78-1.15,7-1.25
			c2.96-0.14,6.16-0.21,9,0.25c2.78,0.45,12.71,1.68,10.01,6.72c-3.17,1-6.43,1.48-9.77,1.61c-2.62,0.09-5.3-0.03-8.02-0.3
			c-2.37-0.23-7.36-0.42-9.34-2.26C33.25,9.663,33.13,9.533,33.03,9.393z"/>
		<path fill="#754C24" d="M32.07,98.383c1.14,1.14,2.3,2.26,3.43,3.43c-1.61-0.07-3.22-0.19-4.83-0.37
			c-2.58-0.29-4.89-2.06-6.7-4.35c-0.62-0.77-1.18-1.6-1.67-2.46c0.67,0.52,7.4,3.04,9.61,3.71
			C31.96,98.363,32.02,98.373,32.07,98.383z"/>
		<path fill="#B3B3B3" d="M29.86,68.063c2.93,0.7,5.86,1.26,8.67,1.71c-0.41,0.57-0.71,1.18-0.93,1.82c-0.2,0.6-0.32,1.24-0.38,1.88
			c-2.91-0.98-5.76-2.74-7.78-4.66C29.59,68.573,29.72,68.323,29.86,68.063z"/>
		<path fill="#3C2326" d="M29.44,68.813c2.02,1.92,4.87,3.68,7.78,4.66c-0.21,2.22,0.4,4.59,1.36,6.61
			c0.44,2.76,0.27,6.69,0.01,9.08c-1.46-5.31-6.63-10.37-6.06-16.18c-1.1-0.49-2.86-1.76-3.75-2.52c-0.15-0.13-0.26-0.23-0.35-0.32
			C28.82,69.743,29.15,69.293,29.44,68.813z"/>
		<path fill="#3C2326" d="M32.07,98.383c-0.05-0.01-0.11-0.02-0.16-0.04c-2.21-0.67-8.94-3.19-9.61-3.71h-0.01
			c-0.62-1.08-1.15-2.19-1.55-3.26c-0.97-2.58-1.54-5.45-2.33-7.98c-0.6-1.91-2.36-5.6-2.2-7.55c1.53-0.18,3.03-0.47,4.5-0.9
			c0.74,2.31,0.73,5.64,1.22,7.98c0.67,3.19,1.47,4.89,3.32,7.65C27.26,93.573,29.64,96.003,32.07,98.383z"/>
		<path fill="#6D5D52" d="M31.58,16.933c1.81,0.01,1.71,4.84,1.43,6.66c-0.22,1.42-1.94,4.06-2.57,5.45v0.01
			c-1.02,0.63-2.19,1.79-2.71,0.45c-0.22-0.57,1.17-2.82,1.45-3.49c0.65-1.53,1.32-2.83,1.57-4.5c0.18-1.24-0.53-3.13,0.75-4
			L31.58,16.933z"/>
		<path fill="#7F6C5D" d="M36.89,3.643c-0.75,0.43-1.64,0.84-2.43,1.31c-1.75,1.02-3.04,2.29-1.43,4.44
			c0.1,0.14,0.22,0.27,0.35,0.39l-0.13,0.23c0.41,3.87,1.8,7.38,2.94,11.06c1.27,4.11,2.17,7.94,5.05,11.45
			c2.34,2.83,5.66,6.05,8.72,8.02c-1.82,0.08-3.27,0.09-4.04,0.05c-4.27-0.21-10.04-0.37-13.76-2.24c-1.85-0.93-6.05-4.1-7.07-6.6
			l0.95-4.68l1.55-7.67l2.66-13.14c0,0,0.8-4.56,13.47-5.74l0.13,1.38c-2.34,0.22-4.41,0.63-5.9,1.23c-0.4,0.16-0.75,0.33-1.06,0.52
			V3.643z M31.5,17.513c-1.28,0.87-0.57,2.76-0.75,4c-0.25,1.67-0.92,2.97-1.57,4.5c-0.28,0.67-1.67,2.92-1.45,3.49
			c0.52,1.34,1.69,0.18,2.71-0.45v-0.01c0.63-1.39,2.35-4.03,2.57-5.45c0.28-1.82,0.38-6.65-1.43-6.66L31.5,17.513z"/>
		<path fill="#A08871" d="M25.75,27.013c-1.46-0.54-10.04,7.04-11,9c-2.21,4.52,1.44,8.86,5.75,11.24
			c10.29,5.7,25.74,3.01,36.51,0.19c4-1.05,9.811-2.46,11.391-6.7c0.609-0.54,1.09-1.09,1.449-1.66c0.61-0.91,0.94-1.87,1.07-2.82
			l-0.27-2.02l-2-15.17c14.319,1.92,26.069,14.82,23.1,28.69c-1.76,3.53-3.53,7.06-5.34,10.38c-2.01,2.1-4.38,3.93-7,5.5
			c-1.03,0.62-2.101,1.19-3.2,1.73l-0.11-0.22c-10.069,3.11-21.62,4.77-32.82,3.94c-0.67-0.05-1.34-0.1-2.01-0.17
			c-2.95-0.29-5.88-0.77-8.72-1.42c-10.8-2.74-22.8-7.74-27.8-17.74c-5-9,1-18,7.56-24.34l-0.22-0.32
			c7.07-4.75,14.83-5.84,14.83-5.84l0.67,0.14l-1.55,7.67L25.75,27.013z"/>
		<path fill="#917A67" d="M57.01,47.443c-10.77,2.82-26.22,5.51-36.51-0.19c-4.31-2.38-7.96-6.72-5.75-11.24
			c0.96-1.96,9.54-9.54,11-9l0.29,0.06l-0.95,4.68l-0.07,0.32l-0.27-0.06c-1.4,1.86-4.73,4.58-2.44,8.06
			c1.77,2.68,5.32,4.59,8.45,5.39c3.04,0.78,6.33,1.04,9.55,1.05c2.18,0.01,8.27,0.3,10.4-1.02c2.85-0.13,5.33-0.39,7.47-0.75
			c5.08-0.86,8.29-2.3,10.22-4C66.82,44.983,61.01,46.393,57.01,47.443z"/>
		<path fill="#7F6C5D" d="M24.58,34.263c0,0,3,11.33,21.67,11.33c1.58,0,3.07-0.03,4.46-0.1c-2.13,1.32-8.22,1.03-10.4,1.02
			c-3.22-0.01-6.51-0.27-9.55-1.05c-3.13-0.8-6.68-2.71-8.45-5.39c-2.29-3.48,1.04-6.2,2.44-8.06l0.27,0.06L24.58,34.263z"/>
		<path fill="#42210B" d="M37.81,101.883c-0.22,0.57-0.37,1.14-0.45,1.69c-5.95,0-12.47-0.82-14.77-4.98l-0.56,0.12
			c-0.1-0.37-0.21-0.76-0.33-1.15c0.7,0.06,1.39-0.03,2.05-0.3l0.22-0.17c1.81,2.29,4.12,4.06,6.7,4.35
			c1.61,0.18,3.22,0.3,4.83,0.37C36.27,101.853,37.04,101.873,37.81,101.883z"/>
		<path fill="#004147" d="M43.98,115.903c-11.48-0.1-22.46-6.22-22.66-18.39c0.13,0.02,0.25,0.04,0.38,0.05
			c0.12,0.39,0.23,0.78,0.33,1.15l0.56-0.12c2.3,4.16,8.82,4.98,14.77,4.98c-1.14,6.93,7.05,11.98,12.05,11.47l0.07,0.44
			C47.66,115.783,45.81,115.923,43.98,115.903z"/>
		<path fill="#6B3F43" d="M21.7,97.563c-0.13-0.01-0.25-0.03-0.38-0.05c-0.02-0.34-0.01-0.69,0-1.04
			C21.46,96.843,21.59,97.203,21.7,97.563z"/>
		<path fill="#502F32" d="M22.3,94.633c0.49,0.86,1.05,1.69,1.67,2.46l-0.22,0.17c-0.66,0.27-1.35,0.36-2.05,0.3
			c-0.11-0.36-0.24-0.72-0.38-1.09c-0.85-2.33-2.07-4.79-2.73-6.9c-1.42-4.5-4.03-8.59-4.65-13.54c0.76-0.04,1.52-0.11,2.27-0.19
			c-0.16,1.95,1.6,5.64,2.2,7.55c0.79,2.53,1.36,5.4,2.33,7.98c0.4,1.07,0.93,2.18,1.55,3.26H22.3z"/>
		<path fill="#6B3F43" d="M18.59,89.573c0.66,2.11,1.88,4.57,2.73,6.9c-0.01,0.35-0.02,0.7,0,1.04c-0.85-0.14-1.71-0.49-2.58-1.01
			c-1.38-3.14-3.93-5.92-5.58-8.92c-2.13-3.85-4.02-7.55-5.7-11.51c1.3,0.04,2.58,0.06,3.84,0.04c0.89,0,1.77-0.03,2.64-0.08
			C14.56,80.983,17.17,85.073,18.59,89.573z"/>
		<path fill="#460F14" d="M18.73,64.423c3.54,1.54,7.33,2.71,11.13,3.64c-0.14,0.26-0.27,0.51-0.42,0.75
			c-0.29,0.48-0.62,0.93-1.01,1.33c0.09,0.09,0.2,0.19,0.35,0.32c-2.57,2.27-5.26,3.65-8.07,4.48c-1.47,0.43-2.97,0.72-4.5,0.9
			c-0.75,0.08-1.51,0.15-2.27,0.19c-0.87,0.05-1.75,0.08-2.64,0.08C12.12,73.063,16.92,66.053,18.73,64.423z"/>
		<path fill="#350B0F" d="M7.46,76.073c-0.73-0.01-1.46-0.03-2.2-0.06c-1.63-0.04-3.3-0.08-5.01-0.08
			c4.89-6.85,6.44-10.99,13.79-13.87c1.49,0.87,3.06,1.65,4.69,2.36c-1.81,1.63-6.61,8.64-7.43,11.69
			C10.04,76.133,8.76,76.113,7.46,76.073z"/>
		<path fill="#502F32" d="M5.26,76.013c0.74,0.03,1.47,0.05,2.2,0.06c1.68,3.96,3.57,7.66,5.7,11.51c1.65,3,4.2,5.78,5.58,8.92
			c-6.15-3.67-12.47-15.75-13.49-20.24L5.26,76.013z"/>
		<path fill="#917A67" d="M29.86,68.063c-3.8-0.93-7.59-2.1-11.13-3.64c-1.63-0.71-3.2-1.49-4.69-2.36
			c-7.41-4.29-12.86-10.69-13.3-20.37c0.33-2.43,1.26-4.97,2.91-7.57c1.37-2.51,3.12-4.61,5.04-6.37c1.09-0.99,2.24-1.87,3.4-2.65
			l0.22,0.32c-6.56,6.34-12.56,15.34-7.56,24.34c5,10,17,15,27.8,17.74c2.84,0.65,5.77,1.13,8.72,1.42
			c0.67,0.07,1.34,0.12,2.01,0.17l-0.03,0.5c0,0.29,0.04,0.58,0.1,0.87c-1.07-0.13-2.18-0.29-3.31-0.46c-0.49-0.07-1-0.15-1.51-0.23
			C35.72,69.323,32.79,68.763,29.86,68.063z"/>
	</g>
	<g>
	</g>
</g>
</svg>
