<?xml version="1.0" encoding="utf-8"?>
<!-- Generator: Adobe Illustrator 14.0.0, SVG Export Plug-In  -->
<!DOCTYPE svg PUBLIC "-//W3C//DTD SVG 1.1//EN" "http://www.w3.org/Graphics/SVG/1.1/DTD/svg11.dtd" [
	<!ENTITY ns_flows "http://ns.adobe.com/Flows/1.0/">
]>
<svg version="1.1"
	 xmlns="http://www.w3.org/2000/svg" xmlns:xlink="http://www.w3.org/1999/xlink" xmlns:a="http://ns.adobe.com/AdobeSVGViewerExtensions/3.0/"
	 x="0px" y="0px" width="150px" height="150px" viewBox="-27.642 -3.635 150 150" enable-background="new -27.642 -3.635 150 150"
	 xml:space="preserve">
<defs>
</defs>
<g id="XMLID_3_">
	<g>
		<path fill="#00575F" d="M46.008,129.258c-2.223,1.346-4.801,0.627-7.579-0.757c-3.324-8.112-0.658-19.564,3.647-27.877
			c2.362,0.819,4.602,2.136,6.687,3.44c1.876,1.176,5.45,3.221,6.007,6.034c0.846,4.311-3.781,11.398-5.624,15.277
			C48.208,127.348,47.155,128.591,46.008,129.258z"/>
		<path fill="#422B14" d="M38.43,128.5c2.778,1.385,5.355,2.103,7.579,0.757c-0.318,0.512-0.664,1.013-1.052,1.514
			c-3.248,4.225-7.968,4.772-10.985,2.774c-2.994-1.976-6.4-3.23-6.398-7.812c0.001-2.142,1.518-8.495,3.493-11.243
			c-0.287,6.054,1.365,10.906,6.843,13.744C38.079,128.323,38.259,128.413,38.43,128.5z"/>
		<path fill="#004147" d="M37.908,128.235c-5.479-2.838-7.13-7.69-6.843-13.744c0.109-2.537,0.561-5.293,1.225-8.204
			c1.256-5.523,2.511-7.101,7.192-6.333c0.885,0.135,1.746,0.371,2.595,0.669c-4.306,8.313-6.971,19.765-3.647,27.877
			C38.259,128.413,38.079,128.323,37.908,128.235z"/>
	</g>
	<g>
	</g>
</g>
<g id="XMLID_2_">
	<g>
		<path fill="#00575F" d="M68.05,127.613c-0.898,2.852-3.604,3.81-6.958,4.263c-7.295-4.861-11.498-15.843-12.583-25.142
			c2.416-0.644,5.009-0.806,7.466-0.893c2.213-0.076,6.319-0.382,8.355,1.637c3.114,3.099,3.248,11.562,3.892,15.808
			C68.495,125.079,68.417,126.486,68.05,127.613z"/>
		<path fill="#422B14" d="M61.092,131.876c3.354-0.454,6.06-1.412,6.958-4.263c0.246,1.456,0.363,2.932,0.273,4.33
			c-0.326,5.319-4.483,6.577-8.102,6.61c-3.587,0.039-7.112,0.906-9.675-2.891c-1.197-1.775-3.494-7.876-3.405-11.256
			c3.157,5.162,7.242,8.258,13.37,7.543C60.702,131.925,60.902,131.899,61.092,131.876z"/>
		<path fill="#004147" d="M60.511,131.948c-6.128,0.715-10.213-2.381-13.37-7.543c-1.324-2.179-2.493-4.715-3.571-7.5
			c-2.051-5.279-1.894-7.29,2.414-9.274c0.81-0.383,1.654-0.67,2.525-0.898c1.085,9.299,5.288,20.281,12.583,25.142
			C60.902,131.899,60.702,131.925,60.511,131.948z"/>
	</g>
	<g>
	</g>
</g>
<g id="XMLID_1_">
	<g>
		<path fill="#502F32" d="M14.841,59.904c2.084,0.168,3.985,0.088,5.621-0.962c0.986-1.66,2.117-3.279,3.007-4.827
			c-1.555-0.401-3.039-0.834-4.434-1.315C18.361,54.171,15.113,58.124,14.841,59.904z"/>
		<path fill="#502F32" d="M23.468,54.115c-0.89,1.547-2.021,3.167-3.007,4.827c-0.922,1.54-1.708,3.104-2.068,4.667
			c-0.578,2.501-1.171,11.747,3.215,11.129c2.044-5.236,1.916-11.338,3.079-16.999c0.217-1.066,0.481-2.109,0.818-3.135
			C24.815,54.443,24.134,54.283,23.468,54.115z"/>
		<path fill="#00575F" d="M28.913,105.584c4.586,3.047,9.558,5.661,14.962,6.495c0,0,0,0,0.008,0
			c1.804-0.296,3.873-1.163,5.124-2.133c1.812-1.411,5.124-3.464,5.212-6.238c-0.112,0.024-0.217,0.041-0.329,0.056
			c-3.785,0.618-7.93-0.216-11.201-0.376c-7.545-0.377-11.763-3.705-18.394-6.583c-0.249,2.173,2.237,8.523,4.41,9.101
			L28.913,105.584z"/>
		<path fill="#502F32" d="M24.687,57.739c-1.163,5.661-1.034,11.763-3.079,16.999l0.176,0.088
			c-1.917,3.384-2.141,10.793-0.922,14.457c0.417,1.243,1.211,2.341,2.205,3.336c1.844,1.844,4.394,3.327,6.551,4.674l0.144-0.225
			c-2.069-3.416-4.001-6.623-4.418-10.824c-0.272-2.694-0.529-14.578,1.491-16.341c-1.459-4.49-2.189-9.157-1.908-12.116
			L24.687,57.739z"/>
		<path fill="#2B2F25" d="M34.205,30.46c-2.414-0.425-7.746-1.034-9.277-3.271l-0.08-0.016c-0.096,0.609-0.225,1.187-0.401,1.724
			c3.207,4.258,9.494,4.931,14.962,5.204c1.708-0.874,3.159-1.917,4.378-3.103C40.587,31.006,37.228,30.998,34.205,30.46z"/>
		<path fill="#A08871" d="M64.939,25.233c0.072,0.834,0.128,1.667,0.177,2.501l0.048,0.04c-2.205,3.047-5.91,4.522-9.269,5.404
			c-0.449,0.121-0.914,0.225-1.387,0.321c-0.249,0.056-0.497,0.104-0.754,0.145c-4.017,1.531-7.666,3.151-12.444,3.632
			c-5.677,0.569-10.985,0.497-16.638,0c-3.352-0.297-18.571-1.123-14.289-7.602c1.812-2.742,11.747-8.195,14.85-8.066
			c0.088-1.957,0.232-3.857,0.786-5.388c0.016-0.048,0.032-0.096,0.048-0.145c-7.569-0.914-23.261,5.589-25.402,14.537
			c-1.836,7.69,2.678,13.551,8.764,17.568c5.958,2.301,12.124,4.065,18.386,5.252c2.574,0.489,5.172,0.882,7.818,1.179
			c2.558,0.393,5.116,0.673,7.657,0.842c14.136,0.722,28.569-0.08,41.398-8.099c5.3-3.977,10.055-11.241,7.353-17.287
			c-5.829-8.106-19.997-14.385-28.2-14.385l-0.128,0.024C64.242,18.89,64.667,22.049,64.939,25.233z"/>
		<path fill="#6B3F43" d="M26.836,69.903c-2.021,1.764-1.764,13.647-1.491,16.341c0.417,4.201,2.349,7.409,4.418,10.824
			l-0.144,0.225c0.216,0.136,0.441,0.273,0.649,0.409c7.401,4.73,20.326,5.268,27.775,0.649c-0.056,0-0.104-0.008-0.161-0.016
			h-0.008c-5.228-0.569-10.592-1.852-15.187-3.985c-3.665-1.7-6.054-3.488-8.443-7.161c-1.091-1.66-3.055-7.545-3.456-8.868
			C29.186,76.021,27.838,73.006,26.836,69.903z"/>
		<path fill="#350B0F" d="M25.505,54.604c-0.336,1.026-0.601,2.069-0.818,3.135l0.241,0.048c-0.281,2.958,0.449,7.625,1.908,12.116
			c1.002,3.103,2.35,6.118,3.953,8.419c0.946,1.371,1.989,2.486,3.095,3.224c0.393-0.521,0.81-1.059,1.243-1.604
			c0.834-2.838,0.954-6.623,1.363-9.333c0.425-2.823,1.267-9.221-0.072-12.003c-3.608-0.706-7.136-1.7-8.708-3.544
			C26.964,54.917,26.227,54.764,25.505,54.604z"/>
		<path fill="#6D5D52" d="M27.822,7.216c-0.225,1.571-0.441,3.207-0.738,4.811l0.273,0.048c0.048,1.668,1.443,3.264,1.227,5.236
			c-0.256,2.261-2.438,3.448-1.235,5.95c3.897-1.908,4.282-13.455,0.81-15.997L27.822,7.216z"/>
		<path fill="#460F14" d="M41.55,71.867c0.321-0.441,0.641-0.882,0.946-1.323c0.89-1.275,1.716-2.59,2.43-3.913
			c-1.195-2.221-2.077-5.076-0.585-4.146c-0.97-0.81-1.74-1.764-2.293-2.895c-1.7-0.305-3.672-0.609-5.629-0.986
			c1.339,2.782,0.497,9.181,0.072,12.003c-0.409,2.71-0.529,6.495-1.363,9.333C37.107,77.44,39.449,74.722,41.55,71.867z"/>
		<path fill="#B3B3B3" d="M36.418,58.605c1.957,0.377,3.929,0.682,5.629,0.986c-0.056-0.112-0.112-0.225-0.161-0.337
			c-0.216-0.481-0.577-2.325-0.433-2.502c-4.819-0.289-9.478-0.858-13.744-1.692C29.282,56.905,32.81,57.899,36.418,58.605z"/>
		<path fill="#502F32" d="M50.121,85.963c-2.991-1.9-10.664-9.999-8.379-13.992c-0.064-0.032-0.128-0.064-0.192-0.104
			c-2.101,2.854-4.442,5.573-6.423,8.074c-0.433,0.545-0.85,1.083-1.243,1.604c-1.106-0.738-2.149-1.853-3.095-3.224
			c0.401,1.323,2.365,7.208,3.456,8.868c2.389,3.672,4.779,5.46,8.443,7.161c4.594,2.133,9.958,3.416,15.187,3.985h0.008
			c0.072-0.016,0.145-0.024,0.208-0.016c0.152-0.088,0.305-0.184,0.457-0.289c-0.032,0.377-0.2,0.297-0.457,0.289
			c-0.016,0.016-0.032,0.024-0.048,0.032c1.651,0.185,3.287,0.289,4.883,0.321c0.312,0.016,0.626,0.016,0.938,0.024
			c-0.409-2.501,0.16-4.586,0.979-6.567C60.032,90.341,54.291,88.617,50.121,85.963z"/>
		<path fill="#6B3F43" d="M63.897,86.276c-0.834-0.249-1.828-0.593-2.486-0.898c-1.154-0.529-3.6-1.115-5.989-2.742
			c-2.005-1.355-3.969-3.448-5.116-6.848l-0.096,0.032c-1.764-1.965-6.535-2.903-8.467-3.849
			c-2.285,3.993,5.388,12.092,8.379,13.992c4.169,2.654,9.911,4.378,14.722,6.166c0.737-1.772,1.676-3.472,2.301-5.308l-0.657-0.217
			c0-0.136-1.483-0.024-2.117-0.2C64.225,86.364,64.065,86.316,63.897,86.276z"/>
		<path fill="#B3A08D" d="M41.51,56.752c-0.016-0.024-0.04-0.024-0.048,0C41.478,56.752,41.494,56.752,41.51,56.752z"/>
		<path fill="#7F6C5D" d="M24.447,28.897c0.176-0.537,0.305-1.114,0.401-1.724c0.208-1.315,0.272-2.767,0.329-4.226l-0.192-0.008
			c-2.044,2.061-10.175,5.188-9.341,8.676c0.778,3.264,9.181,3.504,12.003,3.656c7.265,0.401,16.028,1.187,23.021-1.203
			c-2.638,0.265-5.38,0.305-7.818,0.185c-1.083-0.056-2.237-0.096-3.44-0.152C33.94,33.828,27.654,33.155,24.447,28.897z"/>
		<path fill="#1A1A1A" d="M44.925,66.631c0.922-1.716,1.652-3.456,2.085-5.228l0.256-0.04c-0.465-0.385-1.114-0.738-2.069-1.042
			c-0.826-0.272-1.916-0.505-3.151-0.729c0.553,1.13,1.323,2.084,2.293,2.895C42.849,61.556,43.73,64.41,44.925,66.631z"/>
		<path fill="#7F6C5D" d="M31.118,5.403c-3.031-1.026,0.81-2.205,2.341-2.662c0.826-0.249,1.644-0.465,2.478-0.65
			c1.163-0.256,2.333-0.449,3.536-0.561c0.016,0,0.024,0,0.04,0c0.336-0.032,0.682-0.064,1.026-0.08
			c1.651-0.088,3.263-0.225,4.867-0.185l0.032-0.97c-7.361-0.265-14.866,0.602-17.055,3.319l0.04,0.041
			c-0.232,1.098-0.417,2.309-0.602,3.56l0.337,0.048c3.472,2.542,3.087,14.088-0.81,15.997c-1.203-2.501,0.979-3.688,1.235-5.95
			c0.217-1.972-1.179-3.568-1.227-5.236l-0.273-0.048c-0.256,1.411-0.577,2.79-1.018,4.049c-0.016,0.048-0.032,0.096-0.048,0.145
			c-0.553,1.531-0.697,3.432-0.786,5.388c-0.024,0.441-0.04,0.89-0.056,1.339c-0.056,1.459-0.12,2.911-0.329,4.226l0.08,0.016
			c1.532,2.237,6.864,2.846,9.277,3.271c3.023,0.538,6.382,0.545,9.582,0.538c2.189-2.125,3.641-4.699,4.515-7.562
			c1.54-5.035,1.275-10.953,0.096-16.83V6.582c-0.048-0.008-0.088,0-0.128,0C42.8,7.055,36.217,7.135,31.118,5.403z"/>
		<path fill="#42210B" d="M58.043,98.352c-7.449,4.619-20.375,4.081-27.775-0.649c-0.208-0.136-0.433-0.273-0.649-0.409
			c-2.157-1.347-4.707-2.831-6.551-4.674c0.032,0.545,0.128,1.187,0.241,1.788c12.42,9.574,26.637,9.895,39.618,4.266
			C61.331,98.64,59.695,98.536,58.043,98.352z"/>
		<path fill="#1A1A1A" d="M50.442,66.351c-2.101-2.045-1.636-3.712-3.175-4.987l-0.256,0.04c-0.433,1.772-1.163,3.512-2.085,5.228
			c0.553,1.05,1.187,1.956,1.668,2.269c-0.008-0.337,0-0.842,0.04-1.187c0.208,0.369,0.417,0.777,0.633,1.187
			c1.187-0.714,2.197-1.612,2.622-2.638C50.057,66.287,50.25,66.311,50.442,66.351z"/>
		<path fill="#502F32" d="M47.267,68.9c-0.216-0.409-0.425-0.818-0.633-1.187c-0.04,0.345-0.048,0.85-0.04,1.187
			c-0.481-0.313-1.115-1.219-1.668-2.269c-0.713,1.323-1.54,2.638-2.43,3.913l0.097,0.064C43.899,70.424,45.735,69.814,47.267,68.9z
			"/>
		<path fill="#004147" d="M43.883,112.079c2.069,0.321,4.194,0.377,6.391,0.096c3.865-0.497,8.299-1.371,11.603-2.958
			c1.362-0.658,5.669-3.752,6.422-4.779c-1.627-0.297-2.958-1.436-3.769-3.384c-3.424,1.074-6.872,2.077-10.311,2.654
			c-0.088,2.774-3.4,4.827-5.212,6.238C47.756,110.916,45.687,111.782,43.883,112.079z"/>
		<path fill="#917A67" d="M48.301,23.437c-0.874,2.863-2.326,5.437-4.515,7.562c0.602-0.008,1.195-0.008,1.78-0.008
			c2.774,0.008,7.056-0.176,10.985-1.106c0.441-0.786,0.89-1.523,1.347-2.029c1.917-2.117,1.54-11.618-2.67-17.985l-1.083,0.457
			c1.395,2.357,0.249,6.351-0.858,8.451c-0.473,0.906-3.007,3.464-3.641,5.084L48.301,23.437z"/>
		<path fill="#917A67" d="M52.647,6.678c-1.884-0.024-3.592-0.128-4.25-0.096v0.024c1.179,5.877,1.443,11.795-0.096,16.83
			l1.347,0.425c0.634-1.62,3.167-4.178,3.641-5.084c1.106-2.101,2.253-6.094,0.858-8.451l1.083-0.457
			c-0.738-1.123-1.596-2.149-2.582-3.015V6.678z"/>
		<path fill="#A08871" d="M48.397,6.582c0.657-0.032,2.365,0.072,4.25,0.096c0.337,0.008,0.682,0.008,1.026,0.008
			c-2.831-0.858-5.517-2.558-8.7-3.151c-2.35-0.433-6.03-1.451-9.037-1.443c-0.834,0.185-1.652,0.401-2.478,0.65
			c-1.531,0.457-5.372,1.635-2.341,2.662c5.1,1.732,11.683,1.652,17.151,1.179C48.309,6.582,48.349,6.574,48.397,6.582z"/>
		<path fill="#1A1A1A" d="M50.65,70.745c0.136,0.369,0.152,0.738,0.208,1.106C50.667,71.579,50.61,71.218,50.65,70.745z
			 M52.334,72.565c0.681-1.564,0.096-3.608-0.594-5.1c-0.24-0.208-0.489-0.409-0.737-0.617c-0.208-0.168-0.393-0.337-0.562-0.497
			c-0.192-0.04-0.385-0.064-0.553-0.088c-0.425,1.026-1.435,1.924-2.622,2.638c0.842,1.612,1.788,3.319,3.665,3.328
			c-0.032-0.121-0.056-0.249-0.072-0.369C51.116,72.228,51.597,72.444,52.334,72.565z"/>
		<path fill="#6B3F43" d="M50.073,75.059l0.136-0.041c3.64,5.765,8.66-0.441,7.818-2.157c-2.141-1.724-4.129-3.576-6.287-5.396
			c0.69,1.492,1.275,3.536,0.594,5.1c-0.738-0.121-1.219-0.337-1.476-0.706c0.016,0.121,0.04,0.249,0.072,0.369
			c-1.876-0.008-2.823-1.716-3.665-3.328c-1.531,0.914-3.368,1.523-4.674,1.708l-0.097-0.064c-0.305,0.441-0.625,0.882-0.946,1.323
			c0.064,0.04,0.128,0.072,0.192,0.104c1.932,0.946,6.703,1.884,8.467,3.849l0.096-0.032C50.217,75.556,50.146,75.307,50.073,75.059
			z"/>
		<path fill="#1A1A1A" d="M47.267,61.363c1.54,1.275,1.075,2.942,3.175,4.987c0.168,0.16,0.353,0.329,0.562,0.497
			c0.249,0.208,0.497,0.409,0.737,0.617c-0.016-0.04-0.04-0.08-0.056-0.12c0.313-0.088,0.594-0.04,0.914-0.12
			c0.104-1.716-0.513-3.616-1.836-4.755c0,0.04-0.008,0.072-0.016,0.112c-0.08-0.136-0.289-0.337-0.465-0.481
			c0.168,0.112,0.329,0.232,0.481,0.369c0.232-1.163-0.465-2.309-1.395-3.288c0.008-0.874,0.232-1.708,0.649-2.245
			c-2.854,0.04-5.709-0.024-8.507-0.185c-0.016,0-0.032,0-0.048,0c-0.008,0-0.008,0-0.008,0c-0.145,0.177,0.216,2.021,0.433,2.502
			c0.048,0.112,0.104,0.225,0.161,0.337c1.235,0.224,2.325,0.457,3.151,0.729C46.152,60.625,46.802,60.979,47.267,61.363z"/>
		<path fill="#917A67" d="M25.232,21.608c-3.103-0.128-13.038,5.324-14.85,8.066c-4.282,6.479,10.937,7.305,14.289,7.602
			c5.653,0.497,10.961,0.569,16.638,0c4.779-0.481,8.427-2.101,12.444-3.632c-0.994,0.184-2.037,0.321-3.087,0.425
			c-6.992,2.39-15.756,1.604-23.021,1.203c-2.822-0.152-11.226-0.393-12.003-3.656c-0.834-3.488,7.297-6.615,9.341-8.676
			l0.192,0.008C25.192,22.499,25.208,22.049,25.232,21.608z"/>
		<path fill="#6B3F43" d="M50.65,70.745c-0.04,0.473,0.016,0.834,0.208,1.106C50.803,71.482,50.787,71.113,50.65,70.745z"/>
		<path fill="#B3B3B3" d="M50.282,62.101c0.176,0.144,0.385,0.345,0.465,0.481c0.008-0.04,0.016-0.072,0.016-0.112
			C50.61,62.333,50.45,62.213,50.282,62.101z"/>
		<path fill="#B3B3B3" d="M49.368,59.182c0.93,0.979,1.627,2.125,1.395,3.288c1.323,1.139,1.94,3.039,1.836,4.755
			c-0.32,0.08-0.601,0.032-0.914,0.12c0.016,0.04,0.041,0.08,0.056,0.12c2.157,1.82,4.146,3.672,6.287,5.396
			c1.155,0.93,2.349,1.828,3.64,2.654c0.545-1.299-0.594-5.204-1.395-6.455c5.541,0.625,2.052-2.83,1.218-5.204
			c0.586,0.024,1.315-0.176,1.893-0.128c-0.657-3.031-8.908-6.166-8.764-6.751l-0.008-0.184c-1.523,0.08-3.063,0.128-4.594,0.144
			C49.6,57.474,49.375,58.308,49.368,59.182z M52.663,61.411c1.756,0.946,4.186,3.255,3.592,4.803
			c-1.019,2.662-4.346-2.67-4.779-3.544c0.594-0.361,0.449-0.777,0.81-1.219C52.415,61.443,52.543,61.427,52.663,61.411z"/>
		<path fill="#B3B3B3" d="M56.255,66.214c0.593-1.548-1.836-3.857-3.592-4.803c-0.12,0.016-0.249,0.032-0.377,0.04
			c-0.361,0.441-0.216,0.858-0.81,1.219C51.909,63.544,55.237,68.876,56.255,66.214z"/>
		<path fill="#565D4B" d="M54.636,33.315c0.601-0.874,1.25-2.221,1.916-3.432c-3.929,0.93-8.21,1.115-10.985,1.106
			c-0.585,0-1.179,0-1.78,0.008c-1.219,1.187-2.67,2.229-4.378,3.103c1.203,0.056,2.357,0.096,3.44,0.152
			c2.438,0.12,5.18,0.08,7.818-0.185c1.05-0.104,2.093-0.241,3.087-0.425C54.042,33.54,54.339,33.427,54.636,33.315z"/>
		<path fill="#C1272D" d="M54.636,33.315c-0.297,0.112-0.594,0.225-0.882,0.329c0.257-0.04,0.505-0.088,0.754-0.145
			C54.547,33.436,54.595,33.379,54.636,33.315z"/>
		<path fill="#502F32" d="M55.421,82.636c2.389,1.627,4.835,2.213,5.989,2.742c0.658,0.305,1.652,0.649,2.486,0.898
			c1.354-2.341,1.042-5.404,0.93-8.187c-0.729-0.682-1.451-1.323-2.181-1.876C61.226,78.723,57.835,81.753,55.421,82.636z"/>
		<path fill="#917A67" d="M53.673,6.687c2.798-0.016,5.629-0.281,5.757-1.427c0.152-1.339-3.873-2.598-5.917-2.943
			c-1.7-0.689-4.306-0.609-6.054-0.866c-0.681-0.112-1.363-0.161-2.053-0.185c-1.604-0.04-3.215,0.096-4.867,0.185
			c-0.345,0.016-0.69,0.048-1.026,0.08c-0.016,0-0.024,0-0.04,0C38.27,1.643,37.1,1.835,35.937,2.092
			c3.007-0.008,6.687,1.01,9.037,1.443C48.157,4.128,50.843,5.829,53.673,6.687z"/>
		<path fill="#A08871" d="M59.431,5.259c-0.128,1.146-2.959,1.411-5.757,1.427c-0.345,0-0.689,0-1.026-0.008v0.177
			c0.986,0.866,1.844,1.892,2.582,3.015c4.209,6.367,4.586,15.868,2.67,17.985c-0.457,0.505-0.906,1.243-1.347,2.029
			c3.52-0.826,6.751-2.245,8.387-4.65c-0.272-3.184-0.697-6.343-1.227-9.526c-0.666-4.009-1.483-8.034-2.342-12.132
			c-1.956-1.724-8.876-3.023-15.932-3.279l-0.032,0.97c0.69,0.024,1.372,0.072,2.053,0.185c1.748,0.256,4.354,0.176,6.054,0.866
			C55.558,2.661,59.583,3.92,59.431,5.259z"/>
		<path fill="#6B3F43" d="M61.667,75.516c-1.291-0.826-2.485-1.724-3.64-2.654c0.842,1.716-4.178,7.922-7.818,2.157l-0.136,0.041
			c0.072,0.249,0.144,0.497,0.232,0.729c1.146,3.4,3.111,5.493,5.116,6.848c2.414-0.882,5.805-3.913,7.225-6.423
			c-0.321-0.256-0.642-0.481-0.963-0.689C61.675,75.523,61.675,75.516,61.667,75.516z"/>
		<path fill="#CCCCCC" d="M72.051,74c-0.104-2.053-0.24-4.073-0.425-6.078c-0.409-4.346-1.059-8.62-2.149-12.973
			c-4.706,0.97-9.758,1.58-14.866,1.844l0.008,0.184c-0.145,0.585,8.106,3.721,8.764,6.751c-0.577-0.048-1.307,0.152-1.893,0.128
			c0.834,2.374,4.322,5.829-1.218,5.204c0.801,1.251,1.94,5.156,1.395,6.455c0.008,0,0.008,0.008,0.016,0.008
			c0.321,0.208,0.642,0.433,0.963,0.689c0.729,0.553,1.451,1.195,2.181,1.876c1.235,1.155,2.478,2.414,3.736,3.496
			c1.251,1.083,2.518,2.004,3.817,2.494c-0.017-0.562-0.024-1.123-0.04-1.676c-0.024-0.89-0.041-1.764-0.072-2.638
			c-0.009-0.032-0.017-0.064-0.024-0.104c-0.08-0.36-0.08-0.753-0.008-1.154C72.188,76.983,72.124,75.483,72.051,74z"/>
		<path fill="#787D6F" d="M64.939,25.233c-1.636,2.405-4.867,3.825-8.387,4.65c-0.666,1.211-1.315,2.558-1.916,3.432
			c-0.041,0.064-0.088,0.121-0.128,0.185c0.473-0.096,0.938-0.2,1.387-0.321c3.359-0.882,7.064-2.357,9.269-5.404l-0.048-0.04
			C65.067,26.9,65.011,26.067,64.939,25.233z"/>
		<path fill="#754C24" d="M24.294,96.804c6.631,2.878,10.849,6.206,18.394,6.583c3.271,0.16,7.417,0.994,11.201,0.376
			c0.112-0.016,0.217-0.032,0.329-0.056c3.439-0.577,6.887-1.58,10.311-2.654c-0.104-0.241-0.2-0.497-0.288-0.77
			c-0.008,0.008-0.024,0.016-0.032,0.024c-0.24-0.096-0.177-0.161-0.024-0.225c-0.096-0.297-0.176-0.618-0.24-0.946
			c-0.032-0.144-0.057-0.296-0.08-0.441c-0.312-0.008-0.626-0.008-0.938-0.024c-12.981,5.629-27.198,5.308-39.618-4.266
			c0.192,1.114,0.433,2.101,0.433,2.157C23.925,96.644,24.118,96.724,24.294,96.804z"/>
		<path fill="#868686" d="M64.843,92.129c-0.818,1.98-1.388,4.065-0.979,6.567c0.023,0.145,0.048,0.297,0.08,0.441
			c0.064,0.329,0.145,0.649,0.24,0.946c0.017,0.064,0.04,0.136,0.057,0.2c4.69-2.918,12.268-8.972,7.216-14.842l-0.048-0.521
			c-0.714,0.08-1.396,0.256-2.005,0.521c-0.689,0.313-1.299,0.746-1.756,1.307l-0.433-0.145c-0.024,0.072-0.048,0.145-0.072,0.217
			C66.519,88.657,65.581,90.357,64.843,92.129z"/>
		<path fill="#502F32" d="M67.649,86.749c0.457-0.561,1.066-0.994,1.756-1.307c-0.104-1.443-0.353-3.047-0.842-3.856
			c-1.259-1.083-2.501-2.341-3.736-3.496c0.112,2.782,0.425,5.845-0.93,8.187c0.168,0.04,0.328,0.088,0.473,0.128
			c0.634,0.176,2.117,0.064,2.117,0.2l0.657,0.217c0.024-0.072,0.048-0.145,0.072-0.217L67.649,86.749z"/>
		<path fill="#CCCCCC" d="M76.037,85.554c-1.451-0.585-3.111-0.818-4.627-0.633l0.048,0.521c5.052,5.87-2.525,11.923-7.216,14.842
			c0.088,0.273,0.185,0.529,0.288,0.77c0.811,1.948,2.142,3.087,3.769,3.384c1.78,0.321,3.93-0.361,6.15-2.117
			c3.408-2.694,6.863-9.774,5.084-13.728c-0.064-0.145-0.137-0.281-0.209-0.409c-0.28-0.481-0.649-0.922-1.082-1.291
			C77.616,86.332,76.862,85.883,76.037,85.554z"/>
		<path fill="#868686" d="M71.626,67.922c0.185,2.005,0.32,4.025,0.425,6.078c2.028-0.826,4.618-2.854,2.614-4.996v-0.008
			c-0.834-0.537-1.845-0.914-3.031-1.075H71.626z"/>
		<path fill="#CCCCCC" d="M73.078,80.952c0.634,0.457,1.211,0.578,1.708,0.465c0.674-0.465,1.242-1.066,1.691-1.748
			c0.577-1.5,0.361-3.456-1.034-3.785c-0.2,1.812-1.9,3.271-3.175,3.769c0,0.04,0,0.072,0,0.112
			C72.388,80.23,72.645,80.639,73.078,80.952z"/>
		<path fill="#868686" d="M75.443,75.884c0.024-0.145,0.032-0.297,0.024-0.441c-1.46-0.313-2.951,1.387-3.231,3.063
			c0.008,0.385,0.023,0.762,0.032,1.146C73.542,79.156,75.243,77.696,75.443,75.884z"/>
		<path fill="#CCCCCC" d="M76.477,79.669c2.149-3.239,1.765-8.379-1.812-10.672v0.008c2.004,2.141-0.586,4.17-2.614,4.996
			c0.072,1.483,0.137,2.983,0.185,4.506c0.28-1.676,1.771-3.376,3.231-3.063c0.008,0.144,0,0.296-0.024,0.441
			C76.838,76.213,77.054,78.169,76.477,79.669z"/>
		<path fill="#868686" d="M79.116,84.616c-1.051-0.465-2.382-0.329-3.079,0.938c0.825,0.329,1.579,0.778,2.205,1.339
			C78.787,86.26,79.091,85.474,79.116,84.616z"/>
		<path fill="#CCCCCC" d="M79.596,88.561c1.885-1.563,0.963-3.319-0.48-3.945c-0.024,0.858-0.329,1.644-0.874,2.277
			c0.433,0.369,0.802,0.81,1.082,1.291c0.072,0.128,0.145,0.265,0.209,0.409L79.596,88.561z"/>
		<path fill="#B3A08D" d="M41.51,56.752c2.798,0.161,5.653,0.225,8.507,0.185c1.531-0.016,3.071-0.064,4.594-0.144
			c5.108-0.265,10.16-0.874,14.866-1.844c6.655-1.371,12.646-3.48,17.216-6.399c9.413-6.021,9.485-12.717,5.348-18.482
			c2.702,6.046-2.053,13.31-7.353,17.287c-12.829,8.019-27.262,8.82-41.398,8.099c-2.542-0.168-5.1-0.449-7.657-0.842
			c-2.646-0.297-5.244-0.689-7.818-1.179c-6.262-1.187-12.428-2.951-18.386-5.252c2.486,1.644,5.228,2.975,7.906,4.009
			c0.553,0.208,1.115,0.417,1.7,0.609c1.396,0.481,2.879,0.914,4.434,1.315c0.666,0.168,1.347,0.329,2.037,0.489
			c0.722,0.161,1.459,0.313,2.205,0.457c4.266,0.834,8.924,1.403,13.744,1.692c0,0,0,0,0.008,0
			C41.47,56.729,41.494,56.729,41.51,56.752z"/>
	</g>
	<g>
	</g>
</g>
</svg>
