<?xml version="1.0" encoding="utf-8"?>
<!-- Generator: Adobe Illustrator 14.0.0, SVG Export Plug-In  -->
<!DOCTYPE svg PUBLIC "-//W3C//DTD SVG 1.1//EN" "http://www.w3.org/Graphics/SVG/1.1/DTD/svg11.dtd" [
	<!ENTITY ns_flows "http://ns.adobe.com/Flows/1.0/">
]>
<svg version="1.1"
	 xmlns="http://www.w3.org/2000/svg" xmlns:xlink="http://www.w3.org/1999/xlink" xmlns:a="http://ns.adobe.com/AdobeSVGViewerExtensions/3.0/"
	 x="0px" y="0px" width="150px" height="150px" viewBox="-21.957 -2.911 150 150" enable-background="new -21.957 -2.911 150 150"
	 xml:space="preserve">
<defs>
</defs>
<g id="XMLID_4_">
	<g>
		<path fill="#00575F" d="M46.666,138.283c-1.718,1.635-4.5,1.781-7.708,1.469c-6.072-5.333-7.416-14.853-6.062-22.404
			c2.604-0.01,5.26,0.396,7.76,0.833c2.25,0.396,6.468,1,7.989,3.01c2.323,3.083,0.229,9.78-0.239,13.259
			C48.166,136.221,47.562,137.46,46.666,138.283z"/>
		<path fill="#422B14" d="M38.958,139.751c3.208,0.312,5.989,0.167,7.708-1.469c-0.135,0.479-0.302,0.958-0.51,1.448
			c-1.729,4.125-6.176,5.823-9.833,5.104c-3.625-0.708-7.405-0.75-8.989-4.271c-0.739-1.646-1.448-6.937-0.458-9.583
			c1.812,4.729,5.114,8.01,11.478,8.708C38.552,139.71,38.761,139.73,38.958,139.751z"/>
		<path fill="#004147" d="M26.876,130.981c-0.771-1.979-1.281-4.218-1.635-6.635c-0.677-4.583,0.01-6.135,4.875-6.812
			c0.917-0.135,1.843-0.188,2.781-0.188c-1.354,7.552-0.01,17.071,6.062,22.404c-0.198-0.021-0.406-0.042-0.604-0.062
			C31.99,138.991,28.688,135.71,26.876,130.981z"/>
	</g>
	<g>
	</g>
</g>
<g id="XMLID_3_">
	<g>
		<path fill="#004147" d="M51.184,122.416c1.062,3.281,3.896,4.01,7.489,3.875c-2.562-8.302-3.708-12.697,6.062-22.477
			c-2.083,0.104-4.166,0.427-6.145,0.781c-2.25,0.396-6.468,1-7.989,3.01c-2.323,3.083-0.229,9.78,0.239,13.259
			C50.914,121.437,51.039,121.947,51.184,122.416z"/>
		<path fill="#422B14" d="M58.673,126.291c-3.593,0.135-6.426-0.594-7.489-3.875c0.115,1.229,0.396,2.51,0.948,3.823
			c1.729,4.125,6.177,5.822,9.833,5.104c3.625-0.708,7.405-0.75,8.989-4.271c0.624-1.396,1.229-5.426,0.802-8.228
			c-1.927,3.947-5.166,6.635-10.864,7.26C60.121,126.186,59.381,126.249,58.673,126.291z"/>
		<path fill="#00575F" d="M71.755,118.843c1.125-2.323,1.802-5.062,2.25-8.083c0.677-4.583-0.011-6.135-4.875-6.812
			c-1.438-0.198-2.916-0.219-4.396-0.135c-9.77,9.78-8.624,14.175-6.062,22.477c0.708-0.042,1.448-0.104,2.219-0.188
			C66.589,125.478,69.829,122.791,71.755,118.843z"/>
	</g>
	<g>
	</g>
</g>
<g id="XMLID_2_">
	<g>
		<path fill="#B3A08D" d="M99.2,35.156c3.093,10.833,0.291,19.228-5.562,25.394c1.886-3.458,3.729-7.135,5.562-10.812
			c3.093-14.446-9.146-27.883-24.061-29.882l-0.156-1.198c8.28-0.489,14.895,6.125,20.05,10.25
			C97.116,30.99,98.158,33.073,99.2,35.156z"/>
		<path fill="#A08871" d="M77.222,35.656l-2.083-15.8c14.915,2,27.153,15.436,24.061,29.882c-1.834,3.677-3.677,7.354-5.562,10.812
			c-2.083,2.188-4.562,4.093-7.291,5.729c-1.072,0.646-2.188,1.24-3.333,1.802l-0.114-0.229
			c-11.113,3.438-23.967,5.167-36.278,3.927c-3.073-0.302-6.125-0.802-9.083-1.479C26.29,67.445,13.791,62.237,8.583,51.821
			c-5.208-9.374,1.042-18.748,7.875-25.352l-0.229-0.333c7.364-4.947,15.446-6.083,15.446-6.083l0.698,0.146l-1.614,7.989
			l-0.302-0.062c-1.521-0.562-10.457,7.333-11.457,9.374c-2.302,4.708,1.5,9.228,5.989,11.707
			c10.718,5.937,26.81,3.135,38.028,0.198c4.166-1.094,10.218-2.562,11.863-6.979c0.636-0.562,1.136-1.136,1.511-1.729
			c0.635-0.948,0.979-1.948,1.114-2.938L77.222,35.656z"/>
		<path fill="#6B3F43" d="M74.452,98.275c-0.146,0.031-0.292,0.073-0.427,0.125c-1.584,0.552-2.375,2-2.469,3.427l-0.219-0.01
			c-2.822,2.052-6.322,5.271-6.021,9.041c-0.802,0.093-1.656,0.167-2.468,0.239c-0.073,0-0.136,0.01-0.208,0.01
			c2.271-9.988,3.229-20.467,4.688-30.882c0.229-0.354,0.469-0.719,0.697-1.094c0.104,0.927,0.031,2.073,0.209,2.948
			c0.135-0.354,0.364-0.74,0.458-1.156c-0.281,1.448-0.386,3.021,0.021,4.458c0.625-0.25,1.188-0.917,1.489-1.635
			c-0.469,1.583-0.281,3.552,0.698,4.843c0.177-0.521,0.552-1.104,0.667-1.667c-0.25,1.208,0.583,3.687,2.114,2.667
			c1.177-0.781,0.76-2.948,0.094-4.198c0.166,0.167,0.344,0.292,0.541,0.5c1.136-1.25-0.302-3.416-0.791-4.801
			c2.374,1.646,1.021-2.448,0.229-3.833c0.011,0.01,0.031,0.01,0.042,0c0.136,0.042,0.261,0.083,0.396,0.125
			c0.115,0.062,0.219,0.135,0.312,0.208c0-0.042-0.01-0.083-0.021-0.125c3.052,0.865,6.51,1.354,8.916,1.958
			c4.093,1.021,8.53,1.427,12.863,1.427c0.177,2.031,2.208,5.062,2.489,7.874c0.364,3.625-0.136,6.614-1.114,10.145
			c-1.021,3.687-1.969,6.677-4.167,9.916c-1.385,2.031-3.521,4.708-6.124,6.697h-0.021c0.375-1.521,0.229-3.375-0.375-5.573
			c-0.365-1.333-0.875-2.583-1.531-3.697c-0.062-0.104-0.125-0.219-0.198-0.323c1.625-3.864,3.125-8.187,1.427-12.405
			c-0.614-1.542-2.874-4.979-4.312-5.791c-1.823-1.031-1.875,1.364-1.886,2.593c-0.104,0-0.219,0-0.333,0.031
			c0.458,0.74,0.792,1.729,0.979,2.812c-0.969,1.323-0.812,2.771-1.959,4.135c-0.739,0.865-1.708,1.677-2.687,2.302
			C75.889,98.973,75.181,98.505,74.452,98.275z"/>
		<path fill="#460F14" d="M96.262,80.85c-4.333,0-8.771-0.406-12.863-1.427c-2.406-0.604-5.864-1.094-8.916-1.958
			c0-0.062-0.011-0.125-0.031-0.188c2.812-0.052,6.78-1.927,8.666-2.729c2.76-1.177,6.385-3.343,8.051-5.968
			c4.292,3.125,8.708,8.666,8.843,12.176C98.783,80.819,97.522,80.85,96.262,80.85z"/>
		<path fill="#350B0F" d="M91.168,68.581c-1.666,2.625-5.291,4.791-8.051,5.968c-1.886,0.802-5.854,2.677-8.666,2.729
			c-0.323-1.593-2.146-4.833-1.219-5.531l-0.011-0.042c3.396-0.917,6.708-2.125,9.791-3.625c1.146-0.562,2.261-1.156,3.333-1.802
			C87.742,66.456,89.451,67.32,91.168,68.581z"/>
		<path fill="#CCCCCC" d="M73.389,108.149c0.271-1,0.739-2.01,1.354-2.875c0.104-0.01,0.208-0.031,0.322-0.062
			c0.521-0.125,0.958-0.292,1.312-0.5c1.458-0.802,1.667-2.156,1.188-3.417c0.531,0.011,1.042,0.062,1.521,0.156
			c1.146,0.198,2.177,0.636,3.104,1.24c1.208,0.792,2.218,1.896,3.03,3.197c-0.083,0.198-0.166,0.396-0.25,0.594
			c0.178-0.073,0.323-0.167,0.448-0.271c0.656,1.114,1.166,2.364,1.531,3.697c0.604,2.198,0.75,4.052,0.375,5.573
			c-0.417,1.687-1.479,2.968-3.25,3.885c-2.271,0.24-5.271-0.469-7.343-1.229c-0.698-0.25-1.292-0.51-1.719-0.739
			c0.062-1.823,1.396-3.292,2.541-4.604c-1.188,0.375-2.104,0.396-2.78,0.167C73.077,112.399,72.785,110.295,73.389,108.149z"/>
		<path fill="#502F32" d="M86.648,93.484c1.698,4.218,0.198,8.541-1.427,12.405c-0.812-1.302-1.822-2.406-3.03-3.197
			c1.541-3.667,0.614-7.021,0.041-10.729c-0.469-0.656-0.927-1.625-1.781-1.677c0.011-1.229,0.062-3.625,1.886-2.593
			C83.774,88.505,86.034,91.943,86.648,93.484z"/>
		<path fill="#868686" d="M76.733,118.138c2.072,0.76,5.072,1.469,7.343,1.229c-0.864,0.458-1.896,0.823-3.114,1.104
			c-2.719,0.625-5.802,0.781-8.28-0.135c0.333-0.146,2.312-0.427,3.364-1.427C76.316,118.648,76.545,118.398,76.733,118.138z"/>
		<path fill="#917A67" d="M70.598,72.351c-1.281,0.281-2.573,0.531-3.854,0.739c-1.396,0.229-2.791,0.406-4.166,0.531
			c-0.875,0.094-1.75,0.156-2.614,0.208c-3.01,0.177-5.937,0.125-8.666-0.136c-0.156-0.021-0.323-0.042-0.489-0.062
			c-3.417-0.406-7.197-0.927-11.083-1.677c-2.635-0.51-5.312-1.114-7.958-1.854c-1.042-0.292-2.073-0.594-3.093-0.938
			c-3.667-1.188-7.218-2.667-10.416-4.531C10.541,60.165,4.875,53.499,4.406,43.416c0.344-2.531,1.312-5.177,3.031-7.885
			c1.427-2.614,3.25-4.801,5.25-6.635c1.135-1.031,2.333-1.948,3.542-2.76l0.229,0.333C9.625,33.073,3.375,42.447,8.583,51.821
			c5.208,10.416,17.707,15.624,28.956,18.478c2.958,0.677,6.01,1.177,9.083,1.479c12.311,1.24,25.165-0.489,36.278-3.927
			l0.114,0.229c-3.083,1.5-6.396,2.708-9.791,3.625C72.347,71.934,71.473,72.153,70.598,72.351z"/>
		<path fill="#3C2326" d="M80.451,90.287c0.854,0.052,1.312,1.021,1.781,1.677c0.573,3.708,1.5,7.062-0.041,10.729
			c-0.928-0.604-1.959-1.042-3.104-1.24c2.073-1.708,2.552-5.385,2.011-8.322c-0.188-1.083-0.521-2.073-0.979-2.812
			C80.232,90.287,80.347,90.287,80.451,90.287z"/>
		<path fill="#502F32" d="M81.097,93.13c0.541,2.937,0.062,6.614-2.011,8.322c-0.479-0.094-0.989-0.146-1.521-0.156
			c-0.219-0.625-0.614-1.218-1.114-1.729c0.979-0.625,1.947-1.437,2.687-2.302C80.285,95.901,80.128,94.453,81.097,93.13z"/>
		<path fill="#CCCCCC" d="M76.452,99.567c0.5,0.511,0.896,1.104,1.114,1.729c0.479,1.26,0.271,2.615-1.188,3.417
			c-2.479-0.594-3.5-5.729-2.322-6.239L74.025,98.4c0.135-0.052,0.281-0.094,0.427-0.125C75.181,98.505,75.889,98.973,76.452,99.567
			z"/>
		<path fill="#787D6F" d="M77.222,35.656l0.281,2.104c-0.136,0.99-0.479,1.989-1.114,2.938l-0.104-0.073
			c-0.531-0.739-1.604-1.187-2.479-1.687C75.649,38.073,76.93,36.99,77.222,35.656z"/>
		<path fill="#A08871" d="M74.983,18.658l0.156,1.198l2.083,15.8c-0.292,1.333-1.573,2.417-3.416,3.281
			c-1.312-0.761-2.208-1.625-0.219-3.719c-1.625-1.208-4.083-1.26-5.885-2.343c-2.396-1.427-4.292-3.271-5.542-5.833
			c-2.292-4.687-4.5-8.78-5.666-13.759l-0.011-0.438c3.479-0.136,6.875-0.636,10.176-1.677c1.312-0.406,2.625-0.906,3.916-1.5
			c0.281-0.125,0.553-0.261,0.834-0.396c2.927-5.729-12-8.218-22.103-7.301l-0.135-1.438c1.51-0.146,3.197-0.24,5.062-0.271
			C72.295-0.08,73.337,6.169,73.337,6.169L74.983,18.658z M72.983,31.167c0.823-0.406,1.271-1.75,1.219-2.781
			c-0.083-1.688-1.323-2.5-2.094-3.917c-1.072-1.989-0.947-6.604-1.958-8.374C67.411,18.054,69.869,30.178,72.983,31.167z"/>
		<path fill="#565D4B" d="M74.878,42.427c-2.01,1.771-5.354,3.271-10.645,4.166c-2.771-0.5-6.468-3.021-8.51-4.343
			c-0.021-0.01-0.031-0.021-0.052-0.031c5.239-0.25,13.489-1.094,18.134-3.281c0.875,0.5,1.947,0.948,2.479,1.687l0.104,0.073
			C76.014,41.291,75.514,41.864,74.878,42.427z"/>
		<path fill="#868686" d="M76.733,118.138c-0.188,0.26-0.417,0.51-0.688,0.771c-1.052,1-3.031,1.281-3.364,1.427
			c-0.583-0.219-1.136-0.5-1.646-0.844c-1.344-0.906-2.354-2.292-2.823-4.302v-0.01c-0.021-0.094-0.041-0.177-0.052-0.271
			c2.322,0.406,5.729,0.146,6.562-1.812l0.053-0.136c0.677,0.229,1.593,0.208,2.78-0.167c-1.146,1.312-2.479,2.781-2.541,4.604
			C75.441,117.628,76.035,117.888,76.733,118.138z"/>
		<path fill="#868686" d="M74.744,105.275c-1.906,0.292-3.011-1.083-3.177-2.698c-0.031-0.24-0.031-0.489-0.011-0.75
			c0.094-1.427,0.885-2.875,2.469-3.427l0.031,0.073c-1.178,0.51-0.156,5.645,2.322,6.239c-0.354,0.208-0.792,0.375-1.312,0.5
			C74.952,105.244,74.847,105.265,74.744,105.275z"/>
		<path fill="#868686" d="M68.078,110.42c0.094-0.562,0.208-1.125,0.354-1.677c1.511,0.271,3.791,0.083,4.958-0.594
			c-0.604,2.146-0.312,4.25,1.386,4.812l-0.053,0.136c-0.833,1.958-4.239,2.218-6.562,1.812c-0.219-1.052-0.281-2.125-0.208-3.197
			C67.973,111.274,68.015,110.847,68.078,110.42z"/>
		<path fill="#868686" d="M71.567,102.577c0.166,1.614,1.271,2.989,3.177,2.698c-0.615,0.864-1.084,1.875-1.354,2.875
			c-1.167,0.677-3.447,0.865-4.958,0.594c0.604-2.26,1.698-4.406,3.042-6.156L71.567,102.577z"/>
		<path fill="#1A1A1A" d="M68.337,78.611c0.625-1.062,1.188-2.115,1.594-3.094c1.031,0.708,2.354,1.271,3.812,1.729
			c0,0,0,0.011,0.01,0.011c0.792,1.385,2.146,5.479-0.229,3.833c0.489,1.385,1.927,3.552,0.791,4.801
			c-0.197-0.208-0.375-0.333-0.541-0.5c-0.104-0.219-0.219-0.406-0.344-0.552c0.094,0.25,0.219,0.417,0.344,0.552
			c0.666,1.25,1.083,3.417-0.094,4.198c-1.531,1.021-2.364-1.458-2.114-2.667c-0.115,0.562-0.49,1.146-0.667,1.667
			c-0.979-1.292-1.167-3.26-0.698-4.843c-0.302,0.719-0.864,1.385-1.489,1.635c-0.406-1.438-0.302-3.01-0.021-4.458
			c-0.094,0.417-0.323,0.802-0.458,1.156c-0.178-0.875-0.104-2.021-0.209-2.948c0,0,0,0,0-0.01
			C68.129,78.955,68.234,78.777,68.337,78.611z"/>
		<path fill="#6B3F43" d="M74.483,77.465c0.011,0.042,0.021,0.083,0.021,0.125c-0.094-0.073-0.197-0.146-0.312-0.208
			C74.285,77.402,74.378,77.434,74.483,77.465z"/>
		<path fill="#460F14" d="M74.452,77.277c0.021,0.062,0.031,0.125,0.031,0.188c-0.104-0.031-0.198-0.062-0.292-0.083
			c-0.052-0.031-0.104-0.062-0.166-0.104C74.16,77.288,74.295,77.288,74.452,77.277z"/>
		<path fill="#1A1A1A" d="M74.452,77.277c-0.156,0.011-0.292,0.011-0.427,0c-0.011,0-0.011-0.01-0.011-0.01
			c-0.167-0.094-0.344-0.198-0.479-0.333c0.062,0.073,0.136,0.177,0.209,0.312c-1.459-0.458-2.781-1.021-3.812-1.729
			c0.511-1.229,0.792-2.343,0.667-3.166c0.875-0.198,1.749-0.417,2.624-0.646l0.011,0.042
			C72.306,72.445,74.128,75.684,74.452,77.277z"/>
		<path fill="#B3A08D" d="M74.202,28.386c0.052,1.031-0.396,2.375-1.219,2.781c-3.114-0.989-5.572-13.113-2.833-15.071
			c1.011,1.771,0.886,6.385,1.958,8.374C72.878,25.886,74.119,26.699,74.202,28.386z"/>
		<path fill="#460F14" d="M74.025,77.277c0.062,0.042,0.114,0.073,0.166,0.104c-0.135-0.042-0.26-0.083-0.396-0.125
			c0.073,0.01,0.146,0.021,0.219,0.01C74.014,77.267,74.014,77.277,74.025,77.277z"/>
		<path fill="#350B0F" d="M74.014,77.267c-0.073,0.01-0.146,0-0.219-0.01c-0.011,0-0.031-0.011-0.052-0.011
			c-0.073-0.135-0.146-0.239-0.209-0.312C73.67,77.069,73.847,77.173,74.014,77.267z"/>
		<path fill="#6B3F43" d="M73.795,77.257c-0.011,0.01-0.031,0.01-0.042,0c-0.01,0-0.01-0.011-0.01-0.011
			C73.764,77.246,73.785,77.257,73.795,77.257z"/>
		<path fill="#6B3F43" d="M73.431,84.839c0.125,0.146,0.239,0.333,0.344,0.552C73.65,85.256,73.525,85.089,73.431,84.839z"/>
		<path fill="#917A67" d="M73.587,35.219c-1.989,2.094-1.094,2.958,0.219,3.719c-4.646,2.187-12.895,3.031-18.134,3.281
			c-3.187-2.052-6.645-5.406-9.082-8.354c-3-3.656-3.938-7.645-5.26-11.926c-1.188-3.833-2.635-7.489-3.062-11.52l0.135-0.239
			c2.062,1.917,7.26,2.114,9.729,2.354c2.833,0.281,5.625,0.406,8.353,0.312l0.011,0.438c1.167,4.979,3.375,9.072,5.666,13.759
			c1.25,2.562,3.146,4.406,5.542,5.833C69.504,33.958,71.962,34.011,73.587,35.219z"/>
		<path fill="#917A67" d="M64.234,46.593c5.291-0.896,8.635-2.396,10.645-4.166c-1.646,4.416-7.697,5.885-11.863,6.979
			c-11.218,2.937-27.31,5.739-38.028-0.198c-4.489-2.479-8.291-6.999-5.989-11.707c1-2.042,9.937-9.937,11.457-9.374l0.302,0.062
			l-0.99,4.875l-0.073,0.333l-0.281-0.062c-1.458,1.938-4.927,4.771-2.542,8.395c1.844,2.792,5.542,4.781,8.801,5.614
			c3.167,0.812,6.593,1.083,9.947,1.094c2.271,0.01,8.614,0.312,10.832-1.062C59.422,47.239,62.005,46.968,64.234,46.593z"/>
		<path fill="#7F6C5D" d="M49.308,1.972c10.103-0.917,25.029,1.573,22.103,7.301c-0.281,0.135-0.553,0.271-0.834,0.396l-0.021-0.031
			c-1.958-4.979-6.75-5.437-11.384-6.302c-4.51-0.854-11.343-1.531-15.957,0.052l-0.052-0.136
			C44.715,2.628,46.871,2.201,49.308,1.972z"/>
		<path fill="#502F32" d="M68.431,108.743c-0.146,0.552-0.26,1.115-0.354,1.677c-0.709,0.167-1.698,0.312-2.761,0.438
			c-0.302-3.771,3.198-6.989,6.021-9.041l0.219,0.01c-0.021,0.261-0.021,0.51,0.011,0.75l-0.094,0.01
			C70.129,104.337,69.036,106.483,68.431,108.743z"/>
		<path fill="#00575F" d="M71.036,119.492l-0.136,0.208c-0.833,0.729-2.177,1.292-3.688,1.635c-1.791-1.125-3.447-3.468-3.885-5.437
			l4.885-0.708C68.681,117.201,69.692,118.586,71.036,119.492z"/>
		<path fill="#CCCCCC" d="M67.89,78.423c0.062,0.208,0.104,0.448,0.135,0.698c0,0.01,0,0.01,0,0.01
			c-0.229,0.375-0.469,0.74-0.697,1.094c-0.896,1.364-1.844,2.646-2.677,3.667c-0.448,0.344-0.833,0.792-1.042,1.25
			c-0.094,0.104-0.188,0.198-0.271,0.292c-1.823,1.958-3.635,3.864-5.354,5.885c-1.208,1.76-2.812,3.468-3.927,5.156l-0.167-0.385
			c-0.26-0.292-0.562-0.469-0.562-1c-3.583-0.583,2.948-6.822,3.448-8.541c-1.396,1.094-2.76,2.323-4.188,3.312
			c-1.739-1.948,2.115-6.042,2.573-8.312c-2.5-0.167-3.5,0.719-4.135-2.125c-0.365-1.646,1-4.698-0.261-5.468l0.042-0.323
			c0.167,0.021,0.333,0.042,0.489,0.062c2.729,0.261,5.656,0.312,8.666,0.136c0.864-0.052,1.739-0.115,2.614-0.208
			c-1.667,2-6.593,9.218-1.135,7.364c3.521-1.208,4.229-5.166,5.301-7.895c1.281-0.208,2.573-0.458,3.854-0.739
			c0.125,0.823-0.156,1.937-0.667,3.166c-0.406,0.979-0.969,2.031-1.594,3.094C68.15,78.527,67.973,78.621,67.89,78.423z"/>
		<path fill="#917A67" d="M42.059,3.795c0.323-0.198,0.688-0.375,1.104-0.542l0.052,0.136c4.614-1.583,11.447-0.906,15.957-0.052
			c4.635,0.865,9.426,1.323,11.384,6.302l0.021,0.031c-1.291,0.593-2.604,1.093-3.916,1.5c2.812-5.25-7.531-6.53-10.426-6.999
			c-2.958-0.479-6.291-0.406-9.374-0.261c-2.312,0.104-5.322,1.625-7.291,1.302l-0.042-0.062c0.823-0.49,1.75-0.917,2.531-1.365
			V3.795z"/>
		<path fill="#754C24" d="M68.161,114.909c0.011,0.094,0.031,0.177,0.052,0.271v0.01l-4.885,0.708l-2.885,0.417l-3.083,0.448
			l1.177-3.854c2.937-0.167,6.895,0.073,9.416-1.198C67.879,112.785,67.942,113.857,68.161,114.909z"/>
		<path fill="#CCCCCC" d="M68.337,78.611c-0.104,0.167-0.208,0.344-0.312,0.51c-0.031-0.25-0.072-0.49-0.135-0.698
			C67.973,78.621,68.15,78.527,68.337,78.611z"/>
		<path fill="#42210B" d="M65.317,110.858c1.062-0.125,2.052-0.271,2.761-0.438c-0.062,0.427-0.104,0.854-0.125,1.292
			c-2.521,1.271-6.479,1.031-9.416,1.198l0.479-1.562c0.354-0.01,1.052-0.052,1.927-0.115c0.51-0.031,1.083-0.073,1.688-0.114
			c-0.021,0.094-0.042,0.198-0.062,0.292c0.135,0.365,0.146-0.094,0.281-0.312C63.661,111.024,64.515,110.951,65.317,110.858z"/>
		<path fill="#A08871" d="M56.234,4.17c2.896,0.469,13.239,1.75,10.426,6.999c-3.302,1.042-6.697,1.542-10.176,1.677
			c-2.729,0.094-5.52-0.031-8.353-0.312c-2.469-0.24-7.666-0.438-9.729-2.354c-0.135-0.125-0.26-0.261-0.364-0.406
			c-1.677-2.239-0.333-3.562,1.489-4.625l0.042,0.062c1.969,0.323,4.979-1.198,7.291-1.302C49.943,3.764,53.276,3.69,56.234,4.17z"
			/>
		<path fill="#E9CFD2" d="M61.161,109.316c-1.864,0-0.771-1.979,0.344-2.333c-1.729-1.333-1.177-2.687,0.74-3.604
			c-2.146-0.656-0.417-2.646,0.781-3.26c-1.833-0.656-1.135-2.51,0.354-3.292c-2.156-1.156-1.406-2.604,0.521-3.521
			c-2.948-0.094-0.364-2.698,0.375-3.427c-2.271-1.583-1.312-1.167,0.365-2.771c-1.219-0.385-1.385-1.198-1.031-1.969
			c0.302-0.344,0.667-0.771,1.042-1.25c0.833-1.021,1.781-2.302,2.677-3.667c-1.458,10.416-2.417,20.894-4.688,30.882l-0.01,0.011
			c-0.604,0.042-1.177,0.083-1.688,0.114v-0.031c-0.083,0-0.167-0.01-0.25-0.042C60.317,110.472,60.641,109.795,61.161,109.316z"/>
		<path fill="#E6E6E6" d="M66.744,73.09c-1.072,2.729-1.781,6.687-5.301,7.895c-5.458,1.854-0.531-5.364,1.135-7.364
			C63.953,73.497,65.348,73.319,66.744,73.09z"/>
		<path fill="#004147" d="M60.672,121.034c0.448-1.333,0.114-3.333-0.229-4.718l2.885-0.417c0.438,1.969,2.094,4.312,3.885,5.437
			c-2.271,0.531-4.937,0.583-6.874,0.062C60.463,121.284,60.578,121.159,60.672,121.034z"/>
		<path fill="#A08871" d="M49.183,110.17c-3.302,0.062-6.104,0.114-6.104,0.114l0.427,1.604c-1.073,0-2.031-0.021-2.896-0.073
			c0.365-0.989-0.26-1.604-1.406-1.344c0.375-0.844,2.541-3.385,0.125-3.312c0.51-0.823,1.51-1.125,1.198-2.396
			c-0.219-0.906-1-1.333-1.854-1.344c0.448-0.448,1.812-1.146,1.698-1.948c-0.136-0.844-1.792-1.073-2.438-1.073
			c0.76-1.396,4.5-3.593,0.698-4.646c0.448-0.833,1.438-0.917,1.333-2.062c-0.073-0.781-1.219-1.593-1.979-1.593
			c0.396-0.344,0.938-0.656,1.385-1.031c3.073,3.614,7.53,6.239,11.03,9.437c0.094-1.739,0.104-3.635,0.104-5.458l0.312-0.281
			c0.865,0.968,1.719,1.937,2.552,2.885c0.198-0.396,0.427-0.781,0.688-1.177c1.115-1.688,2.719-3.396,3.927-5.156
			c1.719-2.021,3.531-3.927,5.354-5.885c0.083-0.094,0.177-0.188,0.271-0.292c-0.354,0.771-0.188,1.583,1.031,1.969
			c-1.677,1.604-2.635,1.188-0.365,2.771c-0.739,0.729-3.323,3.333-0.375,3.427c-1.927,0.917-2.677,2.364-0.521,3.521
			c-1.49,0.781-2.188,2.635-0.354,3.292c-1.198,0.614-2.927,2.604-0.781,3.26c-1.917,0.917-2.469,2.271-0.74,3.604
			c-1.114,0.354-2.208,2.333-0.344,2.333c-0.521,0.479-0.844,1.156-0.469,1.844c0.083,0.031,0.167,0.042,0.25,0.042v0.031
			c-0.875,0.062-1.573,0.104-1.927,0.115l0.427-1.375c0,0-4.156,0.094-8.249,0.167C50.516,110.149,49.839,110.16,49.183,110.17z"/>
		<path fill="#00575F" d="M60.338,121.398c-0.635,0.625-1.406,1.125-2.281,1.521v-0.01c-3.281,1.208-8.291,0.271-11.467-0.51
			c-1.771-0.438-3.958-1.562-5.406-2.677c-0.969-0.739-1.844-2.218-2.823-3.197c2.052,0.427,4.114,0.812,6.301,0.719l0.25-0.062
			l0.385,1.458l6.854,0.062l4.604,0.042l0.604-1.979l3.083-0.448c0.344,1.385,0.677,3.385,0.229,4.718
			C60.578,121.159,60.463,121.284,60.338,121.398z"/>
		<path fill="#BA8606" d="M58.537,112.91l-1.177,3.854l-0.604,1.979l-4.604-0.042v-0.042c-1.864-0.219-4.26-0.99-5.697-1.938
			c0.083-1.417-1.094-3.729-0.25-5.052c0.354-0.573,2.115-1.343,2.979-1.5c0.656-0.011,1.333-0.021,2.01-0.031
			c4.093-0.073,8.249-0.167,8.249-0.167l-0.427,1.375L58.537,112.91z M53.683,115.565c2.125-1.593,1.635-3.916-0.021-3.635
			c0.021-0.062,0.031-0.125,0.042-0.188C50.412,111.316,49.277,118.888,53.683,115.565z"/>
		<path fill="#004147" d="M36.986,122.555l0.104-0.229c-2-0.833-2.958-4.5-2.989-6.624c1.448,0.208,2.854,0.521,4.26,0.823
			c0.979,0.979,1.854,2.458,2.823,3.197c1.448,1.115,3.635,2.24,5.406,2.677c3.177,0.781,8.187,1.718,11.467,0.51v0.01
			c-0.906,0.406-1.917,0.708-2.968,0.938c-2.812,0.594-5.927,0.615-8.125,0.698c-3.437,0.125-7.437-0.323-10.738-1.906
			C36.518,122.617,36.778,122.586,36.986,122.555z"/>
		<path fill="#2B2F25" d="M56.453,47.374c-1.448,0.073-3,0.104-4.645,0.104c-19.446,0-22.571-11.801-22.571-11.801l0.458-2.281
			l0.073-0.333c1.062,2.604,5.437,5.906,7.364,6.874c3.875,1.948,9.884,2.115,14.332,2.333c0.802,0.042,2.312,0.031,4.208-0.052
			c0.021,0.01,0.031,0.021,0.052,0.031c2.042,1.323,5.739,3.843,8.51,4.343C62.005,46.968,59.422,47.239,56.453,47.374z"/>
		<path fill="#B3B3B3" d="M51.027,79.423c0.635,2.843,1.635,1.958,4.135,2.125c-0.458,2.271-4.312,6.364-2.573,8.312
			c1.427-0.99,2.792-2.219,4.188-3.312c-0.5,1.719-7.031,7.958-3.448,8.541c0,0.531,0.302,0.708,0.562,1l0.167,0.385
			c-0.26,0.396-0.489,0.781-0.688,1.177c-0.833-0.948-1.687-1.917-2.552-2.885c-3.375-3.792-6.947-7.739-10.28-11.895l0.073-0.062
			c-0.604-1.937-0.156-4.146-0.771-5.937c-0.312-0.896-1.5-0.604-1.583-2.135c-0.062-0.885,0.823-2.187,1.469-2.781
			c3.885,0.75,7.666,1.271,11.083,1.677l-0.042,0.323C52.027,74.726,50.662,77.777,51.027,79.423z"/>
		<path fill="#D6B66A" d="M53.662,111.931c1.656-0.281,2.146,2.042,0.021,3.635c-4.406,3.323-3.271-4.25,0.021-3.822
			C53.693,111.806,53.683,111.868,53.662,111.931z"/>
		<path fill="#7F6C5D" d="M51.808,47.478c1.646,0,3.197-0.031,4.645-0.104c-2.218,1.375-8.562,1.073-10.832,1.062
			c-3.354-0.011-6.781-0.281-9.947-1.094c-3.26-0.833-6.958-2.823-8.801-5.614c-2.385-3.625,1.083-6.458,2.542-8.395l0.281,0.062
			l-0.458,2.281C29.237,35.677,32.362,47.478,51.808,47.478z"/>
		<path fill="#7F6C5D" d="M42.059,3.784c-0.781,0.448-1.708,0.875-2.531,1.365c-1.823,1.062-3.167,2.385-1.489,4.625
			c0.104,0.146,0.229,0.281,0.364,0.406l-0.135,0.239c0.427,4.031,1.875,7.687,3.062,11.52c1.323,4.281,2.26,8.27,5.26,11.926
			c2.437,2.948,5.895,6.302,9.082,8.354c-1.896,0.083-3.406,0.094-4.208,0.052c-4.448-0.219-10.458-0.386-14.332-2.333
			c-1.927-0.968-6.302-4.27-7.364-6.874l0.99-4.875l1.614-7.989l2.771-13.687c0,0,0.833-4.75,14.03-5.979l0.135,1.438
			c-2.438,0.229-4.593,0.656-6.145,1.281c-0.417,0.167-0.781,0.344-1.104,0.542V3.784z M35.341,30.25v-0.01
			c0.656-1.448,2.448-4.198,2.677-5.677c0.292-1.896,0.396-6.926-1.49-6.937l-0.083,0.604c-1.333,0.906-0.594,2.875-0.781,4.166
			c-0.26,1.74-0.958,3.094-1.635,4.688c-0.292,0.698-1.739,3.041-1.51,3.635C33.06,32.115,34.278,30.907,35.341,30.25z"/>
		<path fill="#966C0F" d="M43.777,112.93l-0.271-1.042l-0.427-1.604c0,0,2.802-0.052,6.104-0.114
			c-0.864,0.156-2.625,0.927-2.979,1.5c-0.844,1.323,0.333,3.635,0.25,5.052c1.438,0.948,3.833,1.719,5.697,1.938v0.042
			l-6.854-0.062l-0.385-1.458L43.777,112.93z"/>
		<path fill="#7F6C5D" d="M50.818,94.766l-0.312,0.281c0,1.823-0.01,3.718-0.104,5.458c-3.5-3.198-7.958-5.822-11.03-9.437
			c0.417-0.344,0.75-0.729,0.802-1.229c0.125-1.042-0.75-2-1.708-2.114c1.302-0.917,0.938-2.354-0.396-3.271
			c2.218-0.802,1.729-2.031,0.718-3.344l0.219-0.167c0.5,0.646,1.01,1.292,1.531,1.927C43.871,87.026,47.444,90.974,50.818,94.766z"
			/>
		<path fill="#754C24" d="M32.216,115.493c-0.396-0.031-0.792-0.042-1.187-0.042c0.073-0.281,0.135-0.583,0.187-0.875
			c0.083-0.427,0.136-0.854,0.177-1.292c0.031-0.261,0.052-0.531,0.062-0.792c1.573-0.386,4.187,0.417,5.771,0.437
			c2.104,0.021,4.343,0,6.551,0l1.135,4.25l-0.25,0.062c-2.187,0.094-4.25-0.292-6.301-0.719c-1.406-0.302-2.812-0.615-4.26-0.823
			C33.487,115.607,32.852,115.534,32.216,115.493z"/>
		<path fill="#42210B" d="M43.506,111.889l0.271,1.042c-2.208,0-4.447,0.021-6.551,0c-1.583-0.021-4.198-0.823-5.771-0.437
			c0.031-0.438,0.042-0.865,0.042-1.302c-0.146-0.281-0.25-0.614-0.323-0.958c2.906,0.625,4.875,1.156,7.551,1.427
			c0.562,0.062,1.167,0.115,1.812,0.146c-0.01,0.073-0.01,0.135-0.01,0.198c0.031-0.062,0.052-0.125,0.083-0.188
			C41.476,111.868,42.434,111.889,43.506,111.889z"/>
		<path fill="#E9CFD2" d="M40.538,111.806c-0.646-0.031-1.25-0.083-1.812-0.146c-3.041-8.062-2.114-16.436-1.989-24.852
			c0.646,1.583,1.552,2.979,2.635,4.26c-0.448,0.375-0.99,0.688-1.385,1.031c0.76,0,1.906,0.812,1.979,1.593
			c0.104,1.146-0.885,1.229-1.333,2.062c3.802,1.052,0.062,3.25-0.698,4.646c0.646,0,2.302,0.229,2.438,1.073
			c0.114,0.802-1.25,1.5-1.698,1.948c0.854,0.01,1.635,0.438,1.854,1.344c0.312,1.271-0.688,1.573-1.198,2.396
			c2.416-0.073,0.25,2.468-0.125,3.312c1.146-0.26,1.771,0.354,1.406,1.344C40.59,111.816,40.559,111.816,40.538,111.806z"/>
		<path fill="#868686" d="M34.216,74.184c-0.198-0.281-0.375-0.562-0.542-0.854c-0.677-1.062-1.302-2.135-1.906-3.229
			c2.646,0.74,5.322,1.344,7.958,1.854c-0.646,0.594-1.531,1.896-1.469,2.781c0.083,1.531,1.271,1.24,1.583,2.135
			c0.614,1.792,0.167,4,0.771,5.937l-0.073,0.062c-0.521-0.635-1.031-1.281-1.531-1.927c-0.802-1.042-1.593-2.094-2.354-3.156
			C35.799,76.601,34.986,75.403,34.216,74.184z"/>
		<path fill="#AF9B9E" d="M38.788,81.11c1.011,1.312,1.5,2.542-0.718,3.344c1.333,0.917,1.698,2.354,0.396,3.271
			c0.958,0.114,1.833,1.073,1.708,2.114c-0.052,0.5-0.385,0.885-0.802,1.229c-1.083-1.281-1.989-2.677-2.635-4.26
			c0.062-2.937,0.01-5.885-0.344-8.833l0.26-0.187c0.761,1.062,1.552,2.114,2.354,3.156L38.788,81.11z"/>
		<path fill="#6D5D52" d="M36.528,17.627c1.885,0.01,1.781,5.041,1.49,6.937c-0.229,1.479-2.021,4.229-2.677,5.677v0.01
			c-1.062,0.656-2.281,1.865-2.823,0.469c-0.229-0.594,1.219-2.937,1.51-3.635c0.677-1.594,1.375-2.948,1.635-4.688
			c0.188-1.292-0.552-3.26,0.781-4.166L36.528,17.627z"/>
		<path fill="#00575F" d="M37.09,122.325l-0.104,0.229c-0.208,0.031-0.469,0.062-0.76,0.094c-1.51-0.719-2.875-1.677-3.968-2.927
			c0.135-1.427-0.177-3.083-0.042-4.229c0.636,0.042,1.271,0.115,1.885,0.208C34.132,117.826,35.091,121.492,37.09,122.325z"/>
		<path fill="#502F32" d="M36.393,77.975c0.354,2.948,0.406,5.896,0.344,8.833c-0.083-0.219-0.167-0.437-0.24-0.667
			c-0.968-2.854-2.437-5.395-3.864-7.937c0-0.042-0.011-0.073-0.021-0.104c0.042,0.104,0.115,0.146,0.219,0.136
			c0.521-1.083,0.156-2.292,0.094-3.427c0.323,0.156,0.885,0.031,1.229,0.156c0.021-0.229,0.052-0.511,0.062-0.781
			c0.771,1.219,1.583,2.417,2.437,3.604L36.393,77.975z"/>
		<path fill="#6B3F43" d="M26.123,97.4c-0.01,0.011-0.01,0.011-0.01,0.011c-0.396,0.042-0.781,0.125-1.177,0.229
			c-1.99-0.312-2.531-5.802-2.052-7.562c-0.5-0.156-1.031-0.177-1.542-0.042c-1.239,3.167-2.198,6.896-0.646,10.176
			c-1.312,1.614-2.927,2.927-4.427,4.354c-1.198-1.239-3.76-6.614-5.302-6.437c-1.875-7.177,2.948-11.853,6.989-17.145l-0.146-0.927
			c2.667-0.438,5.26-1.052,7.708-1.969c0.302,0.042,0.583,0.062,0.844,0.073c-0.125,0.312-0.25,0.625-0.406,0.927
			c0.271-0.177,0.75-0.323,1.031-0.542c-0.219,1.812-1.281,3.687-1.239,5.562c0.635-0.49,1.083-1.198,1.5-1.875
			c-0.021,1.75-0.021,3.479,0.479,5.104c0.198-0.406,0.708-1.073,0.823-1.635c-0.177,0.885,0.104,1.667,0.864,2.115
			c0.771-0.708,0.76-2.115,0.635-3.198c0.354,0.719,0.812,1.448,1.479,1.844c1.156-0.854,0.875-3.229,0.521-4.448
			c0.208,0.302,0.594,0.531,0.792,0.771c0.104-1.51,0.135-3.125-0.208-4.583c1.427,2.542,2.896,5.083,3.864,7.937
			c0.073,0.229,0.156,0.448,0.24,0.667c-0.125,8.416-1.052,16.791,1.989,24.852c-2.677-0.271-4.645-0.802-7.551-1.427
			c-0.114-0.5-0.177-1.042-0.239-1.604c-0.042-0.323-0.073-0.646-0.115-0.969c-0.188-1.479-0.531-2.844-1.885-3.281
			c0.469-0.468,0.927-0.927,1.396-1.385c0.042-0.052,0.083-0.094,0.125-0.135C31.737,98.38,29.081,97.046,26.123,97.4z"/>
		<path fill="#004147" d="M32.258,119.721c1.093,1.25,2.458,2.208,3.968,2.927c-2.448,0.229-7.333,0.167-8.635-1.562l-0.125-0.188
			c1.958-1.354,3.031-3.292,3.562-5.447c0.396,0,0.792,0.01,1.187,0.042C32.081,116.638,32.393,118.294,32.258,119.721z"/>
		<path fill="#1A1A1A" d="M34.216,74.184c-0.01,0.271-0.042,0.552-0.062,0.781c-0.344-0.125-0.906,0-1.229-0.156
			c0.062,1.135,0.427,2.343-0.094,3.427c-0.104,0.01-0.177-0.031-0.219-0.136c0-0.01-0.01-0.031-0.01-0.042
			c-0.083-0.073-0.083-0.073-0.011,0.021c0,0.01,0.011,0.01,0.021,0.021c0.01,0.031,0.021,0.062,0.021,0.104
			c-0.531-0.958-1.073-1.917-1.573-2.885c0.917-0.594,1.792-1.26,2.614-1.989C33.841,73.622,34.018,73.903,34.216,74.184z"/>
		<path fill="#1A1A1A" d="M26.362,78.163c0.062-0.156,0.115-0.312,0.167-0.468c1.583-0.646,3.104-1.427,4.531-2.375
			c0.5,0.969,1.042,1.927,1.573,2.885c0.343,1.458,0.312,3.073,0.208,4.583c-0.198-0.24-0.583-0.469-0.792-0.771
			c0.354,1.219,0.635,3.593-0.521,4.448c-0.667-0.396-1.125-1.125-1.479-1.844c0.125,1.083,0.136,2.489-0.635,3.198
			c-0.76-0.448-1.042-1.229-0.864-2.115c-0.115,0.562-0.625,1.229-0.823,1.635c-0.5-1.625-0.5-3.354-0.479-5.104
			c-0.417,0.677-0.864,1.385-1.5,1.875c-0.042-1.875,1.021-3.75,1.239-5.562c-0.281,0.219-0.76,0.364-1.031,0.542
			C26.112,78.788,26.237,78.475,26.362,78.163z"/>
		<path fill="#1A1A1A" d="M28.956,70.247c-0.104-0.354-0.198-0.719-0.281-1.083c1.021,0.344,2.052,0.646,3.093,0.938
			c0.604,1.094,1.229,2.167,1.906,3.229c-0.823,0.729-1.698,1.396-2.614,1.989C30.227,73.694,29.487,72.039,28.956,70.247z"/>
		<path fill="#502F32" d="M32.602,78.059c0,0.01,0.01,0.031,0.01,0.042c-0.01-0.01-0.021-0.01-0.021-0.021
			C32.518,77.986,32.518,77.986,32.602,78.059z"/>
		<path fill="#CCCCCC" d="M31.456,112.493c-0.01,0.26-0.031,0.531-0.062,0.792l-0.156-0.011c-1.271,1.885-7.405,1.198-9.864,1.344
			c0.438,1.24,2.167,1.479,3.354,1.781l0.01,0.146c2.417-0.083,4.552-0.468,6.479-1.968c-0.052,0.292-0.114,0.594-0.187,0.875
			c-0.531,2.156-1.604,4.093-3.562,5.447c-0.239,0.177-0.489,0.333-0.76,0.479l-0.156-0.292c-0.094,0.052-0.229,0.073-0.406,0.073
			c-0.01,0.011-0.021,0.021-0.031,0.011c-1.219,0.042-4.104-0.854-5.229-1.708c-2.688-2.083-1.552-3.572-0.365-6.125
			c-5.5-4.25-3.052-7.676,0.354-12.77c-0.062-0.114-0.125-0.239-0.177-0.354c0.135-0.156,0.26-0.312,0.385-0.479
			c0.958-0.958,2.385-1.708,3.854-2.094c0.396-0.104,0.781-0.188,1.177-0.229c-0.271,0.188-0.5,0.417-0.677,0.646
			c-3.292,1.312-3.083,4.094-1.229,6.885c1.042,1.042,2.083,1.042,3.125,1.042c0.531-0.531,1.073-1.073,1.604-1.604
			c1.354,0.438,1.698,1.802,1.885,3.281c0.042,0.323,0.073,0.646,0.115,0.969c0.062,0.562,0.125,1.104,0.239,1.604
			c0.073,0.344,0.177,0.677,0.323,0.958C31.497,111.628,31.487,112.056,31.456,112.493z"/>
		<path fill="#868686" d="M31.237,113.274l0.156,0.011c-0.042,0.438-0.094,0.864-0.177,1.292c-1.927,1.5-4.062,1.885-6.479,1.968
			l-0.01-0.146c-1.188-0.302-2.917-0.542-3.354-1.781C23.832,114.472,29.966,115.159,31.237,113.274z"/>
		<path fill="#CCCCCC" d="M25.436,98.057c0.177-0.229,0.406-0.458,0.677-0.646c0,0,0,0,0.01-0.011
			c2.958-0.354,5.614,0.979,4.333,5.458c-0.042,0.042-0.083,0.083-0.125,0.135l-0.135-0.135
			C26.915,105.525,23.383,100.744,25.436,98.057z"/>
		<path fill="#868686" d="M28.935,104.379c-0.531,0.531-1.073,1.073-1.604,1.604c-1.042,0-2.083,0-3.125-1.042
			c-1.854-2.791-2.062-5.572,1.229-6.885c-2.052,2.688,1.479,7.468,4.76,4.802l0.135,0.135
			C29.862,103.452,29.404,103.911,28.935,104.379z"/>
		<path fill="#1A1A1A" d="M28.956,70.247c0.531,1.792,1.271,3.447,2.104,5.072c-1.427,0.948-2.948,1.729-4.531,2.375
			c0.438-1.219,0.771-2.469,1.552-3.542c-0.229,0.146-0.573,0.26-0.812,0.385C27.654,73.069,28.081,71.351,28.956,70.247z"/>
		<path fill="#350B0F" d="M28.675,69.164c0.083,0.365,0.177,0.729,0.281,1.083c-0.875,1.104-1.302,2.822-1.688,4.291
			c0.24-0.125,0.583-0.239,0.812-0.385c-0.781,1.073-1.115,2.323-1.552,3.542c-0.333,0.146-0.667,0.271-1.01,0.396
			c-2.531-0.344-6.27-1.635-7.562-2.323c-1.917-1.01-7.146-3.135-8.676-5.458c2.614-2.375,5.531-4.323,8.978-5.677
			C21.457,66.497,25.008,67.976,28.675,69.164z"/>
		<path fill="#868686" d="M12.197,110.327c0.5-1.479,1.271-2.688,2.177-3.771c0.583-0.708,1.229-1.354,1.896-1.99
			c1.5-1.427,3.114-2.739,4.427-4.354c0.052,0.115,0.114,0.24,0.177,0.354c-3.406,5.093-5.854,8.52-0.354,12.77
			c-1.188,2.552-2.323,4.042,0.365,6.125c1.125,0.854,4.01,1.75,5.229,1.708c0.01,0.01,0.021,0,0.031-0.011
			c0.177,0,0.312-0.021,0.406-0.073l0.156,0.292c-0.135,0.083-0.271,0.156-0.417,0.229c-3.125,1.042-5.208,2.083-8.333,2.083
			c-3.125,0-5.208-2.083-6.25-5.208c0-2.083,0-4.166,0-6.25C11.822,111.545,11.989,110.92,12.197,110.327z"/>
		<path fill="#6B3F43" d="M26.529,77.694c-0.052,0.156-0.104,0.312-0.167,0.468c-0.26-0.01-0.542-0.031-0.844-0.073
			C25.862,77.965,26.196,77.84,26.529,77.694z"/>
		<path fill="#502F32" d="M22.883,90.078c-0.479,1.76,0.062,7.25,2.052,7.562c-1.469,0.385-2.896,1.135-3.854,2.094
			c-0.125,0.167-0.25,0.323-0.385,0.479c-1.552-3.281-0.594-7.01,0.646-10.176C21.853,89.901,22.384,89.922,22.883,90.078z"/>
		<path fill="#460F14" d="M6.458,80.944c-0.719,0.01-1.427,0.021-2.135,0.031c-1.375,0.01-2.739,0.01-4.073,0.01
			c2.854-3.989,5.698-7.666,9.031-10.676c1.531,2.322,6.76,4.447,8.676,5.458c1.292,0.688,5.031,1.979,7.562,2.323
			c-2.448,0.917-5.041,1.531-7.708,1.969C14.082,80.652,10.229,80.871,6.458,80.944z"/>
		<path fill="#502F32" d="M17.811,80.059l0.146,0.927c-4.042,5.292-8.864,9.968-6.989,17.145c1.542-0.177,4.104,5.197,5.302,6.437
			c-0.667,0.636-1.312,1.281-1.896,1.99l-0.062-0.052c-2.25,1.583-7.416-8.666-8.01-10.478c-1.677-5.114-0.969-9.937,0.156-15.082
			C10.229,80.871,14.082,80.652,17.811,80.059z"/>
		<path fill="#3C2326" d="M14.312,106.504l0.062,0.052c-0.906,1.083-1.677,2.292-2.177,3.771
			c-6.999-7.156-10.811-18.228-7.874-28.81v-0.542c0.708-0.01,1.417-0.021,2.135-0.031c-1.125,5.146-1.833,9.968-0.156,15.082
			C6.896,97.838,12.062,108.087,14.312,106.504z"/>
	</g>
	<g>
	</g>
</g>
</svg>
