<?xml version="1.0" encoding="utf-8"?>
<!-- Generator: Adobe Illustrator 14.0.0, SVG Export Plug-In  -->
<!DOCTYPE svg PUBLIC "-//W3C//DTD SVG 1.1//EN" "http://www.w3.org/Graphics/SVG/1.1/DTD/svg11.dtd" [
	<!ENTITY ns_flows "http://ns.adobe.com/Flows/1.0/">
]>
<svg version="1.1"
	 xmlns="http://www.w3.org/2000/svg" xmlns:xlink="http://www.w3.org/1999/xlink" xmlns:a="http://ns.adobe.com/AdobeSVGViewerExtensions/3.0/"
	 x="0px" y="0px" width="150px" height="150px" viewBox="-25.272 -4.663 150 150" enable-background="new -25.272 -4.663 150 150"
	 xml:space="preserve">
<defs>
</defs>
<g id="XMLID_3_">
	<g>
		<path fill="#00575F" d="M46.237,127.231c-2.223,1.346-4.801,0.627-7.579-0.757c-3.324-8.112-0.658-19.564,3.647-27.877
			c2.362,0.818,4.602,2.136,6.687,3.439c1.876,1.176,5.45,3.221,6.007,6.034c0.846,4.311-3.781,11.398-5.624,15.277
			C48.437,125.322,47.384,126.564,46.237,127.231z"/>
		<path fill="#422B14" d="M45.185,128.745c-3.248,4.225-7.968,4.772-10.985,2.774c-2.994-1.976-6.4-3.23-6.398-7.812
			c0.001-2.142,1.518-8.494,3.493-11.242c-0.287,6.054,1.365,10.906,6.843,13.744c0.171,0.087,0.351,0.178,0.521,0.265
			c2.778,1.385,5.355,2.103,7.579,0.757C45.919,127.743,45.573,128.245,45.185,128.745z"/>
		<path fill="#004147" d="M42.306,98.597c-4.306,8.312-6.971,19.765-3.647,27.877c-0.17-0.087-0.351-0.178-0.521-0.265
			c-5.479-2.838-7.13-7.69-6.843-13.744c0.109-2.538,0.561-5.293,1.225-8.205c1.256-5.523,2.511-7.101,7.192-6.333
			C40.597,98.062,41.458,98.298,42.306,98.597z"/>
	</g>
	<g>
	</g>
</g>
<g id="XMLID_2_">
	<g>
		<path fill="#00575F" d="M68.275,125.596c-0.898,2.852-3.604,3.81-6.958,4.263c-7.295-4.861-11.498-15.843-12.583-25.142
			c2.416-0.644,5.009-0.806,7.467-0.893c2.212-0.076,6.319-0.382,8.355,1.637c3.114,3.099,3.248,11.562,3.892,15.808
			C68.72,123.061,68.643,124.469,68.275,125.596z"/>
		<path fill="#422B14" d="M68.549,129.925c-0.326,5.319-4.483,6.577-8.103,6.61c-3.587,0.038-7.112,0.906-9.675-2.892
			c-1.198-1.775-3.498-7.889-3.399-11.271c3.151,5.177,7.236,8.273,13.364,7.558c0.19-0.023,0.39-0.049,0.581-0.072
			c3.354-0.453,6.06-1.411,6.958-4.263C68.521,127.051,68.639,128.527,68.549,129.925z"/>
		<path fill="#004147" d="M60.736,129.931c-6.128,0.715-10.213-2.38-13.364-7.558c-1.33-2.164-2.499-4.7-3.578-7.484
			c-2.051-5.28-1.894-7.29,2.415-9.274c0.809-0.383,1.654-0.67,2.525-0.897c1.085,9.298,5.288,20.281,12.583,25.142
			C61.126,129.882,60.927,129.908,60.736,129.931z"/>
	</g>
	<g>
	</g>
</g>
<g id="XMLID_1_">
	<g>
		<path fill="#B3B3B3" d="M71.439,54.107c1.556-0.393,3.039-0.826,4.435-1.307c0.673,1.371,3.921,5.324,4.193,7.104
			c-2.085,0.176-3.985,0.088-5.629-0.97C73.452,57.274,72.329,55.654,71.439,54.107z"/>
		<path fill="#B3B3B3" d="M76.515,63.608c0.578,2.502,1.171,11.747-3.215,11.129c-2.045-5.236-1.916-11.33-3.079-16.999
			c-0.217-1.059-0.481-2.109-0.817-3.135c0.689-0.16,1.371-0.321,2.036-0.497c0.89,1.547,2.013,3.167,2.999,4.827
			C75.36,60.474,76.154,62.037,76.515,63.608z"/>
		<path fill="#00575F" d="M65.995,105.584c-4.586,3.047-9.558,5.661-14.962,6.495c0,0,0,0-0.008,0
			c-1.804-0.296-3.873-1.163-5.124-2.133c-1.812-1.411-5.124-3.464-5.212-6.238c0.112,0.024,0.216,0.04,0.329,0.056
			c3.785,0.618,7.93-0.216,11.202-0.377c7.545-0.377,11.763-3.704,18.394-6.583c0.249,2.173-2.236,8.523-4.41,9.101L65.995,105.584z
			"/>
		<path fill="#6B3F43" d="M68.072,69.903c1.459-4.49,2.188-9.157,1.908-12.116l0.24-0.048c1.163,5.669,1.034,11.763,3.079,16.999
			l-0.177,0.088c1.917,3.384,2.142,10.792,0.923,14.457c-0.417,1.251-1.203,2.349-2.205,3.344c-1.845,1.844-4.395,3.319-6.552,4.667
			l-0.144-0.225c2.068-3.416,4.001-6.623,4.418-10.825C69.836,83.55,70.093,71.667,68.072,69.903z"/>
		<path fill="#787D6F" d="M64.896,29.699c2.101-0.489,4.21-1.235,5.084-2.51l0.088-0.016c0.088,0.609,0.217,1.187,0.393,1.724
			c-0.753,1.002-1.676,1.804-2.726,2.454C66.741,30.846,65.795,30.292,64.896,29.699z"/>
		<path fill="#502F32" d="M64.119,78.322c1.596-2.301,2.95-5.316,3.953-8.419c2.021,1.764,1.764,13.647,1.491,16.341
			c-0.417,4.202-2.35,7.409-4.418,10.825l0.144,0.225c-0.224,0.136-0.44,0.272-0.649,0.409c-7.4,4.731-20.326,5.268-27.775,0.65
			c0.048,0,0.104-0.008,0.16-0.016h0.008c5.228-0.569,10.592-1.844,15.187-3.985c3.664-1.7,6.054-3.488,8.443-7.16
			C61.761,85.522,63.75,79.541,64.119,78.322z"/>
		<path fill="#B3A08D" d="M67.086,7.216c0.225,1.572,0.44,3.208,0.729,4.811l-0.265,0.048c-0.048,1.667-1.443,3.263-1.227,5.236
			c0.256,2.261,2.438,3.448,1.234,5.95c-3.896-1.909-4.281-13.455-0.81-15.997L67.086,7.216z"/>
		<path fill="#460F14" d="M64.119,78.322c-0.954,1.371-1.989,2.485-3.095,3.223c-0.393-0.521-0.802-1.05-1.235-1.596
			c-0.842-2.838-0.962-6.631-1.371-9.341c-0.425-2.822-1.267-9.221,0.072-12.003c3.608-0.706,7.136-1.7,8.708-3.544
			c0.745-0.144,1.483-0.296,2.205-0.457c0.336,1.026,0.601,2.077,0.817,3.135l-0.24,0.048c0.28,2.959-0.449,7.625-1.908,12.116
			C67.069,73.006,65.715,76.021,64.119,78.322z"/>
		<path fill="#565D4B" d="M61.537,33.091c-0.778-0.521-1.764-1.371-2.807-2.357c0.666-0.064,1.331-0.16,1.973-0.272
			c1.034-0.185,2.614-0.401,4.193-0.762c0.898,0.593,1.845,1.146,2.839,1.652c-1.66,1.026-3.616,1.66-5.677,2.061
			C61.898,33.324,61.721,33.219,61.537,33.091z"/>
		<path fill="#2B2F25" d="M60.246,33.644c0.489-0.232,0.906-0.385,1.291-0.553c0.184,0.128,0.361,0.233,0.521,0.321
			c-0.649,0.121-1.315,0.225-1.98,0.305C60.134,33.692,60.19,33.668,60.246,33.644z"/>
		<path fill="#350B0F" d="M58.49,58.605c-1.339,2.783-0.497,9.181-0.072,12.003c0.409,2.71,0.529,6.503,1.371,9.341
			c-1.989-2.51-4.33-5.22-6.431-8.082c-0.321-0.441-0.642-0.882-0.946-1.323c-0.906-1.307-1.756-2.646-2.478-4.001
			c0.12-0.257,0.2-0.481,0.24-0.666c1.612,0.208,2.526-3.384,2.983-6.334C54.786,59.255,56.646,58.966,58.49,58.605z"/>
		<path fill="#917A67" d="M58.73,30.733c-2.67-2.542-5.741-5.981-6.808-7.064c-4.45-4.498-7.224-10.776-7.336-17.047
			c0.986-0.04,1.748-0.064,2.053-0.04c1.154,0.096,2.357,0.176,3.584,0.225c2.405,9.309,6.655,17.616,14.673,22.892
			c-1.579,0.361-3.159,0.577-4.193,0.762C60.062,30.573,59.396,30.669,58.73,30.733z"/>
		<path fill="#CCCCCC" d="M53.495,56.745c4.803-0.281,9.454-0.85,13.704-1.684c-1.572,1.844-5.1,2.838-8.708,3.544
			c-1.844,0.361-3.704,0.65-5.332,0.938C53.334,58.445,53.438,57.426,53.495,56.745z"/>
		<path fill="#6B3F43" d="M53.358,71.868c2.101,2.862,4.442,5.572,6.431,8.082c0.433,0.545,0.842,1.075,1.235,1.596
			c1.106-0.738,2.141-1.852,3.095-3.223c-0.369,1.219-2.358,7.2-3.456,8.868c-2.39,3.672-4.779,5.46-8.443,7.16
			c-4.595,2.141-9.959,3.416-15.187,3.985h-0.008c-0.072-0.016-0.144-0.024-0.208-0.016c-0.152-0.088-0.305-0.185-0.457-0.289
			c0.032,0.377,0.201,0.296,0.457,0.289c0.016,0.016,0.032,0.024,0.048,0.032c-1.652,0.184-3.288,0.289-4.883,0.32
			c-0.312,0.016-0.625,0.016-0.938,0.024c0.409-2.502-0.161-4.586-0.979-6.567c4.811-1.788,10.552-3.512,14.722-6.167
			c2.991-1.9,10.672-10.007,8.371-14C53.23,71.932,53.294,71.899,53.358,71.868z"/>
		<path fill="#502F32" d="M44.699,75.82c1.764-1.964,6.535-2.902,8.459-3.856c2.301,3.993-5.38,12.1-8.371,14
			c-4.169,2.654-9.911,4.378-14.722,6.167c-0.737-1.772-1.676-3.472-2.301-5.308l0.658-0.217c0-0.136,1.483-0.024,2.117-0.2
			c0.145-0.04,0.305-0.088,0.473-0.128c0.834-0.249,1.828-0.593,2.486-0.898c1.154-0.529,3.6-1.115,5.99-2.742
			c2.004-1.355,3.969-3.44,5.115-6.848L44.699,75.82z"/>
		<path fill="#502F32" d="M52.412,70.544l-0.096,0.064c-1.146-0.16-2.694-0.649-4.089-1.379c0.746-0.994,1.371-1.964,1.708-2.686
			C50.656,67.898,51.506,69.237,52.412,70.544z"/>
		<path fill="#A08871" d="M63.79,5.404c3.031-1.026-0.81-2.205-2.341-2.662c-2.317-0.697-4.626-1.155-7.08-1.291
			c-1.652-0.088-3.264-0.224-4.867-0.184l-0.032-0.97c7.361-0.265,14.866,0.601,17.055,3.319l-0.04,0.04
			c0.232,1.099,0.417,2.31,0.602,3.56l-0.337,0.048c-3.472,2.542-3.087,14.088,0.81,15.997c1.203-2.502-0.979-3.688-1.234-5.95
			c-0.217-1.973,1.179-3.568,1.227-5.236l0.265-0.048c0.257,1.411,0.577,2.791,1.026,4.049c0.016,0.048,0.032,0.096,0.048,0.145
			c1.082,3.015,0.617,7.481,1.179,10.953l-0.088,0.016c-0.874,1.275-2.983,2.021-5.084,2.51
			c-8.018-5.276-12.268-13.583-14.673-22.892c2.895,0.128,5.925,0.08,8.78-0.321c1.588-0.216,3.111-0.537,4.53-0.994
			C63.622,5.46,63.702,5.436,63.79,5.404z"/>
		<path fill="#7F6C5D" d="M63.79,5.404c-0.088,0.032-0.168,0.056-0.257,0.088c-5.3-3.809-11.65-2.253-18.169-3.841
			c0.746-0.064,1.467-0.112,2.084-0.201c0.682-0.104,1.363-0.16,2.053-0.184c1.604-0.04,3.215,0.096,4.867,0.184
			c2.454,0.136,4.763,0.594,7.08,1.291C62.98,3.199,66.821,4.377,63.79,5.404z"/>
		<path fill="#A08871" d="M62.058,33.412c2.061-0.401,4.017-1.034,5.677-2.061c1.05-0.649,1.973-1.451,2.726-2.454
			c-0.176-0.537-0.305-1.115-0.393-1.724c-0.562-3.472-0.097-7.938-1.179-10.953c-0.016-0.048-0.032-0.096-0.048-0.145
			c7.569-0.914,23.261,5.589,25.401,14.537c1.837,7.673-2.662,13.527-8.731,17.544c0,0,0,0-0.008,0
			c-5.966,2.317-12.14,4.089-18.41,5.276c-2.574,0.489-5.172,0.882-7.818,1.179c-2.558,0.393-5.116,0.673-7.658,0.842
			c-14.136,0.722-28.569-0.08-41.398-8.099C4.928,43.387,0.173,36.138,2.851,30.092c0,0,0.008-0.008,0.008-0.016
			c5.83-8.115,19.998-14.393,28.208-14.393l0.136,0.024c-0.232,1.387-0.449,2.774-0.633,4.161
			c-4.554,1.548-10.905,4.154-14.657,7.056c-6.68,5.172,5.597,6.936,9.485,7.698c6.054,1.179,11.635,1.451,17.736,1.451
			c5.877,0,11.771-0.016,16.943-2.357C60.743,33.636,61.409,33.532,62.058,33.412z"/>
		<path fill="#42210B" d="M36.865,98.352c7.449,4.618,20.375,4.081,27.775-0.65c0.209-0.136,0.426-0.272,0.649-0.409
			c2.157-1.347,4.707-2.822,6.552-4.667c-0.032,0.545-0.129,1.179-0.241,1.78c-12.42,9.574-26.637,9.895-39.618,4.266
			C33.577,98.641,35.213,98.536,36.865,98.352z"/>
		<path fill="#1A1A1A" d="M44.458,66.351c2.021-1.949,1.676-3.568,2.991-4.819l0.449-0.12c0.433,1.74,1.139,3.448,2.037,5.132
			c-0.337,0.722-0.962,1.692-1.708,2.686c-1.435-0.762-2.71-1.772-3.208-2.967C44.843,66.287,44.658,66.311,44.458,66.351z"/>
		<path fill="#004147" d="M51.025,112.079c-2.069,0.321-4.193,0.377-6.391,0.096c-3.865-0.497-8.299-1.371-11.603-2.958
			c-1.363-0.658-5.669-3.753-6.422-4.779c1.627-0.296,2.958-1.435,3.769-3.383c3.424,1.074,6.872,2.077,10.312,2.654
			c0.088,2.774,3.4,4.827,5.212,6.238C47.152,110.917,49.221,111.783,51.025,112.079z"/>
		<path fill="#1A1A1A" d="M47.898,61.412l-0.449,0.12c0.473-0.449,1.163-0.858,2.261-1.21c0.89-0.289,2.093-0.538,3.448-0.778
			c-0.457,2.951-1.371,6.543-2.983,6.334c-0.04,0.184-0.12,0.409-0.24,0.666C49.037,64.859,48.331,63.151,47.898,61.412z"/>
		<path fill="#CCCCCC" d="M40.296,56.793c1.973,0.104,3.953,0.152,5.926,0.161c0.168,1.54-2.157,3.039-1.965,5.091
			c0.625-0.281,1.492-0.321,2.149-0.657c-1.86,1.467-1.796,3.319-2.63,5.116c-0.048,0.112-0.104,0.224-0.168,0.336
			c-0.096,0.185-0.208,0.361-0.321,0.529c-2.197,1.844-4.226,3.729-6.398,5.484c-1.155,0.93-2.357,1.828-3.648,2.654
			c-0.545-1.307,0.593-5.196,1.396-6.447c-5.541,0.625-2.053-2.831-1.219-5.204c-0.585,0.024-1.315-0.176-1.893-0.128
			c0.658-3.031,8.908-6.166,8.764-6.751L40.296,56.793z M43.432,62.67c-0.593-0.361-0.449-0.778-0.81-1.219
			c-0.128-0.008-0.249-0.024-0.376-0.04c-1.756,0.946-4.186,3.255-3.592,4.803C39.671,68.876,42.999,63.544,43.432,62.67z"/>
		<path fill="#1A1A1A" d="M48.227,69.229c-1.547,2.077-3.616,4.258-4.675,4.458c0.096-0.377,0.208-0.489,0.241-0.898
			c-0.842,1.074-1.997,2.333-3.568,2.229c0.401-1.283,1.203-2.542,2.189-3.496c-0.473,0.377-1.026,0.562-1.491,0.842
			c-0.112-0.121-0.232-0.241-0.353-0.353c0.256-2.149,1.7-3.079,2.718-4.643c0.201-0.176,0.409-0.353,0.618-0.521
			c0.2-0.168,0.385-0.329,0.553-0.497c0.2-0.041,0.385-0.064,0.561-0.088C45.517,67.458,46.792,68.468,48.227,69.229z"/>
		<path fill="#CCCCCC" d="M44.458,66.351c-0.168,0.168-0.353,0.329-0.553,0.497c-0.208,0.168-0.417,0.345-0.618,0.521
			c0.112-0.168,0.225-0.345,0.321-0.529c0.064-0.112,0.121-0.225,0.168-0.336C44.001,66.439,44.233,66.383,44.458,66.351z"/>
		<path fill="#1A1A1A" d="M47.449,61.532c-1.315,1.251-0.97,2.871-2.991,4.819c-0.225,0.032-0.457,0.088-0.682,0.152
			c0.834-1.796,0.77-3.648,2.63-5.116c-0.657,0.336-1.523,0.376-2.149,0.657c-0.192-2.053,2.133-3.552,1.965-5.091
			c2.445,0,4.875-0.064,7.272-0.208c-0.056,0.681-0.161,1.7-0.337,2.798c-1.355,0.24-2.558,0.489-3.448,0.778
			C48.611,60.674,47.922,61.083,47.449,61.532z"/>
		<path fill="#917A67" d="M45.364,1.651c6.519,1.587,12.869,0.032,18.169,3.841c-1.419,0.457-2.942,0.778-4.53,0.994
			c-0.176-0.176-0.401-0.858-0.713-1.139c-0.337-0.305-0.866-0.553-1.259-0.77c-1.427-0.802-3.352-0.898-4.956-1.203
			c-2.077-0.385-4.153-0.729-6.27-0.818c-0.69-0.032-1.363-0.136-2.037-0.136c-0.249,0.008-0.802-0.048-1.323-0.056v-0.12
			c-0.176-0.032-0.545-0.008-1.034,0.072C42.509,1.868,43.985,1.748,45.364,1.651z"/>
		<path fill="#E6E6E6" d="M42.622,61.452c0.361,0.441,0.217,0.858,0.81,1.219c-0.433,0.874-3.761,6.206-4.779,3.544
			c-0.593-1.547,1.836-3.856,3.592-4.803C42.373,61.428,42.494,61.444,42.622,61.452z"/>
		<path fill="#A08871" d="M41.411,2.317c0.489-0.08,0.858-0.104,1.034-0.072v0.12c0.521,0.008,1.075,0.064,1.323,0.056
			c0.673,0,1.347,0.104,2.037,0.136c2.117,0.088,4.193,0.433,6.27,0.818c1.604,0.305,3.528,0.401,4.956,1.203
			c0.393,0.216,0.922,0.465,1.259,0.77c0.312,0.281,0.537,0.962,0.713,1.139c-2.854,0.401-5.885,0.449-8.78,0.321
			c-1.227-0.048-2.43-0.128-3.584-0.225c-0.305-0.024-1.067,0-2.053,0.04c-3.231,0.112-8.924,0.272-9.109-1.363
			C35.325,3.92,39.375,2.662,41.411,2.317z"/>
		<path fill="#6D5D52" d="M39.198,19.484c-0.433-2.101-0.168-5.147,0.995-7.441c-0.329,2.269,0.561,5.083,1.427,6.735
			c0.746,1.419,6.583,6.912,2.101,6.463C42.461,23.212,39.912,22.924,39.198,19.484z"/>
		<path fill="#6B3F43" d="M40.224,75.019c1.572,0.104,2.727-1.155,3.568-2.229c-0.032,0.409-0.145,0.521-0.241,0.898
			c1.059-0.2,3.127-2.381,4.675-4.458c1.395,0.729,2.943,1.219,4.089,1.379l0.096-0.064c0.305,0.441,0.625,0.882,0.946,1.323
			c-0.064,0.032-0.128,0.064-0.201,0.096c-1.924,0.954-6.695,1.892-8.459,3.856l-0.097-0.032c0.088-0.233,0.161-0.481,0.233-0.73
			l-0.136-0.04c-3.648,5.781-8.676-0.457-7.81-2.165c2.173-1.756,4.202-3.64,6.398-5.484c-1.018,1.563-2.461,2.494-2.718,4.643
			c0.12,0.112,0.24,0.232,0.353,0.353c0.465-0.281,1.019-0.465,1.491-0.842C41.427,72.477,40.625,73.736,40.224,75.019z"/>
		<path fill="#6B3F43" d="M39.487,82.636c-2.39,1.627-4.835,2.213-5.99,2.742c-0.658,0.305-1.652,0.649-2.486,0.898
			c-1.355-2.341-1.042-5.404-0.93-8.187c0.73-0.682,1.452-1.323,2.181-1.869C33.689,78.731,37.073,81.754,39.487,82.636z"/>
		<path fill="#7F6C5D" d="M43.72,25.241c4.482,0.449-1.355-5.043-2.101-6.463c-0.866-1.652-1.756-4.466-1.427-6.735
			c-1.163,2.293-1.427,5.34-0.995,7.441C39.912,22.924,42.461,23.212,43.72,25.241z M31.204,15.708
			c0.658-4.009,1.476-8.035,2.333-12.132c1.957-1.724,8.876-3.023,15.932-3.279l0.032,0.97c-0.689,0.024-1.371,0.08-2.053,0.184
			c-0.617,0.088-1.339,0.136-2.084,0.201c-1.379,0.096-2.855,0.216-3.953,0.666c-2.037,0.345-6.086,1.604-5.934,2.943
			c0.185,1.635,5.877,1.475,9.109,1.363c0.112,6.271,2.886,12.549,7.336,17.047c1.066,1.083,4.138,4.522,6.808,7.064
			c-3.063,0.329-6.351,0.257-9.389,0.257c-5.26,0.008-15.909-0.658-19.373-5.757c0.104-1.21,0.225-2.414,0.369-3.616
			c0.072-0.585,0.152-1.163,0.232-1.748C30.755,18.481,30.971,17.095,31.204,15.708z"/>
		<path fill="#6B3F43" d="M32.262,76.221c0.321-0.265,0.642-0.489,0.962-0.697c0.008,0,0.008-0.008,0.016-0.016
			c1.291-0.826,2.494-1.724,3.648-2.654c-0.866,1.708,4.162,7.946,7.81,2.165l0.136,0.04c-0.072,0.249-0.145,0.497-0.233,0.73
			c-1.146,3.408-3.111,5.492-5.115,6.848C37.073,81.754,33.689,78.731,32.262,76.221z"/>
		<path fill="#B3B3B3" d="M22.528,84.079c0.016-0.561,0.024-1.123,0.04-1.676c0.024-0.89,0.04-1.764,0.072-2.638
			c0.008-0.032,0.016-0.064,0.024-0.104c0.081-0.361,0.081-0.753,0.008-1.155c0.048-1.523,0.112-3.022,0.185-4.506
			c0.104-2.053,0.24-4.073,0.425-6.078c0.409-4.346,1.05-8.62,2.149-12.974c4.707,0.97,9.758,1.58,14.866,1.844l-0.008,0.185
			c0.144,0.585-8.106,3.72-8.764,6.751c0.577-0.048,1.307,0.152,1.893,0.128c-0.834,2.374-4.322,5.83,1.219,5.204
			c-0.802,1.251-1.94,5.14-1.396,6.447c-0.008,0.008-0.008,0.016-0.016,0.016c-0.32,0.208-0.641,0.433-0.962,0.697
			c-0.729,0.545-1.451,1.187-2.181,1.869c-1.243,1.163-2.494,2.429-3.752,3.52C25.078,82.684,23.819,83.59,22.528,84.079z"/>
		<path fill="#2B2F25" d="M58.73,30.733c1.042,0.986,2.029,1.836,2.807,2.357c-0.385,0.168-0.802,0.321-1.291,0.553
			c-0.056,0.024-0.112,0.048-0.168,0.072c-2.767,0.369-5.597,0.417-8.019,0.537c-0.296,0.016-0.593,0.024-0.898,0.032
			c-3.945,0.128-8.523-0.152-12.147-1.106c-3.36-0.882-7.064-2.357-9.269-5.404l0.048-0.04c0.048-0.834,0.104-1.668,0.176-2.502
			c3.464,5.1,14.112,5.765,19.373,5.757C52.38,30.99,55.667,31.062,58.73,30.733z"/>
		<path fill="#754C24" d="M31.981,98.672c12.981,5.629,27.198,5.308,39.618-4.266c-0.192,1.115-0.433,2.101-0.433,2.157
			c-0.185,0.08-0.369,0.16-0.554,0.24c-6.631,2.879-10.849,6.206-18.394,6.583c-3.271,0.161-7.417,0.995-11.202,0.377
			c-0.112-0.016-0.216-0.032-0.329-0.056c-3.44-0.577-6.888-1.58-10.312-2.654c0.104-0.241,0.2-0.498,0.289-0.77
			c0.008,0.008,0.024,0.016,0.032,0.024c0.24-0.096,0.176-0.16,0.024-0.224c0.096-0.297,0.176-0.618,0.241-0.946
			c0.032-0.145,0.056-0.297,0.08-0.441C31.356,98.688,31.669,98.688,31.981,98.672z"/>
		<path fill="#917A67" d="M43.135,36.074c-6.102,0-11.683-0.272-17.736-1.451c-3.889-0.762-16.165-2.526-9.485-7.698
			c3.752-2.902,10.103-5.508,14.657-7.056c-0.08,0.585-0.16,1.163-0.232,1.748c-2.229,0.361-7.585,3.504-7.489,6.142
			c0.112,2.871,5.733,4.61,7.89,5.14c3.151,0.77,15.828,3.376,20.422,1.387c0.305-0.008,0.602-0.016,0.898-0.032
			c2.422-0.12,5.252-0.168,8.019-0.537C54.906,36.058,49.012,36.074,43.135,36.074z"/>
		<path fill="#7F6C5D" d="M29.745,27.775c2.205,3.047,5.909,4.522,9.269,5.404c3.624,0.954,8.203,1.235,12.147,1.106
			c-4.594,1.989-17.271-0.617-20.422-1.387c-2.157-0.529-7.778-2.269-7.89-5.14c-0.096-2.638,5.26-5.781,7.489-6.142
			c-0.145,1.203-0.265,2.406-0.369,3.616c-0.072,0.834-0.128,1.668-0.176,2.502L29.745,27.775z"/>
		<path fill="#CCCCCC" d="M30.723,100.084c-0.016,0.064-0.04,0.136-0.056,0.2c-4.691-2.918-12.268-8.972-7.216-14.842l0.048-0.521
			c0.714,0.08,1.396,0.256,2.005,0.521c0.689,0.312,1.299,0.746,1.756,1.307l0.433-0.145c0.024,0.072,0.048,0.145,0.072,0.217
			c0.625,1.836,1.564,3.536,2.301,5.308c0.818,1.98,1.387,4.065,0.979,6.567c-0.024,0.144-0.048,0.296-0.08,0.441
			C30.899,99.466,30.819,99.787,30.723,100.084z"/>
		<path fill="#502F32" d="M27.692,86.605l-0.433,0.145c-0.457-0.562-1.066-0.995-1.756-1.307c0.104-1.427,0.345-3.015,0.826-3.833
			c1.259-1.091,2.51-2.357,3.752-3.52c-0.112,2.782-0.425,5.845,0.93,8.187c-0.168,0.04-0.329,0.088-0.473,0.128
			c-0.633,0.176-2.117,0.064-2.117,0.2l-0.658,0.217C27.74,86.75,27.716,86.677,27.692,86.605z"/>
		<path fill="#868686" d="M18.872,85.555c1.451-0.585,3.111-0.818,4.626-0.633l-0.048,0.521c-5.052,5.87,2.525,11.923,7.216,14.842
			c-0.088,0.272-0.185,0.529-0.289,0.77c-0.81,1.948-2.141,3.087-3.769,3.383c-1.78,0.321-3.929-0.361-6.15-2.117
			c-3.408-2.694-6.864-9.774-5.084-13.727c0.064-0.145,0.136-0.281,0.208-0.409c0.281-0.481,0.649-0.922,1.083-1.291
			C17.292,86.333,18.046,85.883,18.872,85.555z"/>
		<path fill="#CCCCCC" d="M23.282,67.922c-0.185,2.005-0.321,4.025-0.425,6.078c-2.029-0.826-4.619-2.854-2.614-4.996v-0.008
			c0.834-0.538,1.844-0.914,3.031-1.075H23.282z"/>
		<path fill="#868686" d="M21.831,80.952c-0.634,0.457-1.211,0.577-1.708,0.465c-0.674-0.465-1.243-1.066-1.692-1.748
			c-0.577-1.5-0.361-3.456,1.034-3.785c0.201,1.812,1.9,3.271,3.175,3.769c0,0.04,0,0.072,0,0.112
			C22.52,80.23,22.263,80.64,21.831,80.952z"/>
		<path fill="#CCCCCC" d="M19.441,75.443c1.459-0.312,2.951,1.387,3.231,3.063c-0.008,0.385-0.024,0.762-0.032,1.147
			c-1.275-0.497-2.975-1.957-3.175-3.769C19.441,75.74,19.433,75.588,19.441,75.443z"/>
		<path fill="#868686" d="M19.465,75.885c-1.395,0.329-1.611,2.285-1.034,3.785c-2.149-3.24-1.764-8.379,1.812-10.672v0.008
			c-2.004,2.141,0.585,4.169,2.614,4.996c-0.072,1.483-0.137,2.982-0.185,4.506c-0.281-1.676-1.772-3.375-3.231-3.063
			C19.433,75.588,19.441,75.74,19.465,75.885z"/>
		<path fill="#868686" d="M15.312,88.562c-1.884-1.563-0.962-3.319,0.481-3.945c0.024,0.858,0.329,1.644,0.874,2.277
			c-0.433,0.369-0.802,0.81-1.083,1.291c-0.072,0.128-0.144,0.265-0.208,0.409L15.312,88.562z"/>
		<path fill="#917A67" d="M10.22,47.355c12.83,8.019,27.262,8.82,41.398,8.099c2.542-0.168,5.1-0.449,7.658-0.842
			c2.646-0.297,5.244-0.69,7.818-1.179c6.271-1.187,12.444-2.959,18.41-5.276c-2.494,1.66-5.244,2.999-7.931,4.033
			c-0.553,0.208-1.114,0.417-1.699,0.609c-1.396,0.481-2.879,0.914-4.435,1.307c-0.665,0.176-1.347,0.337-2.036,0.497
			c-0.722,0.161-1.46,0.313-2.205,0.457c-4.25,0.834-8.901,1.403-13.704,1.684c-2.397,0.144-4.827,0.208-7.272,0.208
			c-1.973-0.008-3.953-0.056-5.926-0.161c-5.107-0.265-10.159-0.874-14.866-1.844c-6.655-1.371-12.645-3.48-17.215-6.398
			c-9.405-6.014-9.486-12.693-5.364-18.458C0.173,36.138,4.928,43.387,10.22,47.355z"/>
	</g>
	<g>
	</g>
</g>
</svg>
